<?xml version="1.0" encoding="UTF-8" standalone="no"?>
<!DOCTYPE svg PUBLIC "-//W3C//DTD SVG 1.1//EN" "http://www.w3.org/Graphics/SVG/1.1/DTD/svg11.dtd">

<!-- Created with Vectornator (http://vectornator.io/) -->
<svg height="100%" stroke-miterlimit="10" style="fill-rule:nonzero;clip-rule:evenodd;stroke-linecap:round;stroke-linejoin:round;" version="1.1" viewBox="0 0 48 48" width="100%" xml:space="preserve" xmlns="http://www.w3.org/2000/svg" xmlns:vectornator="http://vectornator.io" xmlns:xlink="http://www.w3.org/1999/xlink">
<metadata>
<vectornator:setting key="IsTimeLapseWatermarkDisabled" value="false"/>
<vectornator:setting key="UndoHistoryDisabled" value="true"/>
<vectornator:setting key="VNDimensionsVisible" value="true"/>
<vectornator:setting key="VNSnapToGuides" value="true"/>
<vectornator:setting key="WDCMYKEnabledKey" value="false"/>
<vectornator:setting key="WDDisplayWhiteBackground" value="false"/>
<vectornator:setting key="WDDynamicGuides" value="false"/>
<vectornator:setting key="WDGuidesVisible" value="true"/>
<vectornator:setting key="WDIsolateActiveLayer" value="false"/>
<vectornator:setting key="WDOutlineMode" value="false"/>
<vectornator:setting key="WDRulersVisible" value="true"/>
<vectornator:setting key="WDSnapToEdges" value="false"/>
<vectornator:setting key="WDSnapToGrid" value="false"/>
<vectornator:setting key="WDSnapToPoints" value="false"/>
<vectornator:setting key="WDUnits" value="Pixels"/>
</metadata>
<defs>
<clipPath id="TextBounds">
<rect height="12.4248" width="40.9951" x="3.50244" y="17.7876"/>
</clipPath>
</defs>
<g id="Layer-1" vectornator:layerName="Layer 1">
<path d="M1 1L47 1L47 47L1 47L1 1Z" fill="#609744" fill-rule="evenodd" opacity="1" stroke="#000000" stroke-linecap="round" stroke-linejoin="round" stroke-width="1.47"/>
<g fill="#000000" opacity="1" stroke="none">
<path clip-path="url(#TextBounds)" d="M11.1216 23.4087C11.5806 23.5063 11.924 23.6626 12.1519 23.8774C12.4676 24.1769 12.6255 24.5431 12.6255 24.9761C12.6255 25.3049 12.5213 25.6198 12.313 25.9209C12.1047 26.222 11.819 26.4417 11.4561 26.5801C11.0931 26.7184 10.5389 26.7876 9.79346 26.7876L6.66846 26.7876L6.66846 26.6069L6.91748 26.6069C7.19417 26.6069 7.39274 26.519 7.51318 26.3433C7.58805 26.2293 7.62549 25.9868 7.62549 25.6157L7.62549 21.3384C7.62549 20.9282 7.57829 20.6694 7.48389 20.562C7.35693 20.4188 7.16813 20.3472 6.91748 20.3472L6.66846 20.3472L6.66846 20.1665L9.52979 20.1665C10.0636 20.1665 10.4917 20.2056 10.814 20.2837C11.3022 20.4009 11.675 20.6084 11.9321 20.9062C12.1893 21.2041 12.3179 21.5467 12.3179 21.9341C12.3179 22.2661 12.217 22.5632 12.0151 22.8252C11.8133 23.0872 11.5155 23.2817 11.1216 23.4087ZM8.56299 23.145C8.68343 23.1678 8.82096 23.1849 8.97559 23.1963C9.13021 23.2077 9.30029 23.2134 9.48584 23.2134C9.9611 23.2134 10.3184 23.1621 10.5576 23.0596C10.7969 22.957 10.98 22.8 11.1069 22.5884C11.2339 22.3768 11.2974 22.1457 11.2974 21.895C11.2974 21.5076 11.1395 21.1772 10.8237 20.9038C10.508 20.6304 10.0474 20.4937 9.44189 20.4937C9.11637 20.4937 8.8234 20.5295 8.56299 20.6011L8.56299 23.145ZM8.56299 26.3091C8.94059 26.397 9.31331 26.4409 9.68115 26.4409C10.2703 26.4409 10.7196 26.3083 11.0288 26.043C11.3381 25.7777 11.4927 25.4497 11.4927 25.0591C11.4927 24.8019 11.4227 24.5545 11.2827 24.3169C11.1427 24.0793 10.9149 23.8921 10.5991 23.7554C10.2834 23.6187 9.89274 23.5503 9.42725 23.5503C9.22542 23.5503 9.0529 23.5535 8.90967 23.5601C8.76644 23.5666 8.65088 23.578 8.56299 23.5942L8.56299 26.3091Z" fill-rule="evenodd"/>
<path clip-path="url(#TextBounds)" d="M16.019 26.1431C15.5601 26.4979 15.272 26.703 15.1548 26.7583C14.979 26.8397 14.7918 26.8804 14.5933 26.8804C14.284 26.8804 14.0293 26.7746 13.8291 26.563C13.6289 26.3514 13.5288 26.0731 13.5288 25.728C13.5288 25.5099 13.5776 25.3211 13.6753 25.1616C13.8088 24.9403 14.0407 24.7319 14.3711 24.5366C14.7015 24.3413 15.2508 24.1037 16.019 23.8237L16.019 23.6479C16.019 23.202 15.9482 22.896 15.8066 22.73C15.665 22.564 15.4591 22.481 15.189 22.481C14.9839 22.481 14.8211 22.5363 14.7007 22.647C14.577 22.7576 14.5151 22.8846 14.5151 23.0278L14.5249 23.311C14.5249 23.4608 14.4867 23.5763 14.4102 23.6577C14.3337 23.7391 14.2336 23.7798 14.1099 23.7798C13.9894 23.7798 13.891 23.7375 13.8145 23.6528C13.738 23.5682 13.6997 23.4526 13.6997 23.3062C13.6997 23.0262 13.8429 22.769 14.1294 22.5347C14.4159 22.3003 14.8179 22.1831 15.3354 22.1831C15.7326 22.1831 16.0581 22.2498 16.312 22.3833C16.5041 22.4842 16.6457 22.6421 16.7368 22.8569C16.7954 22.9969 16.8247 23.2834 16.8247 23.7163L16.8247 25.2349C16.8247 25.6613 16.8328 25.9225 16.8491 26.0186C16.8654 26.1146 16.8923 26.1789 16.9297 26.2114C16.9671 26.244 17.0103 26.2603 17.0591 26.2603C17.1112 26.2603 17.1567 26.2489 17.1958 26.2261C17.2642 26.1838 17.396 26.0649 17.5913 25.8696L17.5913 26.1431C17.2267 26.6313 16.8784 26.8755 16.5464 26.8755C16.3869 26.8755 16.2599 26.8201 16.1655 26.7095C16.0711 26.5988 16.0223 26.41 16.019 26.1431ZM16.019 25.8257L16.019 24.1216C15.5275 24.3169 15.2101 24.4552 15.0669 24.5366C14.8097 24.6799 14.6258 24.8296 14.5151 24.9858C14.4045 25.1421 14.3491 25.313 14.3491 25.4985C14.3491 25.7329 14.4191 25.9274 14.5591 26.082C14.6991 26.2367 14.8602 26.314 15.0425 26.314C15.2899 26.314 15.6154 26.1512 16.019 25.8257ZM15.4087 19.8247C15.6691 19.8247 15.8905 19.9159 16.0728 20.0981C16.255 20.2804 16.3462 20.5002 16.3462 20.7573C16.3462 21.0177 16.255 21.2391 16.0728 21.4214C15.8905 21.6037 15.6691 21.6948 15.4087 21.6948C15.1515 21.6948 14.9318 21.6037 14.7495 21.4214C14.5672 21.2391 14.4761 21.0177 14.4761 20.7573C14.4761 20.5002 14.5664 20.2804 14.7471 20.0981C14.9277 19.9159 15.1483 19.8247 15.4087 19.8247ZM15.4087 20.1616C15.2427 20.1616 15.1019 20.2194 14.9863 20.335C14.8708 20.4505 14.813 20.5913 14.813 20.7573C14.813 20.9201 14.8708 21.0601 14.9863 21.1772C15.1019 21.2944 15.2427 21.353 15.4087 21.353C15.5747 21.353 15.7155 21.2944 15.8311 21.1772C15.9466 21.0601 16.0044 20.9201 16.0044 20.7573C16.0044 20.5913 15.9466 20.4505 15.8311 20.335C15.7155 20.2194 15.5747 20.1616 15.4087 20.1616Z" fill-rule="evenodd"/>
<path clip-path="url(#TextBounds)" d="M19.4614 19.8442L19.4614 25.7769C19.4614 26.0568 19.4818 26.2424 19.5225 26.3335C19.5632 26.4246 19.6258 26.4938 19.7104 26.541C19.7951 26.5882 19.953 26.6118 20.1841 26.6118L20.1841 26.7876L17.9917 26.7876L17.9917 26.6118C18.1968 26.6118 18.3368 26.5907 18.4116 26.5483C18.4865 26.506 18.5451 26.436 18.5874 26.3384C18.6297 26.2407 18.6509 26.0535 18.6509 25.7769L18.6509 21.7144C18.6509 21.2098 18.6395 20.8997 18.6167 20.7842C18.5939 20.6686 18.5573 20.5897 18.5068 20.5474C18.4564 20.505 18.3921 20.4839 18.314 20.4839C18.2293 20.4839 18.1219 20.5099 17.9917 20.562L17.9087 20.3911L19.2417 19.8442L19.4614 19.8442Z" fill-rule="evenodd"/>
<path clip-path="url(#TextBounds)" d="M20.3794 22.7593L21.7563 22.2026L21.9419 22.2026L21.9419 23.2476C22.173 22.8537 22.4049 22.5778 22.6377 22.4199C22.8704 22.262 23.1154 22.1831 23.3726 22.1831C23.8218 22.1831 24.1961 22.3589 24.4956 22.7104C24.8634 23.1401 25.0474 23.7 25.0474 24.3901C25.0474 25.1616 24.826 25.7996 24.3833 26.3042C24.0187 26.7176 23.5597 26.9243 23.0063 26.9243C22.7655 26.9243 22.5571 26.8901 22.3813 26.8218C22.2511 26.7729 22.1047 26.6753 21.9419 26.5288L21.9419 27.8911C21.9419 28.1971 21.9606 28.3916 21.998 28.4746C22.0355 28.5576 22.1006 28.6235 22.1934 28.6724C22.2861 28.7212 22.4546 28.7456 22.6987 28.7456L22.6987 28.9263L20.355 28.9263L20.355 28.7456L20.4771 28.7456C20.6561 28.7489 20.8091 28.7147 20.936 28.6431C20.9979 28.6073 21.0459 28.5495 21.0801 28.4697C21.1143 28.39 21.1313 28.1873 21.1313 27.8618L21.1313 23.6333C21.1313 23.3436 21.1183 23.1597 21.0923 23.0815C21.0662 23.0034 21.0247 22.9448 20.9678 22.9058C20.9108 22.8667 20.8335 22.8472 20.7358 22.8472C20.6577 22.8472 20.5584 22.87 20.438 22.9155L20.3794 22.7593ZM21.9419 23.5356L21.9419 25.2056C21.9419 25.5669 21.9565 25.8045 21.9858 25.9185C22.0314 26.1073 22.1429 26.2733 22.3203 26.4165C22.4977 26.5597 22.7215 26.6313 22.9917 26.6313C23.3172 26.6313 23.5809 26.5044 23.7827 26.2505C24.0464 25.9185 24.1782 25.4513 24.1782 24.8491C24.1782 24.1655 24.0285 23.6398 23.729 23.272C23.5207 23.0181 23.2733 22.8911 22.9868 22.8911C22.8306 22.8911 22.6759 22.9302 22.5229 23.0083C22.4058 23.0669 22.2121 23.2427 21.9419 23.5356Z" fill-rule="evenodd"/>
<path clip-path="url(#TextBounds)" d="M27.2397 19.8442L27.2397 25.7769C27.2397 26.0568 27.2601 26.2424 27.3008 26.3335C27.3415 26.4246 27.4041 26.4938 27.4888 26.541C27.5734 26.5882 27.7313 26.6118 27.9624 26.6118L27.9624 26.7876L25.77 26.7876L25.77 26.6118C25.9751 26.6118 26.1151 26.5907 26.1899 26.5483C26.2648 26.506 26.3234 26.436 26.3657 26.3384C26.408 26.2407 26.4292 26.0535 26.4292 25.7769L26.4292 21.7144C26.4292 21.2098 26.4178 20.8997 26.395 20.7842C26.3722 20.6686 26.3356 20.5897 26.2852 20.5474C26.2347 20.505 26.1704 20.4839 26.0923 20.4839C26.0076 20.4839 25.9002 20.5099 25.77 20.562L25.687 20.3911L27.02 19.8442L27.2397 19.8442Z" fill-rule="evenodd"/>
<path clip-path="url(#TextBounds)" d="M31.0142 26.1431C30.5552 26.4979 30.2671 26.703 30.1499 26.7583C29.9741 26.8397 29.7869 26.8804 29.5884 26.8804C29.2791 26.8804 29.0244 26.7746 28.8242 26.563C28.624 26.3514 28.5239 26.0731 28.5239 25.728C28.5239 25.5099 28.5728 25.3211 28.6704 25.1616C28.8039 24.9403 29.0358 24.7319 29.3662 24.5366C29.6966 24.3413 30.2459 24.1037 31.0142 23.8237L31.0142 23.6479C31.0142 23.202 30.9434 22.896 30.8018 22.73C30.6602 22.564 30.4543 22.481 30.1841 22.481C29.979 22.481 29.8162 22.5363 29.6958 22.647C29.5721 22.7576 29.5103 22.8846 29.5103 23.0278L29.52 23.311C29.52 23.4608 29.4818 23.5763 29.4053 23.6577C29.3288 23.7391 29.2287 23.7798 29.105 23.7798C28.9845 23.7798 28.8861 23.7375 28.8096 23.6528C28.7331 23.5682 28.6948 23.4526 28.6948 23.3062C28.6948 23.0262 28.8381 22.769 29.1245 22.5347C29.411 22.3003 29.813 22.1831 30.3306 22.1831C30.7277 22.1831 31.0532 22.2498 31.3071 22.3833C31.4992 22.4842 31.6408 22.6421 31.7319 22.8569C31.7905 22.9969 31.8198 23.2834 31.8198 23.7163L31.8198 25.2349C31.8198 25.6613 31.828 25.9225 31.8442 26.0186C31.8605 26.1146 31.8874 26.1789 31.9248 26.2114C31.9622 26.244 32.0054 26.2603 32.0542 26.2603C32.1063 26.2603 32.1519 26.2489 32.1909 26.2261C32.2593 26.1838 32.3911 26.0649 32.5864 25.8696L32.5864 26.1431C32.2218 26.6313 31.8735 26.8755 31.5415 26.8755C31.382 26.8755 31.255 26.8201 31.1606 26.7095C31.0662 26.5988 31.0174 26.41 31.0142 26.1431ZM31.0142 25.8257L31.0142 24.1216C30.5226 24.3169 30.2052 24.4552 30.062 24.5366C29.8049 24.6799 29.6209 24.8296 29.5103 24.9858C29.3996 25.1421 29.3442 25.313 29.3442 25.4985C29.3442 25.7329 29.4142 25.9274 29.5542 26.082C29.6942 26.2367 29.8553 26.314 30.0376 26.314C30.285 26.314 30.6105 26.1512 31.0142 25.8257Z" fill-rule="evenodd"/>
<path clip-path="url(#TextBounds)" d="M36.0776 26.2847C35.8595 26.5125 35.6463 26.6761 35.438 26.7754C35.2297 26.8747 35.005 26.9243 34.7642 26.9243C34.2759 26.9243 33.8494 26.7201 33.4849 26.3115C33.1203 25.903 32.938 25.3781 32.938 24.7368C32.938 24.0955 33.1398 23.5088 33.5435 22.9766C33.9471 22.4443 34.4663 22.1782 35.1011 22.1782C35.495 22.1782 35.8205 22.3035 36.0776 22.5542L36.0776 21.729C36.0776 21.2179 36.0654 20.9038 36.041 20.7866C36.0166 20.6694 35.9784 20.5897 35.9263 20.5474C35.8742 20.505 35.8091 20.4839 35.731 20.4839C35.6463 20.4839 35.534 20.5099 35.394 20.562L35.3306 20.3911L36.6636 19.8442L36.8833 19.8442L36.8833 25.0151C36.8833 25.5392 36.8955 25.859 36.9199 25.9746C36.9443 26.0902 36.9834 26.1707 37.0371 26.2163C37.0908 26.2619 37.1535 26.2847 37.2251 26.2847C37.313 26.2847 37.4302 26.257 37.5767 26.2017L37.6304 26.3726L36.3022 26.9243L36.0776 26.9243L36.0776 26.2847ZM36.0776 25.9429L36.0776 23.6382C36.0581 23.4168 35.9995 23.215 35.9019 23.0327C35.8042 22.8504 35.6748 22.7129 35.5137 22.6201C35.3525 22.5273 35.1955 22.481 35.0425 22.481C34.756 22.481 34.5005 22.6095 34.2759 22.8667C33.9797 23.2052 33.8315 23.7 33.8315 24.3511C33.8315 25.0086 33.9748 25.5124 34.2612 25.8623C34.5477 26.2122 34.8667 26.3872 35.2183 26.3872C35.5145 26.3872 35.8009 26.2391 36.0776 25.9429Z" fill-rule="evenodd"/>
<path clip-path="url(#TextBounds)" d="M40.8091 22.1831L40.8091 23.7065L40.6479 23.7065C40.5243 23.228 40.3656 22.9025 40.1719 22.73C39.9782 22.5575 39.7316 22.4712 39.4321 22.4712C39.2043 22.4712 39.0203 22.5314 38.8804 22.6519C38.7404 22.7723 38.6704 22.9058 38.6704 23.0522C38.6704 23.2345 38.7225 23.3908 38.8267 23.521C38.9276 23.6545 39.1326 23.7961 39.4419 23.9458L40.1548 24.2925C40.8156 24.6147 41.146 25.0396 41.146 25.5669C41.146 25.9738 40.9922 26.3018 40.6846 26.5508C40.377 26.7998 40.0327 26.9243 39.6519 26.9243C39.3784 26.9243 39.0659 26.8755 38.7144 26.7778C38.6069 26.7453 38.519 26.729 38.4507 26.729C38.3758 26.729 38.3172 26.7713 38.2749 26.856L38.1138 26.856L38.1138 25.2593L38.2749 25.2593C38.366 25.715 38.5402 26.0584 38.7974 26.2896C39.0545 26.5207 39.3426 26.6362 39.6616 26.6362C39.8862 26.6362 40.0693 26.5703 40.2109 26.4385C40.3525 26.3066 40.4233 26.1479 40.4233 25.9624C40.4233 25.7378 40.3444 25.549 40.1865 25.396C40.0286 25.243 39.7137 25.0493 39.2417 24.8149C38.7697 24.5806 38.4604 24.369 38.314 24.1802C38.1675 23.9946 38.0942 23.7603 38.0942 23.4771C38.0942 23.1092 38.2204 22.8016 38.4727 22.5542C38.7249 22.3068 39.0513 22.1831 39.4517 22.1831C39.6274 22.1831 39.8407 22.2205 40.0913 22.2954C40.2573 22.3442 40.368 22.3687 40.4233 22.3687C40.4754 22.3687 40.5161 22.3573 40.5454 22.3345C40.5747 22.3117 40.6089 22.2612 40.6479 22.1831L40.8091 22.1831Z" fill-rule="evenodd"/>
</g>
</g>
</svg>
