<?xml version="1.0" encoding="UTF-8" standalone="no"?>
<!DOCTYPE svg PUBLIC "-//W3C//DTD SVG 1.1//EN" "http://www.w3.org/Graphics/SVG/1.1/DTD/svg11.dtd">

<!-- Created with Vectornator (http://vectornator.io/) -->
<svg height="100%" stroke-miterlimit="10" style="fill-rule:nonzero;clip-rule:evenodd;stroke-linecap:round;stroke-linejoin:round;" version="1.1" viewBox="0 0 48 48" width="100%" xml:space="preserve" xmlns="http://www.w3.org/2000/svg" xmlns:vectornator="http://vectornator.io" xmlns:xlink="http://www.w3.org/1999/xlink">
<metadata>
<vectornator:setting key="IsTimeLapseWatermarkDisabled" value="false"/>
<vectornator:setting key="UndoHistoryDisabled" value="true"/>
<vectornator:setting key="VNDimensionsVisible" value="true"/>
<vectornator:setting key="VNSnapToGuides" value="true"/>
<vectornator:setting key="WDCMYKEnabledKey" value="false"/>
<vectornator:setting key="WDDisplayWhiteBackground" value="false"/>
<vectornator:setting key="WDDynamicGuides" value="false"/>
<vectornator:setting key="WDGuidesVisible" value="true"/>
<vectornator:setting key="WDIsolateActiveLayer" value="false"/>
<vectornator:setting key="WDOutlineMode" value="false"/>
<vectornator:setting key="WDRulersVisible" value="true"/>
<vectornator:setting key="WDSnapToEdges" value="false"/>
<vectornator:setting key="WDSnapToGrid" value="false"/>
<vectornator:setting key="WDSnapToPoints" value="false"/>
<vectornator:setting key="WDUnits" value="Pixels"/>
</metadata>
<defs>
<clipPath id="TextBounds">
<rect height="15.5098" width="43.8276" x="2.08618" y="16.2451"/>
</clipPath>
</defs>
<g id="Layer-1" vectornator:layerName="Layer 1">
<path d="M1 1L47 1L47 47L1 47L1 1Z" fill="#609744" fill-rule="evenodd" opacity="1" stroke="#000000" stroke-linecap="round" stroke-linejoin="round" stroke-width="1.47"/>
<g fill="#000000" opacity="1" stroke="none">
<path clip-path="url(#TextBounds)" d="M9.21387 23.1904C9.76465 23.3076 10.1768 23.4951 10.4502 23.7529C10.8291 24.1123 11.0186 24.5518 11.0186 25.0713C11.0186 25.4658 10.8936 25.8437 10.6436 26.2051C10.3936 26.5664 10.0508 26.8301 9.61523 26.9961C9.17969 27.1621 8.51465 27.2451 7.62012 27.2451L3.87012 27.2451L3.87012 27.0283L4.16895 27.0283C4.50098 27.0283 4.73926 26.9229 4.88379 26.7119C4.97363 26.5752 5.01855 26.2842 5.01855 25.8389L5.01855 20.7061C5.01855 20.2139 4.96191 19.9033 4.84863 19.7744C4.69629 19.6025 4.46973 19.5166 4.16895 19.5166L3.87012 19.5166L3.87012 19.2998L7.30371 19.2998C7.94434 19.2998 8.45801 19.3467 8.84473 19.4404C9.43066 19.5811 9.87793 19.8301 10.1865 20.1875C10.4951 20.5449 10.6494 20.9561 10.6494 21.4209C10.6494 21.8193 10.5283 22.1758 10.2861 22.4902C10.0439 22.8047 9.68652 23.0381 9.21387 23.1904ZM6.14355 22.874C6.28809 22.9014 6.45312 22.9219 6.63867 22.9355C6.82422 22.9492 7.02832 22.9561 7.25098 22.9561C7.82129 22.9561 8.25 22.8945 8.53711 22.7715C8.82422 22.6484 9.04395 22.46 9.19629 22.2061C9.34863 21.9521 9.4248 21.6748 9.4248 21.374C9.4248 20.9092 9.23535 20.5127 8.85645 20.1846C8.47754 19.8564 7.9248 19.6924 7.19824 19.6924C6.80762 19.6924 6.45605 19.7354 6.14355 19.8213L6.14355 22.874ZM6.14355 26.6709C6.59668 26.7764 7.04395 26.8291 7.48535 26.8291C8.19238 26.8291 8.73145 26.6699 9.10254 26.3516C9.47363 26.0332 9.65918 25.6396 9.65918 25.1709C9.65918 24.8623 9.5752 24.5654 9.40723 24.2803C9.23926 23.9951 8.96582 23.7705 8.58691 23.6064C8.20801 23.4424 7.73926 23.3604 7.18066 23.3604C6.93848 23.3604 6.73145 23.3643 6.55957 23.3721C6.3877 23.3799 6.24902 23.3936 6.14355 23.4131L6.14355 26.6709Z" fill-rule="evenodd"/>
<path clip-path="url(#TextBounds)" d="M15.0908 26.4717C14.54 26.8975 14.1943 27.1436 14.0537 27.21C13.8428 27.3076 13.6182 27.3564 13.3799 27.3564C13.0088 27.3564 12.7031 27.2295 12.4629 26.9756C12.2227 26.7217 12.1025 26.3877 12.1025 25.9736C12.1025 25.7119 12.1611 25.4854 12.2783 25.2939C12.4385 25.0283 12.7168 24.7783 13.1133 24.5439C13.5098 24.3096 14.1689 24.0244 15.0908 23.6885L15.0908 23.4775C15.0908 22.9424 15.0059 22.5752 14.8359 22.376C14.666 22.1768 14.4189 22.0771 14.0947 22.0771C13.8486 22.0771 13.6533 22.1436 13.5088 22.2764C13.3604 22.4092 13.2861 22.5615 13.2861 22.7334L13.2979 23.0732C13.2979 23.2529 13.252 23.3916 13.1602 23.4893C13.0684 23.5869 12.9482 23.6357 12.7998 23.6357C12.6553 23.6357 12.5371 23.585 12.4453 23.4834C12.3535 23.3818 12.3076 23.2432 12.3076 23.0674C12.3076 22.7314 12.4795 22.4229 12.8232 22.1416C13.167 21.8604 13.6494 21.7197 14.2705 21.7197C14.7471 21.7197 15.1377 21.7998 15.4424 21.96C15.6729 22.0811 15.8428 22.2705 15.9521 22.5283C16.0225 22.6963 16.0576 23.04 16.0576 23.5596L16.0576 25.3818C16.0576 25.8936 16.0674 26.207 16.0869 26.3223C16.1064 26.4375 16.1387 26.5146 16.1836 26.5537C16.2285 26.5928 16.2803 26.6123 16.3389 26.6123C16.4014 26.6123 16.4561 26.5986 16.5029 26.5713C16.585 26.5205 16.7432 26.3779 16.9775 26.1436L16.9775 26.4717C16.54 27.0576 16.1221 27.3506 15.7236 27.3506C15.5322 27.3506 15.3799 27.2842 15.2666 27.1514C15.1533 27.0186 15.0947 26.792 15.0908 26.4717ZM15.0908 26.0908L15.0908 24.0459C14.501 24.2803 14.1201 24.4463 13.9482 24.5439C13.6396 24.7158 13.4189 24.8955 13.2861 25.083C13.1533 25.2705 13.0869 25.4756 13.0869 25.6982C13.0869 25.9795 13.1709 26.2129 13.3389 26.3984C13.5068 26.584 13.7002 26.6768 13.9189 26.6768C14.2158 26.6768 14.6064 26.4814 15.0908 26.0908ZM14.3584 18.8896C14.6709 18.8896 14.9365 18.999 15.1553 19.2178C15.374 19.4365 15.4834 19.7002 15.4834 20.0088C15.4834 20.3213 15.374 20.5869 15.1553 20.8057C14.9365 21.0244 14.6709 21.1338 14.3584 21.1338C14.0498 21.1338 13.7861 21.0244 13.5674 20.8057C13.3486 20.5869 13.2393 20.3213 13.2393 20.0088C13.2393 19.7002 13.3477 19.4365 13.5645 19.2178C13.7813 18.999 14.0459 18.8896 14.3584 18.8896ZM14.3584 19.2939C14.1592 19.2939 13.9902 19.3633 13.8516 19.502C13.7129 19.6406 13.6436 19.8096 13.6436 20.0088C13.6436 20.2041 13.7129 20.3721 13.8516 20.5127C13.9902 20.6533 14.1592 20.7236 14.3584 20.7236C14.5576 20.7236 14.7266 20.6533 14.8652 20.5127C15.0039 20.3721 15.0732 20.2041 15.0732 20.0088C15.0732 19.8096 15.0039 19.6406 14.8652 19.502C14.7266 19.3633 14.5576 19.2939 14.3584 19.2939Z" fill-rule="evenodd"/>
<path clip-path="url(#TextBounds)" d="M19.2217 18.9131L19.2217 26.0322C19.2217 26.3682 19.2461 26.5908 19.2949 26.7002C19.3438 26.8096 19.4189 26.8926 19.5205 26.9492C19.6221 27.0059 19.8115 27.0342 20.0889 27.0342L20.0889 27.2451L17.458 27.2451L17.458 27.0342C17.7041 27.0342 17.8721 27.0088 17.9619 26.958C18.0518 26.9072 18.1221 26.8232 18.1729 26.7061C18.2236 26.5889 18.249 26.3643 18.249 26.0322L18.249 21.1572C18.249 20.5518 18.2354 20.1797 18.208 20.041C18.1807 19.9023 18.1367 19.8076 18.0762 19.7568C18.0156 19.7061 17.9385 19.6807 17.8447 19.6807C17.7432 19.6807 17.6143 19.7119 17.458 19.7744L17.3584 19.5693L18.958 18.9131L19.2217 18.9131Z" fill-rule="evenodd"/>
<path clip-path="url(#TextBounds)" d="M22.2861 18.9131L22.2861 22.8389C22.7197 22.3623 23.0635 22.0566 23.3174 21.9219C23.5713 21.7871 23.8252 21.7197 24.0791 21.7197C24.3838 21.7197 24.6455 21.8037 24.8643 21.9717C25.083 22.1396 25.2451 22.4033 25.3506 22.7627C25.4248 23.0127 25.4619 23.4697 25.4619 24.1338L25.4619 26.0322C25.4619 26.3721 25.4893 26.6045 25.5439 26.7295C25.583 26.8232 25.6494 26.8975 25.7432 26.9521C25.8369 27.0068 26.0088 27.0342 26.2588 27.0342L26.2588 27.2451L23.6221 27.2451L23.6221 27.0342L23.7451 27.0342C23.9951 27.0342 24.1689 26.9961 24.2666 26.9199C24.3643 26.8437 24.4326 26.7314 24.4717 26.583C24.4834 26.5205 24.4893 26.3369 24.4893 26.0322L24.4893 24.1338C24.4893 23.5479 24.459 23.1631 24.3984 22.9795C24.3379 22.7959 24.2412 22.6582 24.1084 22.5664C23.9756 22.4746 23.8154 22.4287 23.6279 22.4287C23.4365 22.4287 23.2373 22.4795 23.0303 22.5811C22.8232 22.6826 22.5752 22.8877 22.2861 23.1963L22.2861 26.0322C22.2861 26.3994 22.3066 26.6279 22.3477 26.7178C22.3887 26.8076 22.4648 26.8828 22.5762 26.9434C22.6875 27.0039 22.8799 27.0342 23.1533 27.0342L23.1533 27.2451L20.4932 27.2451L20.4932 27.0342C20.7314 27.0342 20.9189 26.9971 21.0557 26.9229C21.1338 26.8838 21.1963 26.8096 21.2432 26.7002C21.29 26.5908 21.3135 26.3682 21.3135 26.0322L21.3135 21.1748C21.3135 20.5615 21.2988 20.1846 21.2695 20.0439C21.2402 19.9033 21.1953 19.8076 21.1348 19.7568C21.0742 19.7061 20.9932 19.6807 20.8916 19.6807C20.8096 19.6807 20.6768 19.7119 20.4932 19.7744L20.4111 19.5693L22.0166 18.9131L22.2861 18.9131Z" fill-rule="evenodd"/>
<path clip-path="url(#TextBounds)" d="M26.4053 21.8779L28.9072 21.8779L28.9072 22.0947L28.7842 22.0947C28.6084 22.0947 28.4766 22.1328 28.3887 22.209C28.3008 22.2852 28.2568 22.3799 28.2568 22.4932C28.2568 22.6455 28.3213 22.8564 28.4502 23.126L29.7568 25.833L30.958 22.8682C31.0244 22.708 31.0576 22.5498 31.0576 22.3936C31.0576 22.3232 31.0439 22.2705 31.0166 22.2354C30.9854 22.1924 30.9365 22.1582 30.8701 22.1328C30.8037 22.1074 30.6865 22.0947 30.5186 22.0947L30.5186 21.8779L32.2646 21.8779L32.2646 22.0947C32.1201 22.1104 32.0088 22.1416 31.9307 22.1885C31.8525 22.2354 31.7666 22.3232 31.6729 22.4521C31.6377 22.5068 31.5713 22.6572 31.4736 22.9033L29.2881 28.2588C29.0771 28.7783 28.8008 29.1709 28.459 29.4365C28.1172 29.7021 27.7881 29.835 27.4717 29.835C27.2412 29.835 27.0518 29.7686 26.9033 29.6357C26.7549 29.5029 26.6807 29.3506 26.6807 29.1787C26.6807 29.0146 26.7344 28.8828 26.8418 28.7832C26.9492 28.6836 27.0967 28.6338 27.2842 28.6338C27.4131 28.6338 27.5889 28.6768 27.8115 28.7627C27.9678 28.8213 28.0654 28.8506 28.1045 28.8506C28.2217 28.8506 28.3496 28.79 28.4883 28.6689C28.627 28.5479 28.7666 28.3135 28.9072 27.9658L29.2881 27.0342L27.3604 22.9854C27.3018 22.8643 27.208 22.7139 27.0791 22.5342C26.9814 22.3975 26.9014 22.3057 26.8389 22.2588C26.749 22.1963 26.6045 22.1416 26.4053 22.0947L26.4053 21.8779Z" fill-rule="evenodd"/>
<path clip-path="url(#TextBounds)" d="M34.2686 20.1143L34.2686 21.8779L35.5225 21.8779L35.5225 22.2881L34.2686 22.2881L34.2686 25.7686C34.2686 26.1162 34.3184 26.3506 34.418 26.4717C34.5176 26.5928 34.6455 26.6533 34.8018 26.6533C34.9307 26.6533 35.0557 26.6133 35.1768 26.5332C35.2979 26.4531 35.3916 26.335 35.458 26.1787L35.6865 26.1787C35.5498 26.5615 35.3564 26.8496 35.1064 27.043C34.8564 27.2363 34.5986 27.333 34.333 27.333C34.1533 27.333 33.9775 27.2832 33.8057 27.1836C33.6338 27.084 33.5068 26.9414 33.4248 26.7559C33.3428 26.5703 33.3018 26.2842 33.3018 25.8975L33.3018 22.2881L32.4521 22.2881L32.4521 22.0947C32.667 22.0088 32.8867 21.8633 33.1113 21.6582C33.3359 21.4531 33.5361 21.21 33.7119 20.9287C33.8018 20.7803 33.9268 20.5088 34.0869 20.1143L34.2686 20.1143Z" fill-rule="evenodd"/>
<path clip-path="url(#TextBounds)" d="M37.6025 20.1143L37.6025 21.8779L38.8564 21.8779L38.8564 22.2881L37.6025 22.2881L37.6025 25.7686C37.6025 26.1162 37.6523 26.3506 37.752 26.4717C37.8516 26.5928 37.9795 26.6533 38.1357 26.6533C38.2646 26.6533 38.3896 26.6133 38.5107 26.5332C38.6318 26.4531 38.7256 26.335 38.792 26.1787L39.0205 26.1787C38.8838 26.5615 38.6904 26.8496 38.4404 27.043C38.1904 27.2363 37.9326 27.333 37.667 27.333C37.4873 27.333 37.3115 27.2832 37.1396 27.1836C36.9678 27.084 36.8408 26.9414 36.7588 26.7559C36.6768 26.5703 36.6357 26.2842 36.6357 25.8975L36.6357 22.2881L35.7861 22.2881L35.7861 22.0947C36.001 22.0088 36.2207 21.8633 36.4453 21.6582C36.6699 21.4531 36.8701 21.21 37.0459 20.9287C37.1357 20.7803 37.2607 20.5088 37.4209 20.1143L37.6025 20.1143Z" fill-rule="evenodd"/>
<path clip-path="url(#TextBounds)" d="M40.2803 23.8994C40.2764 24.6963 40.4697 25.3213 40.8604 25.7744C41.251 26.2275 41.71 26.4541 42.2373 26.4541C42.5889 26.4541 42.8945 26.3574 43.1543 26.1641C43.4141 25.9707 43.6318 25.6396 43.8076 25.1709L43.9893 25.2881C43.9072 25.8232 43.6689 26.3105 43.2744 26.75C42.8799 27.1895 42.3857 27.4092 41.792 27.4092C41.1475 27.4092 40.5957 27.1582 40.1367 26.6562C39.6777 26.1543 39.4482 25.4795 39.4482 24.6318C39.4482 23.7139 39.6836 22.998 40.1543 22.4844C40.625 21.9707 41.2158 21.7139 41.9268 21.7139C42.5283 21.7139 43.0225 21.9121 43.4092 22.3086C43.7959 22.7051 43.9893 23.2354 43.9893 23.8994L40.2803 23.8994ZM40.2803 23.5596L42.7646 23.5596C42.7451 23.2158 42.7041 22.9736 42.6416 22.833C42.5439 22.6143 42.3984 22.4424 42.2051 22.3174C42.0117 22.1924 41.8096 22.1299 41.5986 22.1299C41.2744 22.1299 40.9844 22.2559 40.7285 22.5078C40.4727 22.7598 40.3232 23.1104 40.2803 23.5596Z" fill-rule="evenodd"/>
</g>
</g>
</svg>
