<?xml version="1.0" encoding="UTF-8" standalone="no"?>
<!DOCTYPE svg PUBLIC "-//W3C//DTD SVG 1.1//EN" "http://www.w3.org/Graphics/SVG/1.1/DTD/svg11.dtd">

<!-- Created with Vectornator (http://vectornator.io/) -->
<svg height="100%" stroke-miterlimit="10" style="fill-rule:nonzero;clip-rule:evenodd;stroke-linecap:round;stroke-linejoin:round;" version="1.1" viewBox="0 0 48 48" width="100%" xml:space="preserve" xmlns="http://www.w3.org/2000/svg" xmlns:vectornator="http://vectornator.io" xmlns:xlink="http://www.w3.org/1999/xlink">
<metadata>
<vectornator:setting key="IsTimeLapseWatermarkDisabled" value="false"/>
<vectornator:setting key="UndoHistoryDisabled" value="true"/>
<vectornator:setting key="VNDimensionsVisible" value="true"/>
<vectornator:setting key="VNSnapToGuides" value="true"/>
<vectornator:setting key="WDCMYKEnabledKey" value="false"/>
<vectornator:setting key="WDDisplayWhiteBackground" value="false"/>
<vectornator:setting key="WDDynamicGuides" value="false"/>
<vectornator:setting key="WDGuidesVisible" value="true"/>
<vectornator:setting key="WDIsolateActiveLayer" value="false"/>
<vectornator:setting key="WDOutlineMode" value="false"/>
<vectornator:setting key="WDRulersVisible" value="true"/>
<vectornator:setting key="WDSnapToEdges" value="false"/>
<vectornator:setting key="WDSnapToGrid" value="false"/>
<vectornator:setting key="WDSnapToPoints" value="false"/>
<vectornator:setting key="WDUnits" value="Pixels"/>
</metadata>
<defs>
<clipPath id="TextBounds">
<rect height="32.1045" width="44" x="2" y="7.94775"/>
</clipPath>
</defs>
<g id="Layer-1" vectornator:layerName="Layer 1">
<path d="M1 1L47 1L47 47L1 47L1 1Z" fill="#609744" fill-rule="evenodd" opacity="1" stroke="#000000" stroke-linecap="round" stroke-linejoin="round" stroke-width="1.47"/>
</g>
<g id="Layer-2" vectornator:layerName="Layer 2">
<g fill="#000000" opacity="1" stroke="none">
<path clip-path="url(#TextBounds)" d="M19.0742 11.8101L19.0742 15.1934L20.6421 15.1934C21.0018 15.1934 21.2652 15.114 21.4324 14.9553C21.5995 14.7966 21.7106 14.4824 21.7656 14.0127L22.0005 14.0127L22.0005 16.9263L21.7656 16.9263C21.7614 16.592 21.718 16.3465 21.6355 16.1899C21.553 16.0334 21.4387 15.9159 21.2927 15.8376C21.1467 15.7594 20.9299 15.7202 20.6421 15.7202L19.0742 15.7202L19.0742 18.4243C19.0742 18.8602 19.1017 19.1479 19.1567 19.2876C19.1991 19.3934 19.2879 19.4844 19.4233 19.5605C19.6095 19.6621 19.8042 19.7129 20.0073 19.7129L20.3184 19.7129L20.3184 19.9478L16.624 19.9478L16.624 19.7129L16.9287 19.7129C17.2842 19.7129 17.5423 19.6092 17.7031 19.4019C17.8047 19.2664 17.8555 18.9406 17.8555 18.4243L17.8555 12.8638C17.8555 12.4279 17.828 12.1401 17.7729 12.0005C17.7306 11.8947 17.6439 11.8037 17.5127 11.7275C17.3307 11.626 17.1361 11.5752 16.9287 11.5752L16.624 11.5752L16.624 11.3403L23.0288 11.3403L23.1113 13.2319L22.8892 13.2319C22.7791 12.8299 22.6511 12.5347 22.5051 12.3464C22.3591 12.1581 22.1793 12.0216 21.9656 11.937C21.7519 11.8524 21.4207 11.8101 20.9722 11.8101L19.0742 11.8101Z" fill-rule="evenodd"/>
<path clip-path="url(#TextBounds)" d="M25.752 13.9619L25.752 15.2695C26.2386 14.3978 26.738 13.9619 27.25 13.9619C27.4827 13.9619 27.6753 14.0328 27.8276 14.1746C27.98 14.3163 28.0562 14.4803 28.0562 14.6665C28.0562 14.8315 28.0011 14.9712 27.8911 15.0854C27.7811 15.1997 27.6499 15.2568 27.4976 15.2568C27.3494 15.2568 27.1833 15.1838 26.9993 15.0378C26.8152 14.8918 26.6787 14.8188 26.5898 14.8188C26.5137 14.8188 26.4312 14.8612 26.3423 14.9458C26.1519 15.1193 25.9551 15.4049 25.752 15.8027L25.752 18.5894C25.752 18.911 25.7922 19.1543 25.8726 19.3193C25.9276 19.4336 26.0249 19.5288 26.1646 19.605C26.3042 19.6812 26.5052 19.7192 26.7676 19.7192L26.7676 19.9478L23.7905 19.9478L23.7905 19.7192C24.0868 19.7192 24.3068 19.6727 24.4507 19.5796C24.5565 19.5119 24.6305 19.404 24.6729 19.2559C24.694 19.1839 24.7046 18.9787 24.7046 18.6401L24.7046 16.3867C24.7046 15.7096 24.6908 15.3066 24.6633 15.1775C24.6358 15.0484 24.585 14.9543 24.511 14.895C24.4369 14.8358 24.3449 14.8062 24.2349 14.8062C24.1037 14.8062 23.9556 14.8379 23.7905 14.9014L23.7271 14.6729L25.4854 13.9619L25.752 13.9619Z" fill-rule="evenodd"/>
<path clip-path="url(#TextBounds)" d="M29.8589 10.9214C30.0366 10.9214 30.1879 10.9838 30.3127 11.1086C30.4376 11.2335 30.5 11.3848 30.5 11.5625C30.5 11.7402 30.4376 11.8926 30.3127 12.0195C30.1879 12.1465 30.0366 12.21 29.8589 12.21C29.6812 12.21 29.5288 12.1465 29.4019 12.0195C29.2749 11.8926 29.2114 11.7402 29.2114 11.5625C29.2114 11.3848 29.2738 11.2335 29.3987 11.1086C29.5235 10.9838 29.6769 10.9214 29.8589 10.9214ZM30.3857 13.9619L30.3857 18.6338C30.3857 18.9977 30.4122 19.24 30.4651 19.3606C30.518 19.4812 30.5963 19.5711 30.7 19.6304C30.8036 19.6896 30.993 19.7192 31.2681 19.7192L31.2681 19.9478L28.4434 19.9478L28.4434 19.7192C28.7269 19.7192 28.9173 19.6917 29.0146 19.6367C29.112 19.5817 29.1892 19.4907 29.2463 19.3638C29.3035 19.2368 29.332 18.9935 29.332 18.6338L29.332 16.3931C29.332 15.7625 29.313 15.3542 29.2749 15.168C29.2453 15.0326 29.1987 14.9384 29.1353 14.8855C29.0718 14.8326 28.985 14.8062 28.875 14.8062C28.7565 14.8062 28.6126 14.8379 28.4434 14.9014L28.3545 14.6729L30.1064 13.9619L30.3857 13.9619Z" fill-rule="evenodd"/>
<path clip-path="url(#TextBounds)" d="M6.23608 27.7749L6.23608 29.6855L7.59448 29.6855L7.59448 30.1299L6.23608 30.1299L6.23608 33.9004C6.23608 34.277 6.29004 34.5309 6.39795 34.6621C6.50586 34.7933 6.64445 34.8589 6.81372 34.8589C6.95337 34.8589 7.08879 34.8155 7.21997 34.7288C7.35116 34.642 7.45272 34.514 7.52466 34.3447L7.77222 34.3447C7.6241 34.7594 7.41463 35.0715 7.1438 35.281C6.87297 35.4905 6.59367 35.5952 6.30591 35.5952C6.11125 35.5952 5.92082 35.5413 5.73462 35.4333C5.54842 35.3254 5.41089 35.171 5.32202 34.97C5.23315 34.769 5.18872 34.459 5.18872 34.04L5.18872 30.1299L4.26831 30.1299L4.26831 29.9204C4.50106 29.8273 4.7391 29.6697 4.98242 29.4475C5.22575 29.2253 5.44263 28.9619 5.63306 28.6572C5.73039 28.4964 5.8658 28.2023 6.03931 27.7749L6.23608 27.7749Z" fill-rule="evenodd"/>
<path clip-path="url(#TextBounds)" d="M9.13696 31.8755C9.13273 32.7388 9.3422 33.4159 9.76538 33.9067C10.1886 34.3976 10.6858 34.6431 11.2571 34.6431C11.6379 34.6431 11.9691 34.5383 12.2505 34.3289C12.5319 34.1194 12.7678 33.7607 12.9583 33.2529L13.155 33.3799C13.0662 33.9596 12.808 34.4875 12.3806 34.9636C11.9532 35.4397 11.4179 35.6777 10.7747 35.6777C10.0764 35.6777 9.47868 35.4058 8.98145 34.8621C8.48421 34.3183 8.2356 33.5872 8.2356 32.6689C8.2356 31.6745 8.49056 30.899 9.00049 30.3425C9.51042 29.7861 10.1505 29.5078 10.9207 29.5078C11.5723 29.5078 12.1077 29.7226 12.5266 30.1521C12.9456 30.5816 13.155 31.1561 13.155 31.8755L9.13696 31.8755ZM9.13696 31.5073L11.8284 31.5073C11.8072 31.1349 11.7628 30.8726 11.6951 30.7202C11.5893 30.4832 11.4316 30.297 11.2222 30.1616C11.0127 30.0262 10.7937 29.9585 10.5652 29.9585C10.2139 29.9585 9.89974 30.095 9.62256 30.3679C9.34538 30.6409 9.18351 31.0207 9.13696 31.5073Z" fill-rule="evenodd"/>
<path clip-path="url(#TextBounds)" d="M15.929 26.4736L15.929 34.186C15.929 34.55 15.9554 34.7912 16.0083 34.9097C16.0612 35.0282 16.1427 35.1181 16.2527 35.1794C16.3627 35.2408 16.568 35.2715 16.8684 35.2715L16.8684 35.5L14.0183 35.5L14.0183 35.2715C14.2849 35.2715 14.4669 35.244 14.5642 35.189C14.6615 35.134 14.7377 35.043 14.7927 34.916C14.8477 34.7891 14.8752 34.5457 14.8752 34.186L14.8752 28.9048C14.8752 28.2489 14.8604 27.8458 14.8308 27.6956C14.8012 27.5453 14.7536 27.4427 14.688 27.3877C14.6224 27.3327 14.5388 27.3052 14.4373 27.3052C14.3272 27.3052 14.1876 27.339 14.0183 27.4067L13.9104 27.1846L15.6433 26.4736L15.929 26.4736Z" fill-rule="evenodd"/>
<path clip-path="url(#TextBounds)" d="M19.2297 27.7749L19.2297 29.6855L20.5881 29.6855L20.5881 30.1299L19.2297 30.1299L19.2297 33.9004C19.2297 34.277 19.2837 34.5309 19.3916 34.6621C19.4995 34.7933 19.6381 34.8589 19.8074 34.8589C19.947 34.8589 20.0824 34.8155 20.2136 34.7288C20.3448 34.642 20.4464 34.514 20.5183 34.3447L20.7659 34.3447C20.6178 34.7594 20.4083 35.0715 20.1375 35.281C19.8666 35.4905 19.5873 35.5952 19.2996 35.5952C19.1049 35.5952 18.9145 35.5413 18.7283 35.4333C18.5421 35.3254 18.4045 35.171 18.3157 34.97C18.2268 34.769 18.1824 34.459 18.1824 34.04L18.1824 30.1299L17.262 30.1299L17.262 29.9204C17.4947 29.8273 17.7327 29.6697 17.9761 29.4475C18.2194 29.2253 18.4363 28.9619 18.6267 28.6572C18.724 28.4964 18.8595 28.2023 19.033 27.7749L19.2297 27.7749Z" fill-rule="evenodd"/>
<path clip-path="url(#TextBounds)" d="M22.8479 30.7456C23.5292 29.9246 24.1788 29.5142 24.7966 29.5142C25.114 29.5142 25.387 29.5935 25.6155 29.7522C25.844 29.9109 26.026 30.1722 26.1614 30.5361C26.2545 30.79 26.301 31.1794 26.301 31.7041L26.301 34.186C26.301 34.5542 26.3306 34.8039 26.3899 34.9351C26.4364 35.0409 26.5116 35.1234 26.6152 35.1826C26.7189 35.2419 26.9104 35.2715 27.1897 35.2715L27.1897 35.5L24.3142 35.5L24.3142 35.2715L24.4348 35.2715C24.7056 35.2715 24.895 35.2302 25.0029 35.1477C25.1108 35.0652 25.186 34.9435 25.2283 34.7827C25.2452 34.7192 25.2537 34.5203 25.2537 34.186L25.2537 31.8057C25.2537 31.2767 25.1849 30.8927 25.0474 30.6536C24.9098 30.4145 24.6781 30.2949 24.3523 30.2949C23.8487 30.2949 23.3472 30.57 22.8479 31.1201L22.8479 34.186C22.8479 34.5796 22.8712 34.8229 22.9177 34.916C22.977 35.0387 23.0584 35.1287 23.1621 35.1858C23.2658 35.2429 23.4763 35.2715 23.7937 35.2715L23.7937 35.5L20.9182 35.5L20.9182 35.2715L21.0452 35.2715C21.3414 35.2715 21.5413 35.1964 21.645 35.0461C21.7487 34.8959 21.8005 34.6092 21.8005 34.186L21.8005 32.0278C21.8005 31.3296 21.7847 30.9043 21.7529 30.752C21.7212 30.5996 21.6725 30.4959 21.6069 30.4409C21.5413 30.3859 21.4535 30.3584 21.3435 30.3584C21.225 30.3584 21.0833 30.3901 20.9182 30.4536L20.823 30.2251L22.575 29.5142L22.8479 29.5142L22.8479 30.7456Z" fill-rule="evenodd"/>
<path clip-path="url(#TextBounds)" d="M29.1321 26.4736C29.3098 26.4736 29.4611 26.5361 29.5859 26.6609C29.7108 26.7857 29.7732 26.937 29.7732 27.1147C29.7732 27.2925 29.7108 27.4448 29.5859 27.5718C29.4611 27.6987 29.3098 27.7622 29.1321 27.7622C28.9543 27.7622 28.802 27.6987 28.675 27.5718C28.5481 27.4448 28.4846 27.2925 28.4846 27.1147C28.4846 26.937 28.547 26.7857 28.6719 26.6609C28.7967 26.5361 28.9501 26.4736 29.1321 26.4736ZM29.6589 29.5142L29.6589 34.186C29.6589 34.55 29.6854 34.7922 29.7383 34.9128C29.7912 35.0334 29.8695 35.1234 29.9731 35.1826C30.0768 35.2419 30.2662 35.2715 30.5413 35.2715L30.5413 35.5L27.7166 35.5L27.7166 35.2715C28.0001 35.2715 28.1905 35.244 28.2878 35.189C28.3852 35.134 28.4624 35.043 28.5195 34.916C28.5767 34.7891 28.6052 34.5457 28.6052 34.186L28.6052 31.9453C28.6052 31.3148 28.5862 30.9064 28.5481 30.7202C28.5185 30.5848 28.4719 30.4906 28.4084 30.4377C28.345 30.3848 28.2582 30.3584 28.1482 30.3584C28.0297 30.3584 27.8858 30.3901 27.7166 30.4536L27.6277 30.2251L29.3796 29.5142L29.6589 29.5142Z" fill-rule="evenodd"/>
<path clip-path="url(#TextBounds)" d="M32.9597 30.7456C33.641 29.9246 34.2906 29.5142 34.9084 29.5142C35.2258 29.5142 35.4988 29.5935 35.7273 29.7522C35.9558 29.9109 36.1378 30.1722 36.2732 30.5361C36.3663 30.79 36.4128 31.1794 36.4128 31.7041L36.4128 34.186C36.4128 34.5542 36.4425 34.8039 36.5017 34.9351C36.5483 35.0409 36.6234 35.1234 36.7271 35.1826C36.8307 35.2419 37.0222 35.2715 37.3015 35.2715L37.3015 35.5L34.426 35.5L34.426 35.2715L34.5466 35.2715C34.8175 35.2715 35.0068 35.2302 35.1147 35.1477C35.2227 35.0652 35.2978 34.9435 35.3401 34.7827C35.357 34.7192 35.3655 34.5203 35.3655 34.186L35.3655 31.8057C35.3655 31.2767 35.2967 30.8927 35.1592 30.6536C35.0216 30.4145 34.79 30.2949 34.4641 30.2949C33.9605 30.2949 33.4591 30.57 32.9597 31.1201L32.9597 34.186C32.9597 34.5796 32.983 34.8229 33.0295 34.916C33.0888 35.0387 33.1702 35.1287 33.2739 35.1858C33.3776 35.2429 33.5881 35.2715 33.9055 35.2715L33.9055 35.5L31.03 35.5L31.03 35.2715L31.157 35.2715C31.4532 35.2715 31.6532 35.1964 31.7568 35.0461C31.8605 34.8959 31.9124 34.6092 31.9124 34.186L31.9124 32.0278C31.9124 31.3296 31.8965 30.9043 31.8647 30.752C31.833 30.5996 31.7843 30.4959 31.7188 30.4409C31.6532 30.3859 31.5653 30.3584 31.4553 30.3584C31.3368 30.3584 31.1951 30.3901 31.03 30.4536L30.9348 30.2251L32.6868 29.5142L32.9597 29.5142L32.9597 30.7456Z" fill-rule="evenodd"/>
<path clip-path="url(#TextBounds)" d="M39.3201 33.3799C38.9646 33.2064 38.6917 32.9641 38.5012 32.6531C38.3108 32.342 38.2156 31.9982 38.2156 31.6216C38.2156 31.0461 38.4325 30.5509 38.8662 30.1362C39.3 29.7215 39.8554 29.5142 40.5325 29.5142C41.0868 29.5142 41.5671 29.6496 41.9734 29.9204L43.2048 29.9204C43.3868 29.9204 43.4926 29.9257 43.5222 29.9363C43.5518 29.9469 43.573 29.9648 43.5857 29.9902C43.6111 30.0283 43.6238 30.096 43.6238 30.1934C43.6238 30.3034 43.6132 30.3796 43.592 30.4219C43.5793 30.443 43.5571 30.46 43.5254 30.4727C43.4937 30.4854 43.3868 30.4917 43.2048 30.4917L42.4495 30.4917C42.6864 30.7964 42.8049 31.1857 42.8049 31.6597C42.8049 32.2013 42.5976 32.6647 42.1829 33.0498C41.7681 33.4349 41.2117 33.6274 40.5134 33.6274C40.2257 33.6274 39.9316 33.5851 39.6311 33.5005C39.4449 33.6613 39.319 33.802 39.2534 33.9226C39.1878 34.0432 39.155 34.1458 39.155 34.2305C39.155 34.3024 39.1899 34.3722 39.2598 34.4399C39.3296 34.5076 39.4661 34.5563 39.6692 34.5859C39.7877 34.6029 40.0839 34.6177 40.5579 34.6304C41.4296 34.6515 41.9945 34.6812 42.2527 34.7192C42.6462 34.7743 42.9604 34.9202 43.1953 35.1572C43.4302 35.3942 43.5476 35.6862 43.5476 36.0332C43.5476 36.5114 43.3233 36.96 42.8748 37.3789C42.2146 37.9967 41.3534 38.3057 40.2913 38.3057C39.4745 38.3057 38.7847 38.1216 38.2219 37.7534C37.9045 37.5418 37.7458 37.3218 37.7458 37.0933C37.7458 36.9917 37.7691 36.8901 37.8157 36.7886C37.8876 36.632 38.0357 36.4141 38.26 36.1348C38.2896 36.0967 38.5055 35.8682 38.9075 35.4492C38.6874 35.318 38.5319 35.2006 38.4409 35.0969C38.3499 34.9932 38.3044 34.8758 38.3044 34.7446C38.3044 34.5965 38.3647 34.423 38.4854 34.2241C38.606 34.0252 38.8842 33.7438 39.3201 33.3799ZM40.4246 29.8188C40.1114 29.8188 39.849 29.9437 39.6375 30.1934C39.4259 30.443 39.3201 30.826 39.3201 31.3423C39.3201 32.0109 39.4639 32.5293 39.7517 32.8975C39.9718 33.1768 40.2511 33.3164 40.5896 33.3164C40.9112 33.3164 41.1757 33.1958 41.3831 32.9546C41.5904 32.7134 41.6941 32.3346 41.6941 31.8184C41.6941 31.1455 41.5481 30.6187 41.2561 30.2378C41.0403 29.9585 40.7631 29.8188 40.4246 29.8188ZM39.2566 35.5C39.0577 35.7158 38.9075 35.9168 38.8059 36.103C38.7043 36.2892 38.6536 36.4606 38.6536 36.6172C38.6536 36.8203 38.7763 36.998 39.0217 37.1504C39.4449 37.4128 40.0564 37.5439 40.8562 37.5439C41.6179 37.5439 42.1797 37.4096 42.5415 37.1409C42.9033 36.8722 43.0842 36.5854 43.0842 36.2808C43.0842 36.0607 42.9763 35.9041 42.7605 35.811C42.5404 35.7179 42.1046 35.6629 41.4529 35.646C40.5007 35.6206 39.7686 35.5719 39.2566 35.5Z" fill-rule="evenodd"/>
</g>
</g>
</svg>
