<?xml version="1.0" encoding="UTF-8" standalone="no"?>
<!DOCTYPE svg PUBLIC "-//W3C//DTD SVG 1.1//EN" "http://www.w3.org/Graphics/SVG/1.1/DTD/svg11.dtd">

<!-- Created with Vectornator (http://vectornator.io/) -->
<svg height="100%" stroke-miterlimit="10" style="fill-rule:nonzero;clip-rule:evenodd;stroke-linecap:round;stroke-linejoin:round;" version="1.1" viewBox="0 0 48 48" width="100%" xml:space="preserve" xmlns="http://www.w3.org/2000/svg" xmlns:vectornator="http://vectornator.io" xmlns:xlink="http://www.w3.org/1999/xlink">
<metadata>
<vectornator:setting key="IsTimeLapseWatermarkDisabled" value="false"/>
<vectornator:setting key="UndoHistoryDisabled" value="true"/>
<vectornator:setting key="VNDimensionsVisible" value="true"/>
<vectornator:setting key="VNSnapToGuides" value="true"/>
<vectornator:setting key="WDCMYKEnabledKey" value="false"/>
<vectornator:setting key="WDDisplayWhiteBackground" value="false"/>
<vectornator:setting key="WDDynamicGuides" value="false"/>
<vectornator:setting key="WDGuidesVisible" value="true"/>
<vectornator:setting key="WDIsolateActiveLayer" value="false"/>
<vectornator:setting key="WDOutlineMode" value="false"/>
<vectornator:setting key="WDRulersVisible" value="true"/>
<vectornator:setting key="WDSnapToEdges" value="false"/>
<vectornator:setting key="WDSnapToGrid" value="false"/>
<vectornator:setting key="WDSnapToPoints" value="false"/>
<vectornator:setting key="WDUnits" value="Pixels"/>
</metadata>
<defs>
<clipPath id="TextBounds">
<rect height="32.1895" width="44" x="2" y="7.90527"/>
</clipPath>
</defs>
<g id="Layer-1" vectornator:layerName="Layer 1">
<path d="M1 1L47 1L47 47L1 47L1 1Z" fill="#609744" fill-rule="evenodd" opacity="1" stroke="#000000" stroke-linecap="round" stroke-linejoin="round" stroke-width="1.47"/>
<g fill="#000000" opacity="1" stroke="none">
<path clip-path="url(#TextBounds)" d="M16.7505 11.1416L16.7505 14.7852L18.439 14.7852C18.8263 14.7852 19.11 14.6997 19.29 14.5288C19.4701 14.3579 19.5897 14.0195 19.6489 13.5137L19.9019 13.5137L19.9019 16.6514L19.6489 16.6514C19.6444 16.2913 19.5977 16.027 19.5088 15.8584C19.4199 15.6898 19.2969 15.5633 19.1396 15.479C18.9824 15.3947 18.7489 15.3525 18.439 15.3525L16.7505 15.3525L16.7505 18.2646C16.7505 18.734 16.7801 19.0439 16.8394 19.1943C16.8849 19.3083 16.9806 19.4062 17.1265 19.4883C17.327 19.5977 17.5366 19.6523 17.7554 19.6523L18.0903 19.6523L18.0903 19.9053L14.1118 19.9053L14.1118 19.6523L14.4399 19.6523C14.8228 19.6523 15.1007 19.5407 15.2739 19.3174C15.3833 19.1715 15.438 18.8206 15.438 18.2646L15.438 12.2764C15.438 11.807 15.4084 11.4971 15.3491 11.3467C15.3035 11.2327 15.2101 11.1348 15.0688 11.0527C14.8729 10.9434 14.6632 10.8887 14.4399 10.8887L14.1118 10.8887L14.1118 10.6357L21.0093 10.6357L21.0981 12.6729L20.8589 12.6729C20.7404 12.2399 20.6025 11.922 20.4453 11.7192C20.2881 11.5164 20.0944 11.3695 19.8643 11.2783C19.6341 11.1872 19.2775 11.1416 18.7944 11.1416L16.7505 11.1416Z" fill-rule="evenodd"/>
<path clip-path="url(#TextBounds)" d="M23.9419 13.459L23.9419 14.8672C24.466 13.9284 25.0037 13.459 25.5552 13.459C25.8058 13.459 26.0132 13.5353 26.1772 13.688C26.3413 13.8407 26.4233 14.0173 26.4233 14.2178C26.4233 14.3955 26.3641 14.5459 26.2456 14.6689C26.1271 14.792 25.9858 14.8535 25.8218 14.8535C25.6623 14.8535 25.4834 14.7749 25.2852 14.6177C25.0869 14.4604 24.9399 14.3818 24.8442 14.3818C24.7622 14.3818 24.6733 14.4274 24.5776 14.5186C24.3726 14.7054 24.1606 15.013 23.9419 15.4414L23.9419 18.4424C23.9419 18.7887 23.9852 19.0508 24.0718 19.2285C24.131 19.3516 24.2358 19.4541 24.3862 19.5361C24.5366 19.6182 24.7531 19.6592 25.0356 19.6592L25.0356 19.9053L21.8296 19.9053L21.8296 19.6592C22.1486 19.6592 22.3856 19.609 22.5405 19.5088C22.6545 19.4359 22.7342 19.3197 22.7798 19.1602C22.8026 19.0827 22.814 18.8617 22.814 18.4971L22.814 16.0703C22.814 15.3411 22.7992 14.9071 22.7695 14.7681C22.7399 14.6291 22.6852 14.5277 22.6055 14.4639C22.5257 14.4001 22.4266 14.3682 22.3081 14.3682C22.1668 14.3682 22.0073 14.4023 21.8296 14.4707L21.7612 14.2246L23.6548 13.459L23.9419 13.459Z" fill-rule="evenodd"/>
<path clip-path="url(#TextBounds)" d="M28.3647 10.1846C28.5562 10.1846 28.7191 10.2518 28.8535 10.3862C28.988 10.5207 29.0552 10.6836 29.0552 10.875C29.0552 11.0664 28.988 11.2305 28.8535 11.3672C28.7191 11.5039 28.5562 11.5723 28.3647 11.5723C28.1733 11.5723 28.0093 11.5039 27.8726 11.3672C27.7358 11.2305 27.6675 11.0664 27.6675 10.875C27.6675 10.6836 27.7347 10.5207 27.8691 10.3862C28.0036 10.2518 28.1688 10.1846 28.3647 10.1846ZM28.9321 13.459L28.9321 18.4902C28.9321 18.8822 28.9606 19.1431 29.0176 19.2729C29.0745 19.4028 29.1589 19.4997 29.2705 19.5635C29.3822 19.6273 29.5861 19.6592 29.8823 19.6592L29.8823 19.9053L26.8403 19.9053L26.8403 19.6592C27.1457 19.6592 27.3507 19.6296 27.4556 19.5703C27.5604 19.5111 27.6436 19.4131 27.7051 19.2764C27.7666 19.1396 27.7974 18.8776 27.7974 18.4902L27.7974 16.0771C27.7974 15.3981 27.7769 14.9583 27.7358 14.7578C27.7039 14.612 27.6538 14.5106 27.5854 14.4536C27.5171 14.3966 27.4237 14.3682 27.3052 14.3682C27.1776 14.3682 27.0226 14.4023 26.8403 14.4707L26.7446 14.2246L28.6313 13.459L28.9321 13.459Z" fill-rule="evenodd"/>
<path clip-path="url(#TextBounds)" d="M32.48 11.5859L32.48 13.6436L33.9429 13.6436L33.9429 14.1221L32.48 14.1221L32.48 18.1826C32.48 18.5882 32.5381 18.8617 32.6543 19.0029C32.7705 19.1442 32.9198 19.2148 33.1021 19.2148C33.2524 19.2148 33.3983 19.1681 33.5396 19.0747C33.6808 18.9813 33.7902 18.8434 33.8677 18.6611L34.1343 18.6611C33.9748 19.1077 33.7492 19.4438 33.4575 19.6694C33.1659 19.895 32.8651 20.0078 32.5552 20.0078C32.3455 20.0078 32.1405 19.9497 31.9399 19.8335C31.7394 19.7173 31.5913 19.5509 31.4956 19.3345C31.3999 19.118 31.3521 18.7842 31.3521 18.333L31.3521 14.1221L30.3608 14.1221L30.3608 13.8965C30.6115 13.7962 30.8678 13.6265 31.1299 13.3872C31.3919 13.1479 31.6255 12.8643 31.8306 12.5361C31.9354 12.363 32.0812 12.0462 32.2681 11.5859L32.48 11.5859Z" fill-rule="evenodd"/>
<path clip-path="url(#TextBounds)" d="M7.41943 26.7363L7.41943 30.3799L9.10791 30.3799C9.49528 30.3799 9.77897 30.2944 9.95898 30.1235C10.139 29.9526 10.2586 29.6143 10.3179 29.1084L10.5708 29.1084L10.5708 32.2461L10.3179 32.2461C10.3133 31.8861 10.2666 31.6217 10.1777 31.4531C10.0889 31.2845 9.96582 31.158 9.80859 31.0737C9.65137 30.9894 9.41781 30.9473 9.10791 30.9473L7.41943 30.9473L7.41943 33.8594C7.41943 34.3288 7.44906 34.6387 7.5083 34.7891C7.55387 34.903 7.64958 35.001 7.79541 35.083C7.99593 35.1924 8.20557 35.2471 8.42432 35.2471L8.75928 35.2471L8.75928 35.5L4.78076 35.5L4.78076 35.2471L5.10889 35.2471C5.4917 35.2471 5.76969 35.1354 5.94287 34.9121C6.05225 34.7663 6.10693 34.4154 6.10693 33.8594L6.10693 27.8711C6.10693 27.4017 6.07731 27.0918 6.01807 26.9414C5.97249 26.8275 5.87907 26.7295 5.73779 26.6475C5.54183 26.5381 5.33219 26.4834 5.10889 26.4834L4.78076 26.4834L4.78076 26.2305L11.6782 26.2305L11.7671 28.2676L11.5278 28.2676C11.4093 27.8346 11.2715 27.5168 11.1143 27.314C10.957 27.1112 10.7633 26.9642 10.5332 26.873C10.3031 26.7819 9.94645 26.7363 9.46338 26.7363L7.41943 26.7363Z" fill-rule="evenodd"/>
<path clip-path="url(#TextBounds)" d="M14.3716 25.7793C14.563 25.7793 14.7259 25.8465 14.8604 25.981C14.9948 26.1154 15.062 26.2783 15.062 26.4697C15.062 26.6611 14.9948 26.8252 14.8604 26.9619C14.7259 27.0986 14.563 27.167 14.3716 27.167C14.1802 27.167 14.0161 27.0986 13.8794 26.9619C13.7427 26.8252 13.6743 26.6611 13.6743 26.4697C13.6743 26.2783 13.7415 26.1154 13.876 25.981C14.0104 25.8465 14.1756 25.7793 14.3716 25.7793ZM14.939 29.0537L14.939 34.085C14.939 34.4769 14.9674 34.7378 15.0244 34.8677C15.0814 34.9976 15.1657 35.0944 15.2773 35.1582C15.389 35.222 15.5929 35.2539 15.8892 35.2539L15.8892 35.5L12.8472 35.5L12.8472 35.2539C13.1525 35.2539 13.3576 35.2243 13.4624 35.165C13.5672 35.1058 13.6504 35.0078 13.7119 34.8711C13.7734 34.7344 13.8042 34.4723 13.8042 34.085L13.8042 31.6719C13.8042 30.9928 13.7837 30.5531 13.7427 30.3525C13.7108 30.2067 13.6606 30.1053 13.5923 30.0483C13.5239 29.9914 13.4305 29.9629 13.312 29.9629C13.1844 29.9629 13.0295 29.9971 12.8472 30.0654L12.7515 29.8193L14.6382 29.0537L14.939 29.0537Z" fill-rule="evenodd"/>
<path clip-path="url(#TextBounds)" d="M20.7153 29.0537L20.7153 31.1865L20.4897 31.1865C20.3166 30.5166 20.0944 30.0609 19.8232 29.8193C19.5521 29.5778 19.2069 29.457 18.7876 29.457C18.4686 29.457 18.2111 29.5413 18.0151 29.71C17.8192 29.8786 17.7212 30.0654 17.7212 30.2705C17.7212 30.5257 17.7941 30.7445 17.9399 30.9268C18.0812 31.1136 18.3683 31.3118 18.8013 31.5215L19.7993 32.0068C20.7244 32.458 21.187 33.0527 21.187 33.791C21.187 34.3607 20.9717 34.8198 20.541 35.1685C20.1104 35.5171 19.6284 35.6914 19.0952 35.6914C18.7124 35.6914 18.2749 35.623 17.7827 35.4863C17.6323 35.4408 17.5093 35.418 17.4136 35.418C17.3088 35.418 17.2267 35.4772 17.1675 35.5957L16.9419 35.5957L16.9419 33.3604L17.1675 33.3604C17.2951 33.9984 17.5389 34.4792 17.8989 34.8027C18.259 35.1263 18.6623 35.2881 19.1089 35.2881C19.4233 35.2881 19.6797 35.1958 19.8779 35.0112C20.0762 34.8267 20.1753 34.6045 20.1753 34.3447C20.1753 34.0303 20.0648 33.766 19.8438 33.5518C19.6227 33.3376 19.1818 33.0664 18.521 32.7383C17.8602 32.4102 17.4272 32.1139 17.2222 31.8496C17.0171 31.5898 16.9146 31.2617 16.9146 30.8652C16.9146 30.3503 17.0911 29.9196 17.4443 29.5732C17.7975 29.2269 18.2544 29.0537 18.8149 29.0537C19.061 29.0537 19.3595 29.1061 19.7104 29.2109C19.9429 29.2793 20.0978 29.3135 20.1753 29.3135C20.2482 29.3135 20.3052 29.2975 20.3462 29.2656C20.3872 29.2337 20.4351 29.1631 20.4897 29.0537L20.7153 29.0537Z" fill-rule="evenodd"/>
<path clip-path="url(#TextBounds)" d="M23.9692 25.7793L23.9692 32.0137L25.562 30.5576C25.8993 30.2477 26.0952 30.0518 26.1499 29.9697C26.1864 29.915 26.2046 29.8604 26.2046 29.8057C26.2046 29.7145 26.167 29.6359 26.0918 29.5698C26.0166 29.5037 25.8924 29.4661 25.7192 29.457L25.7192 29.2383L28.4399 29.2383L28.4399 29.457C28.0662 29.4661 27.7552 29.5231 27.5068 29.6279C27.2585 29.7327 26.9862 29.9196 26.6899 30.1885L25.0835 31.6719L26.6899 33.7021C27.1366 34.2627 27.4373 34.6182 27.5923 34.7686C27.811 34.9827 28.0024 35.1217 28.1665 35.1855C28.2804 35.2311 28.4787 35.2539 28.7612 35.2539L28.7612 35.5L25.7192 35.5L25.7192 35.2539C25.8924 35.2493 26.0098 35.2231 26.0713 35.1753C26.1328 35.1274 26.1636 35.0602 26.1636 34.9736C26.1636 34.8688 26.0724 34.7002 25.8901 34.4678L23.9692 32.0137L23.9692 34.0918C23.9692 34.4974 23.9977 34.764 24.0547 34.8916C24.1117 35.0192 24.1925 35.1104 24.2974 35.165C24.4022 35.2197 24.63 35.2493 24.981 35.2539L24.981 35.5L21.7954 35.5L21.7954 35.2539C22.1144 35.2539 22.3537 35.2152 22.5132 35.1377C22.6089 35.0876 22.6818 35.0101 22.7319 34.9053C22.8003 34.7549 22.8345 34.4951 22.8345 34.126L22.8345 28.4248C22.8345 27.7002 22.8185 27.257 22.7866 27.0952C22.7547 26.9334 22.7023 26.8218 22.6294 26.7603C22.5565 26.6987 22.4608 26.668 22.3423 26.668C22.2466 26.668 22.103 26.7067 21.9116 26.7842L21.7954 26.5449L23.6548 25.7793L23.9692 25.7793Z" fill-rule="evenodd"/>
<path clip-path="url(#TextBounds)" d="M30.1694 31.5967C30.1649 32.5264 30.3905 33.2555 30.8462 33.7842C31.3019 34.3128 31.8374 34.5771 32.4526 34.5771C32.8628 34.5771 33.2194 34.4644 33.5225 34.2388C33.8255 34.0132 34.0796 33.627 34.2847 33.0801L34.4966 33.2168C34.4009 33.8411 34.1229 34.4097 33.6626 34.9224C33.2023 35.4351 32.6258 35.6914 31.9331 35.6914C31.1812 35.6914 30.5374 35.3986 30.002 34.813C29.4665 34.2274 29.1987 33.4401 29.1987 32.4512C29.1987 31.3802 29.4733 30.5451 30.0225 29.9458C30.5716 29.3465 31.2609 29.0469 32.0903 29.0469C32.7922 29.0469 33.3687 29.2782 33.8198 29.7407C34.271 30.2033 34.4966 30.8219 34.4966 31.5967L30.1694 31.5967ZM30.1694 31.2002L33.0679 31.2002C33.0451 30.7992 32.9972 30.5166 32.9243 30.3525C32.8104 30.0973 32.6406 29.8968 32.415 29.751C32.1895 29.6051 31.9536 29.5322 31.7075 29.5322C31.3293 29.5322 30.9909 29.6792 30.6924 29.9731C30.3939 30.2671 30.2196 30.6761 30.1694 31.2002Z" fill-rule="evenodd"/>
<path clip-path="url(#TextBounds)" d="M37.1626 29.0537L37.1626 30.4619C37.6867 29.5231 38.2244 29.0537 38.7759 29.0537C39.0265 29.0537 39.2339 29.13 39.3979 29.2827C39.562 29.4354 39.644 29.612 39.644 29.8125C39.644 29.9902 39.5848 30.1406 39.4663 30.2637C39.3478 30.3867 39.2065 30.4482 39.0425 30.4482C38.883 30.4482 38.7041 30.3696 38.5059 30.2124C38.3076 30.0552 38.1606 29.9766 38.0649 29.9766C37.9829 29.9766 37.894 30.0221 37.7983 30.1133C37.5933 30.3001 37.3813 30.6077 37.1626 31.0361L37.1626 34.0371C37.1626 34.3835 37.2059 34.6455 37.2925 34.8232C37.3517 34.9463 37.4565 35.0488 37.6069 35.1309C37.7573 35.2129 37.9738 35.2539 38.2563 35.2539L38.2563 35.5L35.0503 35.5L35.0503 35.2539C35.3693 35.2539 35.6063 35.2038 35.7612 35.1035C35.8752 35.0306 35.9549 34.9144 36.0005 34.7549C36.0233 34.6774 36.0347 34.4564 36.0347 34.0918L36.0347 31.665C36.0347 30.9359 36.0199 30.5018 35.9902 30.3628C35.9606 30.2238 35.9059 30.1224 35.8262 30.0586C35.7464 29.9948 35.6473 29.9629 35.5288 29.9629C35.3875 29.9629 35.228 29.9971 35.0503 30.0654L34.9819 29.8193L36.8755 29.0537L37.1626 29.0537Z" fill-rule="evenodd"/>
<path clip-path="url(#TextBounds)" d="M41.5854 25.7793C41.7769 25.7793 41.9398 25.8465 42.0742 25.981C42.2087 26.1154 42.2759 26.2783 42.2759 26.4697C42.2759 26.6611 42.2087 26.8252 42.0742 26.9619C41.9398 27.0986 41.7769 27.167 41.5854 27.167C41.394 27.167 41.23 27.0986 41.0933 26.9619C40.9565 26.8252 40.8882 26.6611 40.8882 26.4697C40.8882 26.2783 40.9554 26.1154 41.0898 25.981C41.2243 25.8465 41.3895 25.7793 41.5854 25.7793ZM42.1528 29.0537L42.1528 34.085C42.1528 34.4769 42.1813 34.7378 42.2383 34.8677C42.2952 34.9976 42.3796 35.0944 42.4912 35.1582C42.6029 35.222 42.8068 35.2539 43.103 35.2539L43.103 35.5L40.061 35.5L40.061 35.2539C40.3664 35.2539 40.5715 35.2243 40.6763 35.165C40.7811 35.1058 40.8643 35.0078 40.9258 34.8711C40.9873 34.7344 41.0181 34.4723 41.0181 34.085L41.0181 31.6719C41.0181 30.9928 40.9976 30.5531 40.9565 30.3525C40.9246 30.2067 40.8745 30.1053 40.8062 30.0483C40.7378 29.9914 40.6444 29.9629 40.5259 29.9629C40.3983 29.9629 40.2433 29.9971 40.061 30.0654L39.9653 29.8193L41.8521 29.0537L42.1528 29.0537Z" fill-rule="evenodd"/>
</g>
</g>
</svg>
