<?xml version="1.0" encoding="UTF-8" standalone="no"?>
<!DOCTYPE svg PUBLIC "-//W3C//DTD SVG 1.1//EN" "http://www.w3.org/Graphics/SVG/1.1/DTD/svg11.dtd">

<!-- Created with Vectornator (http://vectornator.io/) -->
<svg height="100%" stroke-miterlimit="10" style="fill-rule:nonzero;clip-rule:evenodd;stroke-linecap:round;stroke-linejoin:round;" version="1.1" viewBox="0 0 48 48" width="100%" xml:space="preserve" xmlns="http://www.w3.org/2000/svg" xmlns:vectornator="http://vectornator.io" xmlns:xlink="http://www.w3.org/1999/xlink">
<metadata>
<vectornator:setting key="IsTimeLapseWatermarkDisabled" value="false"/>
<vectornator:setting key="UndoHistoryDisabled" value="true"/>
<vectornator:setting key="VNDimensionsVisible" value="true"/>
<vectornator:setting key="VNSnapToGuides" value="true"/>
<vectornator:setting key="WDCMYKEnabledKey" value="false"/>
<vectornator:setting key="WDDisplayWhiteBackground" value="false"/>
<vectornator:setting key="WDDynamicGuides" value="false"/>
<vectornator:setting key="WDGuidesVisible" value="true"/>
<vectornator:setting key="WDIsolateActiveLayer" value="false"/>
<vectornator:setting key="WDOutlineMode" value="false"/>
<vectornator:setting key="WDRulersVisible" value="true"/>
<vectornator:setting key="WDSnapToEdges" value="false"/>
<vectornator:setting key="WDSnapToGrid" value="false"/>
<vectornator:setting key="WDSnapToPoints" value="false"/>
<vectornator:setting key="WDUnits" value="Pixels"/>
</metadata>
<defs>
<clipPath id="TextBounds">
<rect height="7.29492" width="43.8276" x="2.08618" y="20.3525"/>
</clipPath>
</defs>
<g id="Layer-1" vectornator:layerName="Layer 1">
<path d="M1 1L47 1L47 47L1 47L1 1Z" fill="#609744" fill-rule="evenodd" opacity="1" stroke="#000000" stroke-linecap="round" stroke-linejoin="round" stroke-width="1.47"/>
<g fill="#000000" opacity="1" stroke="none">
<path clip-path="url(#TextBounds)" d="M6.23584 23.2227L8.08154 23.2227L8.08154 22.0859C8.08154 21.8828 8.06885 21.749 8.04346 21.6846C8.02393 21.6357 7.98291 21.5938 7.92041 21.5586C7.83643 21.5117 7.74756 21.4883 7.65381 21.4883L7.51318 21.4883L7.51318 21.3799L9.2124 21.3799L9.2124 21.4883L9.07178 21.4883C8.97803 21.4883 8.88916 21.5107 8.80518 21.5557C8.74268 21.5869 8.7002 21.6343 8.67773 21.6978C8.65527 21.7612 8.64404 21.8906 8.64404 22.0859L8.64404 24.6494C8.64404 24.8506 8.65674 24.9834 8.68213 25.0479C8.70166 25.0967 8.7417 25.1387 8.80225 25.1738C8.88818 25.2207 8.97803 25.2441 9.07178 25.2441L9.2124 25.2441L9.2124 25.3525L7.51318 25.3525L7.51318 25.2441L7.65381 25.2441C7.81592 25.2441 7.93408 25.1963 8.0083 25.1006C8.05713 25.0381 8.08154 24.8877 8.08154 24.6494L8.08154 23.4395L6.23584 23.4395L6.23584 24.6494C6.23584 24.8506 6.24854 24.9834 6.27393 25.0479C6.29346 25.0967 6.33447 25.1387 6.39697 25.1738C6.48096 25.2207 6.56982 25.2441 6.66357 25.2441L6.80713 25.2441L6.80713 25.3525L5.10498 25.3525L5.10498 25.2441L5.24561 25.2441C5.40967 25.2441 5.52881 25.1963 5.60303 25.1006C5.6499 25.0381 5.67334 24.8877 5.67334 24.6494L5.67334 22.0859C5.67334 21.8828 5.66064 21.749 5.63525 21.6846C5.61572 21.6357 5.57568 21.5938 5.51514 21.5586C5.4292 21.5117 5.33936 21.4883 5.24561 21.4883L5.10498 21.4883L5.10498 21.3799L6.80713 21.3799L6.80713 21.4883L6.66357 21.4883C6.56982 21.4883 6.48096 21.5107 6.39697 21.5557C6.33643 21.5869 6.29443 21.6343 6.271 21.6978C6.24756 21.7612 6.23584 21.8906 6.23584 22.0859L6.23584 23.2227Z" fill-rule="evenodd"/>
<path clip-path="url(#TextBounds)" d="M11.4858 23.6914C11.4839 23.791 11.4829 23.8633 11.4829 23.9082C11.4829 24.3008 11.5532 24.5801 11.6938 24.7461C11.8345 24.9121 12.0142 24.9951 12.2329 24.9951C12.4224 24.9951 12.5942 24.9355 12.7485 24.8164C12.8462 24.7402 12.9507 24.585 13.062 24.3506L13.1558 24.415C13.0854 24.7314 12.9341 24.9951 12.7017 25.2061C12.5337 25.3584 12.3237 25.4346 12.0718 25.4346C11.8608 25.4346 11.6802 25.3887 11.5298 25.2969C11.4595 25.252 11.3511 25.1416 11.2046 24.9658C11.1812 24.9834 11.1274 25.0254 11.0435 25.0918C10.9302 25.1836 10.854 25.2402 10.8149 25.2617C10.7231 25.3145 10.6255 25.3564 10.522 25.3877C10.4185 25.4189 10.312 25.4346 10.2026 25.4346C10.019 25.4346 9.86426 25.3696 9.73828 25.2397C9.6123 25.1099 9.54932 24.9512 9.54932 24.7637C9.54932 24.5937 9.5918 24.4492 9.67676 24.3301C9.76172 24.2109 9.92822 24.0879 10.1763 23.9609C10.481 23.8047 10.7505 23.6855 10.9849 23.6035L10.9849 23.334C10.9849 23.123 10.9458 22.9741 10.8677 22.8872C10.7896 22.8003 10.6851 22.7568 10.5542 22.7568C10.4253 22.7568 10.3247 22.7881 10.2524 22.8506C10.1782 22.915 10.1411 22.9863 10.1411 23.0645C10.1411 23.2285 10.1328 23.335 10.1162 23.3838C10.0996 23.4326 10.0737 23.4697 10.0386 23.4951C10.0034 23.5205 9.95947 23.5332 9.90674 23.5332C9.83057 23.5332 9.77197 23.5107 9.73096 23.4658C9.67236 23.4033 9.64307 23.333 9.64307 23.2549C9.64307 23.1533 9.67871 23.0518 9.75 22.9502C9.82129 22.8486 9.93359 22.7627 10.0869 22.6924C10.2402 22.6221 10.4194 22.5869 10.6245 22.5869C10.8667 22.5869 11.0493 22.6216 11.1724 22.6909C11.2954 22.7603 11.3765 22.8457 11.4155 22.9473C11.5093 22.8301 11.6079 22.7451 11.7114 22.6924C11.8501 22.6221 12.0142 22.5869 12.2036 22.5869C12.4849 22.5869 12.7139 22.6816 12.8906 22.8711C13.0674 23.0605 13.1558 23.334 13.1558 23.6914L11.4858 23.6914ZM11.4858 23.501L12.5933 23.501C12.5894 23.2549 12.5371 23.0757 12.4365 22.9634C12.3359 22.8511 12.2075 22.7949 12.0513 22.7949C11.895 22.7949 11.7627 22.856 11.6543 22.978C11.5459 23.1001 11.4897 23.2744 11.4858 23.501ZM11.1226 24.8135C11.0815 24.7256 11.0483 24.6108 11.0229 24.4692C10.9976 24.3276 10.9849 24.1895 10.9849 24.0547L10.9849 23.7939C10.7212 23.876 10.479 24.001 10.2583 24.1689C10.1138 24.2803 10.0415 24.4229 10.0415 24.5967C10.0415 24.751 10.0879 24.877 10.1807 24.9746C10.2734 25.0723 10.3843 25.1211 10.5132 25.1211C10.5894 25.1211 10.6699 25.1011 10.7549 25.061C10.8398 25.021 10.9624 24.9385 11.1226 24.8135Z" fill-rule="evenodd"/>
<path clip-path="url(#TextBounds)" d="M14.3071 23.1582C14.6216 22.7793 14.9214 22.5898 15.2065 22.5898C15.353 22.5898 15.479 22.6265 15.5845 22.6997C15.6899 22.7729 15.7739 22.8936 15.8364 23.0615C15.8794 23.1787 15.9009 23.3584 15.9009 23.6006L15.9009 24.7461C15.9009 24.916 15.9146 25.0312 15.9419 25.0918C15.9634 25.1406 15.998 25.1787 16.0459 25.2061C16.0938 25.2334 16.1821 25.2471 16.311 25.2471L16.311 25.3525L14.9839 25.3525L14.9839 25.2471L15.0396 25.2471C15.1646 25.2471 15.252 25.228 15.3018 25.1899C15.3516 25.1519 15.3862 25.0957 15.4058 25.0215C15.4136 24.9922 15.4175 24.9004 15.4175 24.7461L15.4175 23.6475C15.4175 23.4033 15.3857 23.2261 15.3223 23.1157C15.2588 23.0054 15.1519 22.9502 15.0015 22.9502C14.769 22.9502 14.5376 23.0771 14.3071 23.3311L14.3071 24.7461C14.3071 24.9277 14.3179 25.04 14.3394 25.083C14.3667 25.1396 14.4043 25.1812 14.4521 25.2075C14.5 25.2339 14.5972 25.2471 14.7437 25.2471L14.7437 25.3525L13.4165 25.3525L13.4165 25.2471L13.4751 25.2471C13.6118 25.2471 13.7041 25.2124 13.752 25.1431C13.7998 25.0737 13.8237 24.9414 13.8237 24.7461L13.8237 23.75C13.8237 23.4277 13.8164 23.2314 13.8018 23.1611C13.7871 23.0908 13.7646 23.043 13.7344 23.0176C13.7041 22.9922 13.6636 22.9795 13.6128 22.9795C13.5581 22.9795 13.4927 22.9941 13.4165 23.0234L13.3726 22.918L14.1812 22.5898L14.3071 22.5898L14.3071 23.1582Z" fill-rule="evenodd"/>
<path clip-path="url(#TextBounds)" d="M17.2427 24.374C17.0786 24.2939 16.9526 24.1821 16.8647 24.0386C16.7769 23.895 16.7329 23.7363 16.7329 23.5625C16.7329 23.2969 16.833 23.0684 17.0332 22.877C17.2334 22.6855 17.4897 22.5898 17.8022 22.5898C18.0581 22.5898 18.2798 22.6523 18.4673 22.7773L19.0356 22.7773C19.1196 22.7773 19.1685 22.7798 19.1821 22.7847C19.1958 22.7896 19.2056 22.7979 19.2114 22.8096C19.2231 22.8271 19.229 22.8584 19.229 22.9033C19.229 22.9541 19.2241 22.9893 19.2144 23.0088C19.2085 23.0186 19.1982 23.0264 19.1836 23.0322C19.1689 23.0381 19.1196 23.041 19.0356 23.041L18.687 23.041C18.7964 23.1816 18.8511 23.3613 18.8511 23.5801C18.8511 23.8301 18.7554 24.0439 18.564 24.2217C18.3726 24.3994 18.1157 24.4883 17.7935 24.4883C17.6606 24.4883 17.5249 24.4688 17.3862 24.4297C17.3003 24.5039 17.2422 24.5688 17.2119 24.6245C17.1816 24.6802 17.1665 24.7275 17.1665 24.7666C17.1665 24.7998 17.1826 24.832 17.2148 24.8633C17.2471 24.8945 17.3101 24.917 17.4038 24.9307C17.4585 24.9385 17.5952 24.9453 17.814 24.9512C18.2163 24.9609 18.4771 24.9746 18.5962 24.9922C18.7778 25.0176 18.9229 25.085 19.0312 25.1943C19.1396 25.3037 19.1938 25.4385 19.1938 25.5986C19.1938 25.8193 19.0903 26.0264 18.8833 26.2197C18.5786 26.5049 18.1812 26.6475 17.6909 26.6475C17.314 26.6475 16.9956 26.5625 16.7358 26.3926C16.5894 26.2949 16.5161 26.1934 16.5161 26.0879C16.5161 26.041 16.5269 25.9941 16.5483 25.9473C16.5815 25.875 16.6499 25.7744 16.7534 25.6455C16.7671 25.6279 16.8667 25.5225 17.0522 25.3291C16.9507 25.2686 16.8789 25.2144 16.8369 25.1665C16.7949 25.1187 16.7739 25.0645 16.7739 25.0039C16.7739 24.9355 16.8018 24.8555 16.8574 24.7637C16.9131 24.6719 17.0415 24.542 17.2427 24.374ZM17.7524 22.7305C17.6079 22.7305 17.4868 22.7881 17.3892 22.9033C17.2915 23.0186 17.2427 23.1953 17.2427 23.4336C17.2427 23.7422 17.3091 23.9814 17.4419 24.1514C17.5435 24.2803 17.6724 24.3447 17.8286 24.3447C17.9771 24.3447 18.0991 24.2891 18.1948 24.1777C18.2905 24.0664 18.3384 23.8916 18.3384 23.6533C18.3384 23.3428 18.271 23.0996 18.1362 22.9238C18.0366 22.7949 17.9087 22.7305 17.7524 22.7305ZM17.2134 25.3525C17.1216 25.4521 17.0522 25.5449 17.0054 25.6309C16.9585 25.7168 16.9351 25.7959 16.9351 25.8682C16.9351 25.9619 16.9917 26.0439 17.105 26.1143C17.3003 26.2354 17.5825 26.2959 17.9517 26.2959C18.3032 26.2959 18.5625 26.2339 18.7295 26.1099C18.8965 25.9858 18.98 25.8535 18.98 25.7129C18.98 25.6113 18.9302 25.5391 18.8306 25.4961C18.729 25.4531 18.5278 25.4277 18.2271 25.4199C17.7876 25.4082 17.4497 25.3857 17.2134 25.3525Z" fill-rule="evenodd"/>
<path clip-path="url(#TextBounds)" d="M19.9761 23.6797C19.9741 24.0781 20.0708 24.3906 20.2661 24.6172C20.4614 24.8438 20.6909 24.957 20.9546 24.957C21.1304 24.957 21.2832 24.9087 21.4131 24.812C21.543 24.7153 21.6519 24.5498 21.7397 24.3154L21.8306 24.374C21.7896 24.6416 21.6704 24.8853 21.4731 25.105C21.2759 25.3247 21.0288 25.4346 20.7319 25.4346C20.4097 25.4346 20.1338 25.3091 19.9043 25.0581C19.6748 24.8071 19.5601 24.4697 19.5601 24.0459C19.5601 23.5869 19.6777 23.229 19.9131 22.9722C20.1484 22.7153 20.4438 22.5869 20.7993 22.5869C21.1001 22.5869 21.3472 22.686 21.5405 22.8843C21.7339 23.0825 21.8306 23.3477 21.8306 23.6797L19.9761 23.6797ZM19.9761 23.5098L21.2183 23.5098C21.2085 23.3379 21.188 23.2168 21.1567 23.1465C21.1079 23.0371 21.0352 22.9512 20.9385 22.8887C20.8418 22.8262 20.7407 22.7949 20.6353 22.7949C20.4731 22.7949 20.3281 22.8579 20.2002 22.9839C20.0723 23.1099 19.9976 23.2852 19.9761 23.5098Z" fill-rule="evenodd"/>
<path clip-path="url(#TextBounds)" d="M22.9819 21.1865L22.9819 23.8584L23.6646 23.2344C23.8091 23.1016 23.8931 23.0176 23.9165 22.9824C23.9321 22.959 23.9399 22.9355 23.9399 22.9121C23.9399 22.873 23.9238 22.8394 23.8916 22.811C23.8594 22.7827 23.8062 22.7666 23.7319 22.7627L23.7319 22.6689L24.8979 22.6689L24.8979 22.7627C24.7378 22.7666 24.6045 22.791 24.498 22.8359C24.3916 22.8809 24.2749 22.9609 24.1479 23.0762L23.4595 23.7119L24.1479 24.582C24.3394 24.8223 24.4683 24.9746 24.5347 25.0391C24.6284 25.1309 24.7104 25.1904 24.7808 25.2178C24.8296 25.2373 24.9146 25.2471 25.0356 25.2471L25.0356 25.3525L23.7319 25.3525L23.7319 25.2471C23.8062 25.2451 23.8564 25.2339 23.8828 25.2134C23.9092 25.1929 23.9224 25.1641 23.9224 25.127C23.9224 25.082 23.8833 25.0098 23.8052 24.9102L22.9819 23.8584L22.9819 24.749C22.9819 24.9229 22.9941 25.0371 23.0186 25.0918C23.043 25.1465 23.0776 25.1855 23.1226 25.209C23.1675 25.2324 23.2651 25.2451 23.4155 25.2471L23.4155 25.3525L22.0503 25.3525L22.0503 25.2471C22.187 25.2471 22.2896 25.2305 22.3579 25.1973C22.3989 25.1758 22.4302 25.1426 22.4517 25.0977C22.481 25.0332 22.4956 24.9219 22.4956 24.7637L22.4956 22.3203C22.4956 22.0098 22.4888 21.8198 22.4751 21.7505C22.4614 21.6812 22.439 21.6333 22.4077 21.6069C22.3765 21.5806 22.3354 21.5674 22.2847 21.5674C22.2437 21.5674 22.1821 21.584 22.1001 21.6172L22.0503 21.5146L22.8472 21.1865L22.9819 21.1865Z" fill-rule="evenodd"/>
<path clip-path="url(#TextBounds)" d="M27.3618 22.915L27.7515 22.4844L27.8862 22.6104L27.4907 23.0557C27.6978 23.3193 27.8013 23.624 27.8013 23.9697C27.8013 24.2002 27.7446 24.439 27.6313 24.686C27.5181 24.9331 27.3613 25.1196 27.1611 25.2456C26.9609 25.3716 26.7358 25.4346 26.4858 25.4346C26.3237 25.4346 26.1802 25.4097 26.0552 25.3599C25.9302 25.3101 25.7944 25.2236 25.6479 25.1006L25.2524 25.5488L25.1147 25.4229L25.5278 24.957C25.4302 24.8359 25.354 24.6875 25.2993 24.5117C25.2446 24.3359 25.2173 24.1719 25.2173 24.0195C25.2173 23.7871 25.2764 23.5527 25.3945 23.3164C25.5127 23.0801 25.6714 22.8999 25.8706 22.7759C26.0698 22.6519 26.2886 22.5898 26.5269 22.5898C26.687 22.5898 26.832 22.6152 26.9619 22.666C27.0918 22.7168 27.2251 22.7998 27.3618 22.915ZM27.063 23.2461C26.9634 23.0723 26.8652 22.9517 26.7686 22.8843C26.6719 22.8169 26.5591 22.7832 26.4302 22.7832C26.2388 22.7832 26.0796 22.8613 25.9526 23.0176C25.8257 23.1738 25.7622 23.4326 25.7622 23.7939C25.7622 24.0361 25.8003 24.292 25.8765 24.5615L27.063 23.2461ZM27.145 23.4365L25.9644 24.7549C26.064 24.9346 26.1616 25.0581 26.2573 25.1255C26.353 25.1929 26.4683 25.2266 26.603 25.2266C26.7964 25.2266 26.9541 25.1484 27.0762 24.9922C27.1982 24.8359 27.2593 24.5635 27.2593 24.1748C27.2593 23.9385 27.2212 23.6924 27.145 23.4365Z" fill-rule="evenodd"/>
<path clip-path="url(#TextBounds)" d="M28.8677 21.1836C28.9517 21.1836 29.0229 21.2129 29.0815 21.2715C29.1401 21.3301 29.1694 21.4014 29.1694 21.4854C29.1694 21.5674 29.1401 21.6377 29.0815 21.6963C29.0229 21.7549 28.9517 21.7842 28.8677 21.7842C28.7856 21.7842 28.7153 21.7549 28.6567 21.6963C28.5981 21.6377 28.5688 21.5674 28.5688 21.4854C28.5688 21.4014 28.5981 21.3301 28.6567 21.2715C28.7153 21.2129 28.7856 21.1836 28.8677 21.1836ZM29.1196 22.5898L29.1196 25.291C29.1196 25.75 29.022 26.0908 28.8267 26.3135C28.6313 26.5361 28.3774 26.6475 28.0649 26.6475C27.8872 26.6475 27.7554 26.6152 27.6694 26.5508C27.5835 26.4863 27.5405 26.4199 27.5405 26.3516C27.5405 26.2832 27.5645 26.2246 27.6123 26.1758C27.6602 26.127 27.7163 26.1025 27.7808 26.1025C27.8315 26.1025 27.8833 26.1152 27.936 26.1406C27.9692 26.1543 28.0332 26.2036 28.1279 26.2886C28.2227 26.3735 28.3022 26.416 28.3667 26.416C28.4136 26.416 28.4595 26.3979 28.5044 26.3618C28.5493 26.3257 28.5825 26.2651 28.604 26.1802C28.6255 26.0952 28.6362 25.9111 28.6362 25.6279L28.6362 23.7178C28.6362 23.4229 28.6274 23.2334 28.6099 23.1494C28.5962 23.085 28.5747 23.0405 28.5454 23.0161C28.5161 22.9917 28.4761 22.9795 28.4253 22.9795C28.3706 22.9795 28.3042 22.9941 28.2261 23.0234L28.1851 22.918L28.9937 22.5898L29.1196 22.5898Z" fill-rule="evenodd"/>
<path clip-path="url(#TextBounds)" d="M30.3062 23.6797C30.3042 24.0781 30.4009 24.3906 30.5962 24.6172C30.7915 24.8438 31.021 24.957 31.2847 24.957C31.4604 24.957 31.6133 24.9087 31.7432 24.812C31.873 24.7153 31.9819 24.5498 32.0698 24.3154L32.1606 24.374C32.1196 24.6416 32.0005 24.8853 31.8032 25.105C31.606 25.3247 31.3589 25.4346 31.062 25.4346C30.7397 25.4346 30.4639 25.3091 30.2344 25.0581C30.0049 24.8071 29.8901 24.4697 29.8901 24.0459C29.8901 23.5869 30.0078 23.229 30.2432 22.9722C30.4785 22.7153 30.7739 22.5869 31.1294 22.5869C31.4302 22.5869 31.6772 22.686 31.8706 22.8843C32.064 23.0825 32.1606 23.3477 32.1606 23.6797L30.3062 23.6797ZM30.3062 23.5098L31.5483 23.5098C31.5386 23.3379 31.5181 23.2168 31.4868 23.1465C31.438 23.0371 31.3652 22.9512 31.2686 22.8887C31.1719 22.8262 31.0708 22.7949 30.9653 22.7949C30.8032 22.7949 30.6582 22.8579 30.5303 22.9839C30.4023 23.1099 30.3276 23.2852 30.3062 23.5098Z" fill-rule="evenodd"/>
<path clip-path="url(#TextBounds)" d="M33.4409 21.1865L33.4409 24.7461C33.4409 24.9141 33.4531 25.0254 33.4775 25.0801C33.502 25.1348 33.5396 25.1763 33.5903 25.2046C33.6411 25.2329 33.7358 25.2471 33.8745 25.2471L33.8745 25.3525L32.5591 25.3525L32.5591 25.2471C32.6821 25.2471 32.7661 25.2344 32.811 25.209C32.856 25.1836 32.8911 25.1416 32.9165 25.083C32.9419 25.0244 32.9546 24.9121 32.9546 24.7461L32.9546 22.3086C32.9546 22.0059 32.9478 21.8198 32.9341 21.7505C32.9204 21.6812 32.8984 21.6338 32.8682 21.6084C32.8379 21.583 32.7993 21.5703 32.7524 21.5703C32.7017 21.5703 32.6372 21.5859 32.5591 21.6172L32.5093 21.5146L33.3091 21.1865L33.4409 21.1865Z" fill-rule="evenodd"/>
<path clip-path="url(#TextBounds)" d="M36.5376 22.6689L36.5376 24.2949C36.5376 24.6055 36.5449 24.7954 36.5596 24.8647C36.5742 24.9341 36.5977 24.9824 36.6299 25.0098C36.6621 25.0371 36.6997 25.0508 36.7427 25.0508C36.8032 25.0508 36.8716 25.0342 36.9478 25.001L36.9888 25.1035L36.186 25.4346L36.0542 25.4346L36.0542 24.8662C35.8237 25.1162 35.6479 25.2734 35.5269 25.3379C35.4058 25.4023 35.2778 25.4346 35.1431 25.4346C34.9927 25.4346 34.8623 25.3911 34.752 25.3042C34.6416 25.2173 34.5649 25.1055 34.522 24.9688C34.479 24.832 34.4575 24.6387 34.4575 24.3887L34.4575 23.1904C34.4575 23.0635 34.4438 22.9756 34.4165 22.9268C34.3892 22.8779 34.3486 22.8403 34.2949 22.814C34.2412 22.7876 34.144 22.7754 34.0034 22.7773L34.0034 22.6689L34.9438 22.6689L34.9438 24.4648C34.9438 24.7148 34.9873 24.8789 35.0742 24.957C35.1611 25.0352 35.2661 25.0742 35.3892 25.0742C35.4731 25.0742 35.5684 25.0479 35.6748 24.9951C35.7813 24.9424 35.9077 24.8418 36.0542 24.6934L36.0542 23.1729C36.0542 23.0205 36.0264 22.9175 35.9707 22.8638C35.915 22.8101 35.7993 22.7813 35.6235 22.7773L35.6235 22.6689L36.5376 22.6689Z" fill-rule="evenodd"/>
<path clip-path="url(#TextBounds)" d="M37.9673 23.1582C38.2817 22.7793 38.5815 22.5898 38.8667 22.5898C39.0132 22.5898 39.1392 22.6265 39.2446 22.6997C39.3501 22.7729 39.4341 22.8936 39.4966 23.0615C39.5396 23.1787 39.561 23.3584 39.561 23.6006L39.561 24.7461C39.561 24.916 39.5747 25.0312 39.6021 25.0918C39.6235 25.1406 39.6582 25.1787 39.7061 25.2061C39.7539 25.2334 39.8423 25.2471 39.9712 25.2471L39.9712 25.3525L38.644 25.3525L38.644 25.2471L38.6997 25.2471C38.8247 25.2471 38.9121 25.228 38.9619 25.1899C39.0117 25.1519 39.0464 25.0957 39.0659 25.0215C39.0737 24.9922 39.0776 24.9004 39.0776 24.7461L39.0776 23.6475C39.0776 23.4033 39.0459 23.2261 38.9824 23.1157C38.9189 23.0054 38.812 22.9502 38.6616 22.9502C38.4292 22.9502 38.1978 23.0771 37.9673 23.3311L37.9673 24.7461C37.9673 24.9277 37.978 25.04 37.9995 25.083C38.0269 25.1396 38.0645 25.1812 38.1123 25.2075C38.1602 25.2339 38.2573 25.2471 38.4038 25.2471L38.4038 25.3525L37.0767 25.3525L37.0767 25.2471L37.1353 25.2471C37.272 25.2471 37.3643 25.2124 37.4121 25.1431C37.46 25.0737 37.4839 24.9414 37.4839 24.7461L37.4839 23.75C37.4839 23.4277 37.4766 23.2314 37.4619 23.1611C37.4473 23.0908 37.4248 23.043 37.3945 23.0176C37.3643 22.9922 37.3237 22.9795 37.2729 22.9795C37.2183 22.9795 37.1528 22.9941 37.0767 23.0234L37.0327 22.918L37.8413 22.5898L37.9673 22.5898L37.9673 23.1582Z" fill-rule="evenodd"/>
<path clip-path="url(#TextBounds)" d="M42.0806 25.0508C41.9497 25.1875 41.8218 25.2856 41.6968 25.3452C41.5718 25.4048 41.437 25.4346 41.2925 25.4346C40.9995 25.4346 40.7437 25.312 40.5249 25.0669C40.3062 24.8218 40.1968 24.5068 40.1968 24.1221C40.1968 23.7373 40.3179 23.3853 40.5601 23.0659C40.8022 22.7466 41.1138 22.5869 41.4946 22.5869C41.731 22.5869 41.9263 22.6621 42.0806 22.8125L42.0806 22.3174C42.0806 22.0107 42.0732 21.8223 42.0586 21.752C42.0439 21.6816 42.021 21.6338 41.9897 21.6084C41.9585 21.583 41.9194 21.5703 41.8726 21.5703C41.8218 21.5703 41.7544 21.5859 41.6704 21.6172L41.6323 21.5146L42.4321 21.1865L42.564 21.1865L42.564 24.2891C42.564 24.6035 42.5713 24.7954 42.5859 24.8647C42.6006 24.9341 42.624 24.9824 42.6562 25.0098C42.6885 25.0371 42.7261 25.0508 42.769 25.0508C42.8218 25.0508 42.8921 25.0342 42.98 25.001L43.0122 25.1035L42.2153 25.4346L42.0806 25.4346L42.0806 25.0508ZM42.0806 24.8457L42.0806 23.4629C42.0688 23.3301 42.0337 23.209 41.9751 23.0996C41.9165 22.9902 41.8389 22.9077 41.7422 22.8521C41.6455 22.7964 41.5513 22.7686 41.4595 22.7686C41.2876 22.7686 41.1343 22.8457 40.9995 23C40.8218 23.2031 40.7329 23.5 40.7329 23.8906C40.7329 24.2852 40.8188 24.5874 40.9907 24.7974C41.1626 25.0073 41.354 25.1123 41.5649 25.1123C41.7427 25.1123 41.9146 25.0234 42.0806 24.8457Z" fill-rule="evenodd"/>
</g>
</g>
</svg>
