<?xml version="1.0" encoding="UTF-8" standalone="no"?>
<!DOCTYPE svg PUBLIC "-//W3C//DTD SVG 1.1//EN" "http://www.w3.org/Graphics/SVG/1.1/DTD/svg11.dtd"
[
<!ATTLIST g
  xmlns:vectornator CDATA #FIXED "http://vectornator.io"
  vectornator:layerName CDATA #IMPLIED >
<!ATTLIST g
  xmlns:vectornator CDATA #FIXED "http://vectornator.io"
  vectornator:mask CDATA #IMPLIED >
<!ATTLIST text
  xmlns:vectornator CDATA #FIXED "http://vectornator.io"
  vectornator:width CDATA #IMPLIED >
<!ATTLIST text
  xmlns:vectornator CDATA #FIXED "http://vectornator.io"
  vectornator:text CDATA #IMPLIED >

<!ATTLIST path
  xmlns:vectornator CDATA #FIXED "http://vectornator.io"
  vectornator:blendMode CDATA #IMPLIED >
<!ATTLIST path
  xmlns:vectornator CDATA #FIXED "http://vectornator.io"
  vectornator:shadowColor CDATA #IMPLIED >
<!ATTLIST path
  xmlns:vectornator CDATA #FIXED "http://vectornator.io"
  vectornator:shadowOpacity CDATA #IMPLIED >
<!ATTLIST path
  xmlns:vectornator CDATA #FIXED "http://vectornator.io"
  vectornator:shadowRadius CDATA #IMPLIED >
<!ATTLIST path
  xmlns:vectornator CDATA #FIXED "http://vectornator.io"
  vectornator:shadowOffset CDATA #IMPLIED >
<!ATTLIST path
  xmlns:vectornator CDATA #FIXED "http://vectornator.io"
  vectornator:shadowAngle CDATA #IMPLIED >

<!ATTLIST image
  xmlns:vectornator CDATA #FIXED "http://vectornator.io"
  vectornator:blendMode CDATA #IMPLIED >
<!ATTLIST image
  xmlns:vectornator CDATA #FIXED "http://vectornator.io"
  vectornator:shadowColor CDATA #IMPLIED >
<!ATTLIST image
  xmlns:vectornator CDATA #FIXED "http://vectornator.io"
  vectornator:shadowOpacity CDATA #IMPLIED >
<!ATTLIST image
  xmlns:vectornator CDATA #FIXED "http://vectornator.io"
  vectornator:shadowRadius CDATA #IMPLIED >
<!ATTLIST image
  xmlns:vectornator CDATA #FIXED "http://vectornator.io"
  vectornator:shadowOffset CDATA #IMPLIED >
<!ATTLIST image
  xmlns:vectornator CDATA #FIXED "http://vectornator.io"
  vectornator:shadowAngle CDATA #IMPLIED >

<!ATTLIST g
  xmlns:vectornator CDATA #FIXED "http://vectornator.io"
  vectornator:blendMode CDATA #IMPLIED >
<!ATTLIST g
  xmlns:vectornator CDATA #FIXED "http://vectornator.io"
  vectornator:shadowColor CDATA #IMPLIED >
<!ATTLIST g
  xmlns:vectornator CDATA #FIXED "http://vectornator.io"
  vectornator:shadowOpacity CDATA #IMPLIED >
<!ATTLIST g
  xmlns:vectornator CDATA #FIXED "http://vectornator.io"
  vectornator:shadowRadius CDATA #IMPLIED >
<!ATTLIST g
  xmlns:vectornator CDATA #FIXED "http://vectornator.io"
  vectornator:shadowOffset CDATA #IMPLIED >
<!ATTLIST g
  xmlns:vectornator CDATA #FIXED "http://vectornator.io"
  vectornator:shadowAngle CDATA #IMPLIED >

<!ENTITY % SVG.filter.extra.content  "| feDropShadow" >
<!ELEMENT feDropShadow EMPTY>
<!ATTLIST feDropShadow
  xmlns:svg CDATA #FIXED "http://www.w3.org/Graphics/SVG/1.1/DTD/svg11.dtd"
  dx CDATA #IMPLIED>
<!ATTLIST feDropShadow
  xmlns:svg CDATA #FIXED "http://www.w3.org/Graphics/SVG/1.1/DTD/svg11.dtd"
  dy CDATA #IMPLIED>
<!ATTLIST feDropShadow
  xmlns:svg CDATA #FIXED "http://www.w3.org/Graphics/SVG/1.1/DTD/svg11.dtd"
  stdDeviation CDATA #IMPLIED>
<!ATTLIST feDropShadow
  xmlns:svg CDATA #FIXED "http://www.w3.org/Graphics/SVG/1.1/DTD/svg11.dtd"
  flood-opacity CDATA #IMPLIED>
<!ATTLIST feDropShadow
  xmlns:svg CDATA #FIXED "http://www.w3.org/Graphics/SVG/1.1/DTD/svg11.dtd"
  in CDATA #IMPLIED>
<!ATTLIST feDropShadow
  xmlns:svg CDATA #FIXED "http://www.w3.org/Graphics/SVG/1.1/DTD/svg11.dtd"
  result CDATA #IMPLIED>
<!ATTLIST feDropShadow
  xmlns:svg CDATA #FIXED "http://www.w3.org/Graphics/SVG/1.1/DTD/svg11.dtd"
  flood-color CDATA #IMPLIED>
]
>
<!-- Created with Vectornator (http://vectornator.io/) -->
<svg height="100%" stroke-miterlimit="10" style="fill-rule:nonzero;clip-rule:evenodd;stroke-linecap:round;stroke-linejoin:round;" version="1.1" viewBox="0 0 50 50" width="100%" xml:space="preserve" xmlns="http://www.w3.org/2000/svg" xmlns:vectornator="http://vectornator.io" xmlns:xlink="http://www.w3.org/1999/xlink">
<defs>
<linearGradient gradientTransform="matrix(1.01328 0 0 1.01328 -0.226217 -0.300392)" gradientUnits="userSpaceOnUse" id="LinearGradient" x1="1.37825" x2="48.449" y1="24.8878" y2="24.8878">
<stop offset="0" stop-color="#609744"/>
</linearGradient>
<linearGradient gradientTransform="matrix(0.641915 0.449473 -0.763183 1.08994 21.5174 -14.3801)" gradientUnits="userSpaceOnUse" id="LinearGradient_2" x1="26.4536" x2="29.5432" y1="10.8853" y2="10.8853">
<stop offset="0.186614" stop-color="#c72218"/>
</linearGradient>
</defs>
<g id="Layer-1" vectornator:layerName="Layer 1">
<path d="M4.08746 0.91804L45.9493 0.91804C47.5604 0.91804 48.8664 2.22408 48.8664 3.83516L48.8664 46.0009C48.8664 47.612 47.5604 48.918 45.9493 48.918L4.08746 48.918C2.47638 48.918 1.17034 47.612 1.17034 46.0009L1.17034 3.83516C1.17034 2.22408 2.47638 0.91804 4.08746 0.91804Z" fill="url(#LinearGradient)" fill-rule="evenodd" opacity="1" stroke="#000000" stroke-linecap="round" stroke-linejoin="round" stroke-width="1.465"/>
</g>
<g id="Layer-2" vectornator:layerName="Layer 2">
<path d="M12.8125 13.0312C12.5796 12.9457 12.3367 12.9501 12.0938 13.0625C11.457 13.3572 10.4726 13.9626 9.375 14.8438C8.95751 15.1789 8.88357 15.77 9.21875 16.1875C9.55393 16.605 10.1763 16.6789 10.5938 16.3438C11.1567 15.8918 11.7171 15.5022 12.25 15.1875C12.5635 15.0023 12.7919 14.8967 12.9062 14.8438C13.3921 14.6189 13.5999 14.0484 13.375 13.5625C13.2626 13.3196 13.0454 13.1168 12.8125 13.0312ZM7.75 16.75C7.50322 16.7755 7.26257 16.886 7.09375 17.0938C7.06009 17.1353 7.0648 17.1144 7.03125 17.1562C6.36995 17.9832 5.80922 18.8891 5.375 19.8438C5.15333 20.3311 5.3564 20.9033 5.84375 21.125C6.3311 21.3467 6.90333 21.1436 7.125 20.6562C7.49042 19.8529 7.96691 19.0807 8.53125 18.375C8.56005 18.3391 8.56479 18.3482 8.59375 18.3125C8.9314 17.897 8.853 17.2751 8.4375 16.9375C8.22975 16.7687 7.99678 16.7245 7.75 16.75ZM5.53125 22.2188C5.00095 22.1451 4.51114 22.5009 4.4375 23.0312C4.29259 24.0749 4.29704 25.1565 4.4375 26.2812C4.50384 26.8125 4.96873 27.1913 5.5 27.125C6.03127 27.0587 6.4101 26.5938 6.34375 26.0625C6.22426 25.1056 6.22225 24.1875 6.34375 23.3125C6.41739 22.7822 6.06155 22.2924 5.53125 22.2188ZM23.4375 23.7812C22.3359 23.8947 21.2545 24.1511 20.25 24.5312C19.7493 24.7207 19.498 25.2805 19.6875 25.7812C19.877 26.282 20.4368 26.5332 20.9375 26.3438C21.7868 26.0224 22.6921 25.7836 23.625 25.6875C24.1576 25.6327 24.5548 25.1576 24.5 24.625C24.4452 24.0924 23.9701 23.7264 23.4375 23.7812ZM18.0938 25.9062C17.8492 25.8647 17.5933 25.9076 17.375 26.0625C16.922 26.384 16.5054 26.7156 16.0938 27.0938C15.6916 27.4643 15.305 27.8498 14.9688 28.25C14.6244 28.6599 14.6838 29.2806 15.0938 29.625C15.5037 29.9694 16.1244 29.9099 16.4688 29.5C16.7521 29.1628 17.066 28.8448 17.4062 28.5312C17.7576 28.2085 18.1142 27.8988 18.5 27.625C18.9366 27.3151 19.0599 26.7178 18.75 26.2812C18.5951 26.063 18.3383 25.9478 18.0938 25.9062ZM5.75 28.1562C5.2436 28.33 4.98246 28.8999 5.15625 29.4062C5.25348 29.6896 5.35413 29.9629 5.46875 30.25C5.67421 30.7635 5.79519 31.3535 5.8125 32.0312C5.82617 32.5665 6.27728 32.9824 6.8125 32.9688C7.34772 32.9551 7.76367 32.504 7.75 31.9688C7.72715 31.0741 7.57833 30.2738 7.28125 29.5312C7.17863 29.2742 7.08683 29.003 7 28.75C6.82621 28.2436 6.2564 27.9825 5.75 28.1562ZM14.4688 30.5312C13.955 30.3807 13.4318 30.6737 13.2812 31.1875C13.1348 31.6873 13.0973 32.1562 13.1875 32.5625C13.2955 33.049 13.7234 33.851 14.3438 34.75C14.6478 35.1907 15.2468 35.3041 15.6875 35C16.1282 34.6959 16.2416 34.0969 15.9375 33.6562C15.4534 32.9547 15.0998 32.3241 15.0625 32.1562C15.0538 32.1173 15.0626 31.9629 15.125 31.75C15.2756 31.2362 14.9825 30.6818 14.4688 30.5312ZM6.65625 34.0938C6.13047 33.9927 5.60101 34.318 5.5 34.8438C5.44579 35.1259 4.95393 37.5089 4.90625 37.75C4.80236 38.2752 5.13103 38.7711 5.65625 38.875C6.18147 38.9789 6.67736 38.6502 6.78125 38.125C6.82601 37.8987 7.34885 35.5175 7.40625 35.2188C7.50726 34.693 7.18203 34.1948 6.65625 34.0938ZM17.0625 35.5625C16.8144 35.5615 16.565 35.6552 16.375 35.8438C15.9949 36.2208 15.9979 36.8387 16.375 37.2188C17.253 38.1038 18.1436 38.7914 19.0312 39.2188C19.5136 39.451 20.1115 39.2324 20.3438 38.75C20.576 38.2676 20.3574 37.701 19.875 37.4688C19.2118 37.1494 18.485 36.5846 17.75 35.8438C17.5615 35.6537 17.3106 35.5635 17.0625 35.5625ZM31.0312 35.8125C30.4406 35.9235 29.6917 36.0698 28.0938 36.4062C27.5698 36.5165 27.2334 37.0386 27.3438 37.5625C27.454 38.0864 27.9761 38.4228 28.5 38.3125C30.0819 37.9795 30.8352 37.826 31.4062 37.7188C31.9324 37.6199 32.2864 37.1199 32.1875 36.5938C32.0886 36.0676 31.5574 35.7136 31.0312 35.8125ZM34.5938 36.0312C34.0904 35.8487 33.5263 36.1217 33.3438 36.625C33.1612 37.1283 33.4342 37.6925 33.9375 37.875C34.3167 38.0125 34.641 38.1721 35 38.4375C35.3262 38.6864 35.6007 39.0093 35.8125 39.3438C36.099 39.796 36.704 39.9115 37.1562 39.625C37.6085 39.3385 37.7552 38.7648 37.4688 38.3125C37.1323 37.7813 36.7056 37.3013 36.1875 36.9062C35.6688 36.5226 35.1514 36.2335 34.5938 36.0312ZM25.1562 37.0312C23.916 37.2864 22.9707 37.4674 22.25 37.5938C21.7226 37.6862 21.3451 38.1914 21.4375 38.7188C21.5299 39.2461 22.0351 39.5924 22.5625 39.5C23.3061 39.3696 24.2739 39.1961 25.5312 38.9375C26.0557 38.8296 26.4204 38.3057 26.3125 37.7812C26.2046 37.2568 25.6807 36.9234 25.1562 37.0312ZM6.15625 39.9688C5.91934 39.8951 5.6432 39.9067 5.40625 40.0312C4.93235 40.2804 4.75087 40.8698 5 41.3438C5.52952 42.351 6.2627 43.2331 7.15625 43.9688C7.56959 44.309 8.15971 44.2571 8.5 43.8438C8.84029 43.4304 8.78834 42.809 8.375 42.4688C7.67402 41.8917 7.12352 41.2075 6.71875 40.4375C6.59419 40.2006 6.39316 40.0424 6.15625 39.9688ZM36.6875 40.625C36.4405 40.6016 36.1751 40.6732 35.9688 40.8438C35.5041 41.2278 34.6874 41.6479 33.5938 42.0625C33.0931 42.2523 32.8415 42.8119 33.0312 43.3125C33.221 43.8131 33.7806 44.0648 34.2812 43.875C35.5576 43.3911 36.5527 42.8944 37.2188 42.3438C37.6314 42.0026 37.6849 41.3814 37.3438 40.9688C37.1732 40.7624 36.9345 40.6484 36.6875 40.625ZM30.8125 42.9375C30.0729 43.1409 28.9189 43.4398 29.0312 43.4062C28.6906 43.508 28.3242 43.5966 27.9375 43.6875C27.4163 43.81 27.0963 44.3226 27.2188 44.8438C27.3412 45.3649 27.8538 45.685 28.375 45.5625C28.7979 45.4631 29.2148 45.3632 29.5938 45.25C29.4214 45.3015 30.525 45.0291 31.3125 44.8125C31.8287 44.6705 32.142 44.1412 32 43.625C31.858 43.1088 31.3287 42.7955 30.8125 42.9375ZM10 43.8438C9.77039 43.9377 9.57223 44.1281 9.46875 44.375C9.26179 44.8688 9.47497 45.418 9.96875 45.625C10.0381 45.6539 10.0558 45.6592 10.125 45.6875C11.0974 46.0822 12.0972 46.3602 13.0625 46.5312C13.5897 46.6247 14.0941 46.2772 14.1875 45.75C14.2809 45.2228 13.9334 44.7184 13.4062 44.625C12.5691 44.4766 11.6835 44.2471 10.8438 43.9062C10.7846 43.8821 10.7781 43.8685 10.7188 43.8438C10.4719 43.7403 10.2296 43.7498 10 43.8438ZM25.0625 44.2188C24.1418 44.3467 23.1526 44.4464 22.125 44.5312C21.5914 44.5753 21.2059 45.0289 21.25 45.5625C21.2941 46.0961 21.7477 46.5128 22.2812 46.4688C23.3431 46.3811 24.3855 46.2581 25.3438 46.125C25.874 46.0513 26.2299 45.5615 26.1562 45.0312C26.0826 44.501 25.5928 44.1451 25.0625 44.2188ZM19.1875 44.7188C18.1661 44.7618 17.159 44.7749 16.2188 44.7812C15.6834 44.7848 15.2464 45.2146 15.25 45.75C15.2536 46.2854 15.6834 46.7223 16.2188 46.7188C17.1812 46.7123 18.205 46.7003 19.25 46.6562C19.7849 46.6337 20.2101 46.1599 20.1875 45.625C20.1649 45.0901 19.7224 44.6962 19.1875 44.7188Z" fill="#cc0000" fill-rule="evenodd" opacity="1" stroke="#000000" stroke-linecap="round" stroke-linejoin="round" stroke-width="1"/>
</g>
<g id="Layer-3" vectornator:layerName="Layer 3">
<path d="M14.2478 10.9637C14.2478 9.02252 15.8172 7.44889 17.7532 7.44889C19.6892 7.44889 21.2586 9.02252 21.2586 10.9637C21.2586 12.9049 19.6892 14.4785 17.7532 14.4785C15.8172 14.4785 14.2478 12.9049 14.2478 10.9637Z" fill="#cc0000" fill-rule="evenodd" opacity="1" stroke="#000000" stroke-linecap="round" stroke-linejoin="round" stroke-width="1"/>
</g>
<g id="Layer-4" vectornator:layerName="Layer 4">
<path d="M24.8522 23.8406L25.4852 16.6051L31.4349 20.771L24.8522 23.8406Z" fill="#f8d89f" fill-rule="evenodd" opacity="1" stroke="#000000" stroke-linecap="round" stroke-linejoin="miter" stroke-width="0.5"/>
<path d="M24.8646 23.8397L25.2866 19.016L29.253 21.7933L24.8646 23.8397Z" fill="#655855" fill-rule="evenodd" opacity="1" stroke="#000000" stroke-linecap="round" stroke-linejoin="miter" stroke-width="0.5"/>
<path d="M36.0333 2.1474L41.607 6.05015C41.7108 6.12284 41.6843 6.33981 41.5478 6.53476L41.3478 6.82039C41.2113 7.01534 41.0165 7.11445 40.9126 7.04176L35.3389 3.13901C35.2351 3.06632 35.2616 2.84935 35.3981 2.6544L35.5981 2.36877C35.7346 2.17382 35.9295 2.07471 36.0333 2.1474Z" fill="#f8d89f" fill-rule="evenodd" opacity="1" stroke="#000000" stroke-linecap="round" stroke-linejoin="round" stroke-width="0.5"/>
<path d="M35.1857 2.52732L36.9 3.7277C36.9742 3.77969 36.9629 3.92405 36.8746 4.05013L31.9857 11.0322L27.4736 17.4761C27.3854 17.6021 27.2536 17.6622 27.1794 17.6102L25.465 16.4098C25.3908 16.3578 25.4021 16.2135 25.4904 16.0874L34.8914 2.66147C34.9796 2.53539 35.1114 2.47533 35.1857 2.52732Z" fill="url(#LinearGradient_2)" fill-rule="evenodd" opacity="1" stroke="#000000" stroke-linecap="round" stroke-linejoin="round" stroke-width="0.5"/>
<path d="M37.5272 4.1752L39.1569 5.31628C39.2545 5.38465 39.2352 5.58073 39.1137 5.75425L29.833 19.0084C29.7115 19.1819 29.5339 19.2672 29.4362 19.1988L27.8066 18.0577C27.709 17.9893 27.7283 17.7933 27.8498 17.6197L37.1304 4.36559C37.2519 4.19207 37.4296 4.10683 37.5272 4.1752Z" fill="#c72218" fill-rule="evenodd" opacity="1" stroke="#000000" stroke-linecap="round" stroke-linejoin="round" stroke-width="0.5"/>
<path d="M39.8758 5.8149L41.2509 6.77779C41.4188 6.89536 41.4227 7.17951 41.2596 7.41245L32.1297 20.4514C31.9665 20.6843 31.6982 20.7779 31.5303 20.6603L30.1551 19.6974C29.9872 19.5798 29.9833 19.2957 30.1464 19.0627L39.2764 6.02379C39.4395 5.79085 39.7078 5.69732 39.8758 5.8149Z" fill="#c72218" fill-rule="evenodd" opacity="1" stroke="#000000" stroke-linecap="round" stroke-linejoin="round" stroke-width="0.5"/>
</g>
</svg>
