<?xml version="1.0" encoding="UTF-8" standalone="no"?>
<!DOCTYPE svg PUBLIC "-//W3C//DTD SVG 1.1//EN" "http://www.w3.org/Graphics/SVG/1.1/DTD/svg11.dtd"
[
<!ATTLIST g
  xmlns:vectornator CDATA #FIXED "http://vectornator.io"
  vectornator:layerName CDATA #IMPLIED >
<!ATTLIST g
  xmlns:vectornator CDATA #FIXED "http://vectornator.io"
  vectornator:mask CDATA #IMPLIED >
<!ATTLIST text
  xmlns:vectornator CDATA #FIXED "http://vectornator.io"
  vectornator:width CDATA #IMPLIED >
<!ATTLIST text
  xmlns:vectornator CDATA #FIXED "http://vectornator.io"
  vectornator:text CDATA #IMPLIED >

<!ATTLIST path
  xmlns:vectornator CDATA #FIXED "http://vectornator.io"
  vectornator:blendMode CDATA #IMPLIED >
<!ATTLIST path
  xmlns:vectornator CDATA #FIXED "http://vectornator.io"
  vectornator:shadowColor CDATA #IMPLIED >
<!ATTLIST path
  xmlns:vectornator CDATA #FIXED "http://vectornator.io"
  vectornator:shadowOpacity CDATA #IMPLIED >
<!ATTLIST path
  xmlns:vectornator CDATA #FIXED "http://vectornator.io"
  vectornator:shadowRadius CDATA #IMPLIED >
<!ATTLIST path
  xmlns:vectornator CDATA #FIXED "http://vectornator.io"
  vectornator:shadowOffset CDATA #IMPLIED >
<!ATTLIST path
  xmlns:vectornator CDATA #FIXED "http://vectornator.io"
  vectornator:shadowAngle CDATA #IMPLIED >

<!ATTLIST image
  xmlns:vectornator CDATA #FIXED "http://vectornator.io"
  vectornator:blendMode CDATA #IMPLIED >
<!ATTLIST image
  xmlns:vectornator CDATA #FIXED "http://vectornator.io"
  vectornator:shadowColor CDATA #IMPLIED >
<!ATTLIST image
  xmlns:vectornator CDATA #FIXED "http://vectornator.io"
  vectornator:shadowOpacity CDATA #IMPLIED >
<!ATTLIST image
  xmlns:vectornator CDATA #FIXED "http://vectornator.io"
  vectornator:shadowRadius CDATA #IMPLIED >
<!ATTLIST image
  xmlns:vectornator CDATA #FIXED "http://vectornator.io"
  vectornator:shadowOffset CDATA #IMPLIED >
<!ATTLIST image
  xmlns:vectornator CDATA #FIXED "http://vectornator.io"
  vectornator:shadowAngle CDATA #IMPLIED >

<!ATTLIST g
  xmlns:vectornator CDATA #FIXED "http://vectornator.io"
  vectornator:blendMode CDATA #IMPLIED >
<!ATTLIST g
  xmlns:vectornator CDATA #FIXED "http://vectornator.io"
  vectornator:shadowColor CDATA #IMPLIED >
<!ATTLIST g
  xmlns:vectornator CDATA #FIXED "http://vectornator.io"
  vectornator:shadowOpacity CDATA #IMPLIED >
<!ATTLIST g
  xmlns:vectornator CDATA #FIXED "http://vectornator.io"
  vectornator:shadowRadius CDATA #IMPLIED >
<!ATTLIST g
  xmlns:vectornator CDATA #FIXED "http://vectornator.io"
  vectornator:shadowOffset CDATA #IMPLIED >
<!ATTLIST g
  xmlns:vectornator CDATA #FIXED "http://vectornator.io"
  vectornator:shadowAngle CDATA #IMPLIED >

<!ENTITY % SVG.filter.extra.content  "| feDropShadow" >
<!ELEMENT feDropShadow EMPTY>
<!ATTLIST feDropShadow
  xmlns:svg CDATA #FIXED "http://www.w3.org/Graphics/SVG/1.1/DTD/svg11.dtd"
  dx CDATA #IMPLIED>
<!ATTLIST feDropShadow
  xmlns:svg CDATA #FIXED "http://www.w3.org/Graphics/SVG/1.1/DTD/svg11.dtd"
  dy CDATA #IMPLIED>
<!ATTLIST feDropShadow
  xmlns:svg CDATA #FIXED "http://www.w3.org/Graphics/SVG/1.1/DTD/svg11.dtd"
  stdDeviation CDATA #IMPLIED>
<!ATTLIST feDropShadow
  xmlns:svg CDATA #FIXED "http://www.w3.org/Graphics/SVG/1.1/DTD/svg11.dtd"
  flood-opacity CDATA #IMPLIED>
<!ATTLIST feDropShadow
  xmlns:svg CDATA #FIXED "http://www.w3.org/Graphics/SVG/1.1/DTD/svg11.dtd"
  in CDATA #IMPLIED>
<!ATTLIST feDropShadow
  xmlns:svg CDATA #FIXED "http://www.w3.org/Graphics/SVG/1.1/DTD/svg11.dtd"
  result CDATA #IMPLIED>
<!ATTLIST feDropShadow
  xmlns:svg CDATA #FIXED "http://www.w3.org/Graphics/SVG/1.1/DTD/svg11.dtd"
  flood-color CDATA #IMPLIED>
]
>
<!-- Created with Vectornator (http://vectornator.io/) -->
<svg height="100%" stroke-miterlimit="10" style="fill-rule:nonzero;clip-rule:evenodd;stroke-linecap:round;stroke-linejoin:round;" version="1.1" viewBox="0 0 48 48" width="100%" xml:space="preserve" xmlns="http://www.w3.org/2000/svg" xmlns:vectornator="http://vectornator.io" xmlns:xlink="http://www.w3.org/1999/xlink">
<defs>
<clipPath id="TextBounds">
<rect height="10.3398" width="44" x="2" y="14.1602"/>
</clipPath>
</defs>
<g id="Layer-1" vectornator:layerName="Layer 1">
<path d="M1 1L47 1L47 47L1 47L1 1Z" fill="#609744" fill-rule="evenodd" opacity="1" stroke="#000000" stroke-linecap="round" stroke-linejoin="round" stroke-width="1.47"/>
<g fill="#000000" opacity="1" stroke="none">
<path clip-path="url(#TextBounds)" d="M7.71875 21.1602L5.67188 16.7031L5.67188 20.2422C5.67188 20.5677 5.70703 20.7708 5.77734 20.8516C5.8737 20.9609 6.02604 21.0156 6.23438 21.0156L6.42188 21.0156L6.42188 21.1602L4.57812 21.1602L4.57812 21.0156L4.76562 21.0156C4.98958 21.0156 5.14844 20.9479 5.24219 20.8125C5.29948 20.7292 5.32812 20.5391 5.32812 20.2422L5.32812 16.7812C5.32812 16.5469 5.30208 16.3776 5.25 16.2734C5.21354 16.1979 5.14648 16.1348 5.04883 16.084C4.95117 16.0332 4.79427 16.0078 4.57812 16.0078L4.57812 15.8633L6.07812 15.8633L8 20.0078L9.89062 15.8633L11.3906 15.8633L11.3906 16.0078L11.207 16.0078C10.9805 16.0078 10.8203 16.0755 10.7266 16.2109C10.6693 16.2943 10.6406 16.4844 10.6406 16.7812L10.6406 20.2422C10.6406 20.5677 10.6771 20.7708 10.75 20.8516C10.8464 20.9609 10.9987 21.0156 11.207 21.0156L11.3906 21.0156L11.3906 21.1602L9.14062 21.1602L9.14062 21.0156L9.32812 21.0156C9.55469 21.0156 9.71354 20.9479 9.80469 20.8125C9.86198 20.7292 9.89062 20.5391 9.89062 20.2422L9.89062 16.7031L7.84766 21.1602L7.71875 21.1602Z" fill-rule="evenodd"/>
<path clip-path="url(#TextBounds)" d="M13.5586 17.4766C14.1003 17.4766 14.5352 17.6823 14.8633 18.0938C15.1419 18.4453 15.2812 18.849 15.2812 19.3047C15.2812 19.625 15.2044 19.9492 15.0508 20.2773C14.8971 20.6055 14.6855 20.8529 14.416 21.0195C14.1465 21.1862 13.8464 21.2695 13.5156 21.2695C12.9766 21.2695 12.5482 21.0547 12.2305 20.625C11.9622 20.263 11.8281 19.8568 11.8281 19.4062C11.8281 19.0781 11.9095 18.752 12.0723 18.4277C12.235 18.1035 12.4492 17.8639 12.7148 17.709C12.9805 17.554 13.2617 17.4766 13.5586 17.4766ZM13.4375 17.7305C13.2995 17.7305 13.1608 17.7715 13.0215 17.8535C12.8822 17.9355 12.7695 18.0794 12.6836 18.2852C12.5977 18.4909 12.5547 18.7552 12.5547 19.0781C12.5547 19.599 12.6582 20.0482 12.8652 20.4258C13.0723 20.8034 13.3451 20.9922 13.6836 20.9922C13.9362 20.9922 14.1445 20.888 14.3086 20.6797C14.4727 20.4714 14.5547 20.1133 14.5547 19.6055C14.5547 18.9701 14.418 18.4701 14.1445 18.1055C13.9596 17.8555 13.724 17.7305 13.4375 17.7305Z" fill-rule="evenodd"/>
<path clip-path="url(#TextBounds)" d="M16.8477 16.4062L16.8477 17.582L17.6836 17.582L17.6836 17.8555L16.8477 17.8555L16.8477 20.1758C16.8477 20.4076 16.8809 20.5638 16.9473 20.6445C17.0137 20.7253 17.099 20.7656 17.2031 20.7656C17.2891 20.7656 17.3724 20.7389 17.4531 20.6855C17.5339 20.6322 17.5964 20.5534 17.6406 20.4492L17.793 20.4492C17.7018 20.7044 17.5729 20.8965 17.4062 21.0254C17.2396 21.1543 17.0677 21.2188 16.8906 21.2188C16.7708 21.2188 16.6536 21.1855 16.5391 21.1191C16.4245 21.0527 16.3398 20.9577 16.2852 20.834C16.2305 20.7103 16.2031 20.5195 16.2031 20.2617L16.2031 17.8555L15.6367 17.8555L15.6367 17.7266C15.7799 17.6693 15.9264 17.5723 16.0762 17.4355C16.2259 17.2988 16.3594 17.1367 16.4766 16.9492C16.5365 16.8503 16.6198 16.6693 16.7266 16.4062L16.8477 16.4062Z" fill-rule="evenodd"/>
<path clip-path="url(#TextBounds)" d="M18.9414 15.6055C19.0508 15.6055 19.1439 15.6439 19.2207 15.7207C19.2975 15.7975 19.3359 15.8906 19.3359 16C19.3359 16.1094 19.2975 16.2031 19.2207 16.2812C19.1439 16.3594 19.0508 16.3984 18.9414 16.3984C18.832 16.3984 18.7383 16.3594 18.6602 16.2812C18.582 16.2031 18.543 16.1094 18.543 16C18.543 15.8906 18.5814 15.7975 18.6582 15.7207C18.735 15.6439 18.8294 15.6055 18.9414 15.6055ZM19.2656 17.4766L19.2656 20.3516C19.2656 20.5755 19.2819 20.7246 19.3145 20.7988C19.347 20.873 19.3952 20.9284 19.459 20.9648C19.5228 21.0013 19.6393 21.0195 19.8086 21.0195L19.8086 21.1602L18.0703 21.1602L18.0703 21.0195C18.2448 21.0195 18.362 21.0026 18.4219 20.9688C18.4818 20.9349 18.5293 20.8789 18.5645 20.8008C18.5996 20.7227 18.6172 20.5729 18.6172 20.3516L18.6172 18.9727C18.6172 18.5846 18.6055 18.3333 18.582 18.2188C18.5638 18.1354 18.5352 18.0775 18.4961 18.0449C18.457 18.0124 18.4036 17.9961 18.3359 17.9961C18.263 17.9961 18.1745 18.0156 18.0703 18.0547L18.0156 17.9141L19.0938 17.4766L19.2656 17.4766Z" fill-rule="evenodd"/>
<path clip-path="url(#TextBounds)" d="M22.0039 17.4766C22.5456 17.4766 22.9805 17.6823 23.3086 18.0938C23.5872 18.4453 23.7266 18.849 23.7266 19.3047C23.7266 19.625 23.6497 19.9492 23.4961 20.2773C23.3424 20.6055 23.1309 20.8529 22.8613 21.0195C22.5918 21.1862 22.2917 21.2695 21.9609 21.2695C21.4219 21.2695 20.9935 21.0547 20.6758 20.625C20.4076 20.263 20.2734 19.8568 20.2734 19.4062C20.2734 19.0781 20.3548 18.752 20.5176 18.4277C20.6803 18.1035 20.8945 17.8639 21.1602 17.709C21.4258 17.554 21.707 17.4766 22.0039 17.4766ZM21.8828 17.7305C21.7448 17.7305 21.6061 17.7715 21.4668 17.8535C21.3275 17.9355 21.2148 18.0794 21.1289 18.2852C21.043 18.4909 21 18.7552 21 19.0781C21 19.599 21.1035 20.0482 21.3105 20.4258C21.5176 20.8034 21.7904 20.9922 22.1289 20.9922C22.3815 20.9922 22.5898 20.888 22.7539 20.6797C22.918 20.4714 23 20.1133 23 19.6055C23 18.9701 22.8633 18.4701 22.5898 18.1055C22.4049 17.8555 22.1693 17.7305 21.8828 17.7305Z" fill-rule="evenodd"/>
<path clip-path="url(#TextBounds)" d="M25.2969 18.2344C25.7161 17.7292 26.1159 17.4766 26.4961 17.4766C26.6914 17.4766 26.8594 17.5254 27 17.623C27.1406 17.7207 27.2526 17.8815 27.3359 18.1055C27.3932 18.2617 27.4219 18.5013 27.4219 18.8242L27.4219 20.3516C27.4219 20.5781 27.4401 20.7318 27.4766 20.8125C27.5052 20.8776 27.5514 20.9284 27.6152 20.9648C27.679 21.0013 27.7969 21.0195 27.9688 21.0195L27.9688 21.1602L26.1992 21.1602L26.1992 21.0195L26.2734 21.0195C26.4401 21.0195 26.5566 20.9941 26.623 20.9434C26.6895 20.8926 26.7357 20.8177 26.7617 20.7188C26.7721 20.6797 26.7773 20.5573 26.7773 20.3516L26.7773 18.8867C26.7773 18.5612 26.735 18.3249 26.6504 18.1777C26.5658 18.0306 26.4232 17.957 26.2227 17.957C25.9128 17.957 25.6042 18.1263 25.2969 18.4648L25.2969 20.3516C25.2969 20.5938 25.3112 20.7435 25.3398 20.8008C25.3763 20.8763 25.4264 20.9316 25.4902 20.9668C25.554 21.002 25.6836 21.0195 25.8789 21.0195L25.8789 21.1602L24.1094 21.1602L24.1094 21.0195L24.1875 21.0195C24.3698 21.0195 24.4928 20.9733 24.5566 20.8809C24.6204 20.7884 24.6523 20.612 24.6523 20.3516L24.6523 19.0234C24.6523 18.5937 24.6426 18.332 24.623 18.2383C24.6035 18.1445 24.5736 18.0807 24.5332 18.0469C24.4928 18.013 24.4388 17.9961 24.3711 17.9961C24.2982 17.9961 24.2109 18.0156 24.1094 18.0547L24.0508 17.9141L25.1289 17.4766L25.2969 17.4766L25.2969 18.2344Z" fill-rule="evenodd"/>
<path clip-path="url(#TextBounds)" d="M30.5664 17.4766L30.5664 18.6953L30.4375 18.6953C30.3385 18.3125 30.2116 18.0521 30.0566 17.9141C29.9017 17.776 29.7044 17.707 29.4648 17.707C29.2826 17.707 29.1354 17.7552 29.0234 17.8516C28.9115 17.9479 28.8555 18.0547 28.8555 18.1719C28.8555 18.3177 28.8971 18.4427 28.9805 18.5469C29.0612 18.6536 29.2253 18.7669 29.4727 18.8867L30.043 19.1641C30.5716 19.4219 30.8359 19.7617 30.8359 20.1836C30.8359 20.5091 30.7129 20.7715 30.4668 20.9707C30.2207 21.1699 29.9453 21.2695 29.6406 21.2695C29.4219 21.2695 29.1719 21.2305 28.8906 21.1523C28.8047 21.1263 28.7344 21.1133 28.6797 21.1133C28.6198 21.1133 28.5729 21.1471 28.5391 21.2148L28.4102 21.2148L28.4102 19.9375L28.5391 19.9375C28.612 20.3021 28.7513 20.5768 28.957 20.7617C29.1628 20.9466 29.3932 21.0391 29.6484 21.0391C29.8281 21.0391 29.9746 20.9863 30.0879 20.8809C30.2012 20.7754 30.2578 20.6484 30.2578 20.5C30.2578 20.3203 30.1947 20.1693 30.0684 20.0469C29.9421 19.9245 29.6901 19.7695 29.3125 19.582C28.9349 19.3945 28.6875 19.2253 28.5703 19.0742C28.4531 18.9258 28.3945 18.7383 28.3945 18.5117C28.3945 18.2174 28.4954 17.9714 28.6973 17.7734C28.8991 17.5755 29.1602 17.4766 29.4805 17.4766C29.6211 17.4766 29.7917 17.5065 29.9922 17.5664C30.125 17.6055 30.2135 17.625 30.2578 17.625C30.2995 17.625 30.332 17.6159 30.3555 17.5977C30.3789 17.5794 30.4062 17.5391 30.4375 17.4766L30.5664 17.4766Z" fill-rule="evenodd"/>
<path clip-path="url(#TextBounds)" d="M32.4141 17.4766L32.4141 18.2812C32.7135 17.7448 33.0208 17.4766 33.3359 17.4766C33.4792 17.4766 33.5977 17.5202 33.6914 17.6074C33.7852 17.6947 33.832 17.7956 33.832 17.9102C33.832 18.0117 33.7982 18.0977 33.7305 18.168C33.6628 18.2383 33.582 18.2734 33.4883 18.2734C33.3971 18.2734 33.2949 18.2285 33.1816 18.1387C33.0684 18.0488 32.9844 18.0039 32.9297 18.0039C32.8828 18.0039 32.832 18.0299 32.7773 18.082C32.6602 18.1888 32.5391 18.3646 32.4141 18.6094L32.4141 20.3242C32.4141 20.5221 32.4388 20.6719 32.4883 20.7734C32.5221 20.8438 32.582 20.9023 32.668 20.9492C32.7539 20.9961 32.8776 21.0195 33.0391 21.0195L33.0391 21.1602L31.207 21.1602L31.207 21.0195C31.3893 21.0195 31.5247 20.9909 31.6133 20.9336C31.6784 20.8919 31.724 20.8255 31.75 20.7344C31.763 20.6901 31.7695 20.5638 31.7695 20.3555L31.7695 18.9688C31.7695 18.5521 31.7611 18.304 31.7441 18.2246C31.7272 18.1452 31.696 18.0872 31.6504 18.0508C31.6048 18.0143 31.5482 17.9961 31.4805 17.9961C31.3997 17.9961 31.3086 18.0156 31.207 18.0547L31.168 17.9141L32.25 17.4766L32.4141 17.4766Z" fill-rule="evenodd"/>
<path clip-path="url(#TextBounds)" d="M37.168 17.582L37.168 19.75C37.168 20.1641 37.1777 20.4173 37.1973 20.5098C37.2168 20.6022 37.248 20.6667 37.291 20.7031C37.334 20.7396 37.3841 20.7578 37.4414 20.7578C37.5221 20.7578 37.6133 20.7357 37.7148 20.6914L37.7695 20.8281L36.6992 21.2695L36.5234 21.2695L36.5234 20.5117C36.2161 20.8451 35.9818 21.0547 35.8203 21.1406C35.6589 21.2266 35.4883 21.2695 35.3086 21.2695C35.1081 21.2695 34.9342 21.2116 34.7871 21.0957C34.64 20.9798 34.5378 20.8307 34.4805 20.6484C34.4232 20.4661 34.3945 20.2083 34.3945 19.875L34.3945 18.2773C34.3945 18.1081 34.3763 17.9909 34.3398 17.9258C34.3034 17.8607 34.2493 17.8105 34.1777 17.7754C34.1061 17.7402 33.9766 17.724 33.7891 17.7266L33.7891 17.582L35.043 17.582L35.043 19.9766C35.043 20.3099 35.1009 20.5286 35.2168 20.6328C35.3327 20.737 35.4727 20.7891 35.6367 20.7891C35.7487 20.7891 35.8757 20.7539 36.0176 20.6836C36.1595 20.6133 36.3281 20.4792 36.5234 20.2812L36.5234 18.2539C36.5234 18.0508 36.4863 17.9134 36.4121 17.8418C36.3379 17.7702 36.1836 17.7318 35.9492 17.7266L35.9492 17.582L37.168 17.582Z" fill-rule="evenodd"/>
<path clip-path="url(#TextBounds)" d="M39.0703 16.4062L39.0703 17.582L39.9062 17.582L39.9062 17.8555L39.0703 17.8555L39.0703 20.1758C39.0703 20.4076 39.1035 20.5638 39.1699 20.6445C39.2363 20.7253 39.3216 20.7656 39.4258 20.7656C39.5117 20.7656 39.5951 20.7389 39.6758 20.6855C39.7565 20.6322 39.819 20.5534 39.8633 20.4492L40.0156 20.4492C39.9245 20.7044 39.7956 20.8965 39.6289 21.0254C39.4622 21.1543 39.2904 21.2188 39.1133 21.2188C38.9935 21.2188 38.8763 21.1855 38.7617 21.1191C38.6471 21.0527 38.5625 20.9577 38.5078 20.834C38.4531 20.7103 38.4258 20.5195 38.4258 20.2617L38.4258 17.8555L37.8594 17.8555L37.8594 17.7266C38.0026 17.6693 38.1491 17.5723 38.2988 17.4355C38.4486 17.2988 38.582 17.1367 38.6992 16.9492C38.7591 16.8503 38.8424 16.6693 38.9492 16.4062L39.0703 16.4062Z" fill-rule="evenodd"/>
<path clip-path="url(#TextBounds)" d="M40.8555 18.9297C40.8529 19.4609 40.9818 19.8776 41.2422 20.1797C41.5026 20.4818 41.8086 20.6328 42.1602 20.6328C42.3945 20.6328 42.5983 20.5684 42.7715 20.4395C42.9447 20.3105 43.0898 20.0898 43.207 19.7773L43.3281 19.8555C43.2734 20.2122 43.1146 20.5371 42.8516 20.8301C42.5885 21.123 42.2591 21.2695 41.8633 21.2695C41.4336 21.2695 41.0658 21.1022 40.7598 20.7676C40.4538 20.4329 40.3008 19.9831 40.3008 19.418C40.3008 18.806 40.4577 18.3288 40.7715 17.9863C41.0853 17.6439 41.4792 17.4727 41.9531 17.4727C42.3542 17.4727 42.6836 17.6048 42.9414 17.8691C43.1992 18.1335 43.3281 18.487 43.3281 18.9297L40.8555 18.9297ZM40.8555 18.7031L42.5117 18.7031C42.4987 18.474 42.4714 18.3125 42.4297 18.2188C42.3646 18.0729 42.2676 17.9583 42.1387 17.875C42.0098 17.7917 41.875 17.75 41.7344 17.75C41.5182 17.75 41.3249 17.834 41.1543 18.002C40.9837 18.1699 40.8841 18.4036 40.8555 18.7031Z" fill-rule="evenodd"/>
</g>
</g>
</svg>
