<?xml version="1.0" encoding="UTF-8" standalone="no"?>
<!DOCTYPE svg PUBLIC "-//W3C//DTD SVG 1.1//EN" "http://www.w3.org/Graphics/SVG/1.1/DTD/svg11.dtd">

<!-- Created with Vectornator (http://vectornator.io/) -->
<svg height="100%" stroke-miterlimit="10" style="fill-rule:nonzero;clip-rule:evenodd;stroke-linecap:round;stroke-linejoin:round;" version="1.1" viewBox="0 0 48 48" width="100%" xml:space="preserve" xmlns="http://www.w3.org/2000/svg" xmlns:vectornator="http://vectornator.io" xmlns:xlink="http://www.w3.org/1999/xlink">
<metadata>
<vectornator:setting key="IsTimeLapseWatermarkDisabled" value="false"/>
<vectornator:setting key="UndoHistoryDisabled" value="true"/>
<vectornator:setting key="VNDimensionsVisible" value="true"/>
<vectornator:setting key="VNSnapToGuides" value="true"/>
<vectornator:setting key="WDCMYKEnabledKey" value="false"/>
<vectornator:setting key="WDDisplayWhiteBackground" value="false"/>
<vectornator:setting key="WDDynamicGuides" value="false"/>
<vectornator:setting key="WDGuidesVisible" value="true"/>
<vectornator:setting key="WDIsolateActiveLayer" value="false"/>
<vectornator:setting key="WDOutlineMode" value="false"/>
<vectornator:setting key="WDRulersVisible" value="true"/>
<vectornator:setting key="WDSnapToEdges" value="false"/>
<vectornator:setting key="WDSnapToGrid" value="false"/>
<vectornator:setting key="WDSnapToPoints" value="false"/>
<vectornator:setting key="WDUnits" value="Pixels"/>
</metadata>
<defs>
<clipPath id="TextBounds">
<rect height="9.29736" width="44" x="2" y="19.3513"/>
</clipPath>
</defs>
<g id="Layer-1" vectornator:layerName="Layer 1">
<path d="M1 1L47 1L47 47L1 47L1 1Z" fill="#609744" fill-rule="evenodd" opacity="1" stroke="#000000" stroke-linecap="round" stroke-linejoin="round" stroke-width="1.47"/>
<g fill="#000000" opacity="1" stroke="none">
<path clip-path="url(#TextBounds)" d="M5.63696 20.7166L6.89478 20.7166L9.72827 24.1926L9.72827 21.5198C9.72827 21.2349 9.69637 21.0572 9.63257 20.9866C9.54826 20.8909 9.41496 20.843 9.23267 20.843L9.07202 20.843L9.07202 20.7166L10.6853 20.7166L10.6853 20.843L10.5212 20.843C10.3253 20.843 10.1863 20.9023 10.1042 21.0208C10.0541 21.0937 10.0291 21.26 10.0291 21.5198L10.0291 25.4265L9.90601 25.4265L6.85034 21.6941L6.85034 24.5481C6.85034 24.8329 6.8811 25.0107 6.94263 25.0813C7.02922 25.177 7.16252 25.2249 7.34253 25.2249L7.50659 25.2249L7.50659 25.3513L5.89331 25.3513L5.89331 25.2249L6.05396 25.2249C6.2522 25.2249 6.39233 25.1656 6.47437 25.0471C6.5245 24.9742 6.54956 24.8079 6.54956 24.5481L6.54956 21.325C6.41512 21.1677 6.31315 21.064 6.24365 21.0139C6.17415 20.9638 6.07218 20.9171 5.93774 20.8738C5.87166 20.8533 5.7714 20.843 5.63696 20.843L5.63696 20.7166Z" fill-rule="evenodd"/>
<path clip-path="url(#TextBounds)" d="M12.7771 24.9001C12.4558 25.1485 12.2542 25.2921 12.1721 25.3308C12.0491 25.3878 11.9181 25.4163 11.7791 25.4163C11.5626 25.4163 11.3843 25.3422 11.2441 25.1941C11.104 25.046 11.0339 24.8512 11.0339 24.6096C11.0339 24.4569 11.0681 24.3248 11.1365 24.2131C11.2299 24.0582 11.3923 23.9124 11.6235 23.7756C11.8548 23.6389 12.2393 23.4726 12.7771 23.2766L12.7771 23.1536C12.7771 22.8414 12.7275 22.6272 12.6284 22.511C12.5293 22.3948 12.3852 22.3367 12.196 22.3367C12.0525 22.3367 11.9386 22.3754 11.8542 22.4529C11.7677 22.5304 11.7244 22.6192 11.7244 22.7195L11.7312 22.9177C11.7312 23.0225 11.7044 23.1034 11.6509 23.1604C11.5973 23.2174 11.5273 23.2458 11.4407 23.2458C11.3564 23.2458 11.2874 23.2162 11.2339 23.157C11.1803 23.0977 11.1536 23.0168 11.1536 22.9143C11.1536 22.7183 11.2538 22.5383 11.4543 22.3743C11.6549 22.2102 11.9363 22.1282 12.2986 22.1282C12.5766 22.1282 12.8044 22.1749 12.9822 22.2683C13.1166 22.3389 13.2157 22.4495 13.2795 22.5999C13.3206 22.6978 13.3411 22.8984 13.3411 23.2014L13.3411 24.2644C13.3411 24.5629 13.3468 24.7458 13.3582 24.813C13.3695 24.8802 13.3883 24.9252 13.4146 24.948C13.4408 24.9708 13.4709 24.9822 13.5051 24.9822C13.5416 24.9822 13.5735 24.9742 13.6008 24.9583C13.6487 24.9286 13.741 24.8455 13.8777 24.7087L13.8777 24.9001C13.6225 25.2419 13.3787 25.4128 13.1462 25.4128C13.0346 25.4128 12.9457 25.3741 12.8796 25.2966C12.8136 25.2192 12.7794 25.087 12.7771 24.9001ZM12.7771 24.678L12.7771 23.4851C12.433 23.6218 12.2109 23.7187 12.1106 23.7756C11.9306 23.8759 11.8018 23.9807 11.7244 24.0901C11.6469 24.1995 11.6082 24.3191 11.6082 24.449C11.6082 24.613 11.6571 24.7492 11.7551 24.8574C11.8531 24.9657 11.9659 25.0198 12.0935 25.0198C12.2667 25.0198 12.4945 24.9058 12.7771 24.678Z" fill-rule="evenodd"/>
<path clip-path="url(#TextBounds)" d="M15.0193 21.1917L15.0193 22.2205L15.7507 22.2205L15.7507 22.4597L15.0193 22.4597L15.0193 24.49C15.0193 24.6928 15.0483 24.8295 15.1064 24.9001C15.1646 24.9708 15.2392 25.0061 15.3303 25.0061C15.4055 25.0061 15.4784 24.9827 15.5491 24.936C15.6197 24.8893 15.6744 24.8204 15.7131 24.7292L15.8464 24.7292C15.7667 24.9526 15.6539 25.1206 15.5081 25.2334C15.3622 25.3462 15.2118 25.4026 15.0569 25.4026C14.9521 25.4026 14.8495 25.3735 14.7493 25.3154C14.649 25.2573 14.575 25.1742 14.5271 25.0659C14.4792 24.9577 14.4553 24.7908 14.4553 24.5652L14.4553 22.4597L13.9597 22.4597L13.9597 22.3469C14.085 22.2968 14.2132 22.2119 14.3442 22.0923C14.4753 21.9727 14.592 21.8308 14.6946 21.6667C14.747 21.5802 14.8199 21.4218 14.9133 21.1917L15.0193 21.1917Z" fill-rule="evenodd"/>
<path clip-path="url(#TextBounds)" d="M16.8513 20.491C16.947 20.491 17.0285 20.5246 17.0957 20.5918C17.1629 20.659 17.1965 20.7405 17.1965 20.8362C17.1965 20.9319 17.1629 21.0139 17.0957 21.0823C17.0285 21.1506 16.947 21.1848 16.8513 21.1848C16.7556 21.1848 16.6736 21.1506 16.6052 21.0823C16.5369 21.0139 16.5027 20.9319 16.5027 20.8362C16.5027 20.7405 16.5363 20.659 16.6035 20.5918C16.6707 20.5246 16.7533 20.491 16.8513 20.491ZM17.135 22.1282L17.135 24.6438C17.135 24.8398 17.1493 24.9702 17.1777 25.0352C17.2062 25.1001 17.2484 25.1485 17.3042 25.1804C17.36 25.2123 17.462 25.2283 17.6101 25.2283L17.6101 25.3513L16.0891 25.3513L16.0891 25.2283C16.2418 25.2283 16.3443 25.2135 16.3967 25.1838C16.4491 25.1542 16.4907 25.1052 16.5215 25.0369C16.5522 24.9685 16.5676 24.8375 16.5676 24.6438L16.5676 23.4373C16.5676 23.0977 16.5574 22.8778 16.5369 22.7776C16.5209 22.7047 16.4958 22.654 16.4617 22.6255C16.4275 22.597 16.3808 22.5828 16.3215 22.5828C16.2577 22.5828 16.1803 22.5999 16.0891 22.634L16.0413 22.511L16.9846 22.1282L17.135 22.1282Z" fill-rule="evenodd"/>
<path clip-path="url(#TextBounds)" d="M19.531 22.1282C20.005 22.1282 20.3855 22.3082 20.6726 22.6682C20.9164 22.9758 21.0383 23.329 21.0383 23.7278C21.0383 24.0081 20.9711 24.2917 20.8367 24.5789C20.7022 24.866 20.5171 25.0824 20.2812 25.2283C20.0454 25.3741 19.7828 25.447 19.4934 25.447C19.0217 25.447 18.6469 25.259 18.3689 24.8831C18.1342 24.5663 18.0168 24.2109 18.0168 23.8167C18.0168 23.5295 18.0881 23.2441 18.2305 22.9604C18.3729 22.6768 18.5603 22.4671 18.7927 22.3315C19.0251 22.196 19.2712 22.1282 19.531 22.1282ZM19.425 22.3503C19.3043 22.3503 19.1829 22.3862 19.061 22.458C18.9391 22.5298 18.8406 22.6557 18.7654 22.8357C18.6902 23.0157 18.6526 23.247 18.6526 23.5295C18.6526 23.9853 18.7432 24.3783 18.9243 24.7087C19.1055 25.0391 19.3442 25.2043 19.6404 25.2043C19.8614 25.2043 20.0437 25.1132 20.1873 24.9309C20.3308 24.7486 20.4026 24.4353 20.4026 23.991C20.4026 23.435 20.283 22.9975 20.0437 22.6785C19.8819 22.4597 19.6757 22.3503 19.425 22.3503Z" fill-rule="evenodd"/>
<path clip-path="url(#TextBounds)" d="M22.4124 22.7913C22.7792 22.3492 23.129 22.1282 23.4617 22.1282C23.6326 22.1282 23.7795 22.1709 23.9026 22.2563C24.0256 22.3418 24.1236 22.4825 24.1965 22.6785C24.2467 22.8152 24.2717 23.0248 24.2717 23.3074L24.2717 24.6438C24.2717 24.842 24.2877 24.9765 24.3196 25.0471C24.3446 25.1041 24.3851 25.1485 24.4409 25.1804C24.4967 25.2123 24.5999 25.2283 24.7502 25.2283L24.7502 25.3513L23.2019 25.3513L23.2019 25.2283L23.2668 25.2283C23.4127 25.2283 23.5146 25.2061 23.5728 25.1616C23.6309 25.1172 23.6713 25.0517 23.6941 24.9651C23.7032 24.9309 23.7078 24.8238 23.7078 24.6438L23.7078 23.3621C23.7078 23.0772 23.6707 22.8704 23.5967 22.7417C23.5226 22.613 23.3979 22.5486 23.2224 22.5486C22.9513 22.5486 22.6812 22.6967 22.4124 22.9929L22.4124 24.6438C22.4124 24.8557 22.4249 24.9867 22.45 25.0369C22.4819 25.1029 22.5257 25.1514 22.5815 25.1821C22.6374 25.2129 22.7507 25.2283 22.9216 25.2283L22.9216 25.3513L21.3733 25.3513L21.3733 25.2283L21.4417 25.2283C21.6012 25.2283 21.7088 25.1878 21.7646 25.1069C21.8205 25.026 21.8484 24.8717 21.8484 24.6438L21.8484 23.4817C21.8484 23.1057 21.8398 22.8767 21.8228 22.7947C21.8057 22.7126 21.7795 22.6568 21.7441 22.6272C21.7088 22.5976 21.6615 22.5828 21.6023 22.5828C21.5385 22.5828 21.4622 22.5999 21.3733 22.634L21.322 22.511L22.2654 22.1282L22.4124 22.1282L22.4124 22.7913Z" fill-rule="evenodd"/>
<path clip-path="url(#TextBounds)" d="M26.7737 24.9001C26.4524 25.1485 26.2507 25.2921 26.1687 25.3308C26.0457 25.3878 25.9146 25.4163 25.7756 25.4163C25.5592 25.4163 25.3809 25.3422 25.2407 25.1941C25.1006 25.046 25.0305 24.8512 25.0305 24.6096C25.0305 24.4569 25.0647 24.3248 25.1331 24.2131C25.2265 24.0582 25.3888 23.9124 25.6201 23.7756C25.8514 23.6389 26.2359 23.4726 26.7737 23.2766L26.7737 23.1536C26.7737 22.8414 26.7241 22.6272 26.625 22.511C26.5259 22.3948 26.3818 22.3367 26.1926 22.3367C26.0491 22.3367 25.9351 22.3754 25.8508 22.4529C25.7642 22.5304 25.7209 22.6192 25.7209 22.7195L25.7278 22.9177C25.7278 23.0225 25.701 23.1034 25.6475 23.1604C25.5939 23.2174 25.5238 23.2458 25.4373 23.2458C25.3529 23.2458 25.284 23.2162 25.2305 23.157C25.1769 23.0977 25.1501 23.0168 25.1501 22.9143C25.1501 22.7183 25.2504 22.5383 25.4509 22.3743C25.6514 22.2102 25.9329 22.1282 26.2952 22.1282C26.5732 22.1282 26.801 22.1749 26.9788 22.2683C27.1132 22.3389 27.2123 22.4495 27.2761 22.5999C27.3171 22.6978 27.3376 22.8984 27.3376 23.2014L27.3376 24.2644C27.3376 24.5629 27.3433 24.7458 27.3547 24.813C27.3661 24.8802 27.3849 24.9252 27.4111 24.948C27.4373 24.9708 27.4675 24.9822 27.5017 24.9822C27.5382 24.9822 27.5701 24.9742 27.5974 24.9583C27.6453 24.9286 27.7375 24.8455 27.8743 24.7087L27.8743 24.9001C27.6191 25.2419 27.3752 25.4128 27.1428 25.4128C27.0312 25.4128 26.9423 25.3741 26.8762 25.2966C26.8101 25.2192 26.776 25.087 26.7737 24.9001ZM26.7737 24.678L26.7737 23.4851C26.4296 23.6218 26.2074 23.7187 26.1072 23.7756C25.9272 23.8759 25.7984 23.9807 25.7209 24.0901C25.6435 24.1995 25.6047 24.3191 25.6047 24.449C25.6047 24.613 25.6537 24.7492 25.7517 24.8574C25.8497 24.9657 25.9625 25.0198 26.0901 25.0198C26.2633 25.0198 26.4911 24.9058 26.7737 24.678Z" fill-rule="evenodd"/>
<path clip-path="url(#TextBounds)" d="M29.1833 20.491L29.1833 24.6438C29.1833 24.8398 29.1976 24.9696 29.2261 25.0334C29.2546 25.0972 29.2984 25.1457 29.3577 25.1787C29.4169 25.2118 29.5274 25.2283 29.6892 25.2283L29.6892 25.3513L28.1545 25.3513L28.1545 25.2283C28.2981 25.2283 28.3961 25.2135 28.4485 25.1838C28.5009 25.1542 28.5419 25.1052 28.5715 25.0369C28.6012 24.9685 28.616 24.8375 28.616 24.6438L28.616 21.8C28.616 21.4469 28.608 21.2298 28.592 21.1489C28.5761 21.068 28.5505 21.0128 28.5151 20.9832C28.4798 20.9535 28.4348 20.9387 28.3801 20.9387C28.3209 20.9387 28.2457 20.9569 28.1545 20.9934L28.0964 20.8738L29.0295 20.491L29.1833 20.491Z" fill-rule="evenodd"/>
<path clip-path="url(#TextBounds)" d="M29.8259 22.5315L30.7898 22.1418L30.9197 22.1418L30.9197 22.8733C31.0815 22.5976 31.2438 22.4045 31.4067 22.2939C31.5697 22.1834 31.7411 22.1282 31.9211 22.1282C32.2356 22.1282 32.4976 22.2512 32.7073 22.4973C32.9648 22.7981 33.0935 23.19 33.0935 23.6731C33.0935 24.2131 32.9386 24.6597 32.6287 25.0129C32.3735 25.3023 32.0522 25.447 31.6648 25.447C31.4962 25.447 31.3503 25.4231 31.2273 25.3752C31.1361 25.3411 31.0336 25.2727 30.9197 25.1702L30.9197 26.1238C30.9197 26.338 30.9328 26.4741 30.959 26.5322C30.9852 26.5903 31.0308 26.6365 31.0957 26.6707C31.1606 26.7048 31.2786 26.7219 31.4495 26.7219L31.4495 26.8484L29.8088 26.8484L29.8088 26.7219L29.8943 26.7219C30.0196 26.7242 30.1267 26.7003 30.2156 26.6501C30.2589 26.6251 30.2925 26.5846 30.3164 26.5288C30.3403 26.473 30.3523 26.3311 30.3523 26.1033L30.3523 23.1433C30.3523 22.9405 30.3432 22.8118 30.325 22.7571C30.3067 22.7024 30.2777 22.6614 30.2378 22.634C30.1979 22.6067 30.1438 22.593 30.0754 22.593C30.0208 22.593 29.9513 22.609 29.8669 22.6409L29.8259 22.5315ZM30.9197 23.075L30.9197 24.2439C30.9197 24.4968 30.9299 24.6632 30.9504 24.7429C30.9823 24.8751 31.0604 24.9913 31.1846 25.0916C31.3088 25.1918 31.4654 25.2419 31.6545 25.2419C31.8824 25.2419 32.067 25.1531 32.2083 24.9753C32.3928 24.7429 32.4851 24.4159 32.4851 23.9944C32.4851 23.5159 32.3803 23.1479 32.1707 22.8904C32.0248 22.7126 31.8516 22.6238 31.6511 22.6238C31.5417 22.6238 31.4335 22.6511 31.3264 22.7058C31.2444 22.7468 31.1088 22.8699 30.9197 23.075Z" fill-rule="evenodd"/>
<path clip-path="url(#TextBounds)" d="M35.3254 24.9001C35.0042 25.1485 34.8025 25.2921 34.7205 25.3308C34.5974 25.3878 34.4664 25.4163 34.3274 25.4163C34.1109 25.4163 33.9326 25.3422 33.7925 25.1941C33.6523 25.046 33.5823 24.8512 33.5823 24.6096C33.5823 24.4569 33.6165 24.3248 33.6848 24.2131C33.7782 24.0582 33.9406 23.9124 34.1719 23.7756C34.4032 23.6389 34.7877 23.4726 35.3254 23.2766L35.3254 23.1536C35.3254 22.8414 35.2759 22.6272 35.1768 22.511C35.0776 22.3948 34.9335 22.3367 34.7444 22.3367C34.6008 22.3367 34.4869 22.3754 34.4026 22.4529C34.316 22.5304 34.2727 22.6192 34.2727 22.7195L34.2795 22.9177C34.2795 23.0225 34.2528 23.1034 34.1992 23.1604C34.1457 23.2174 34.0756 23.2458 33.989 23.2458C33.9047 23.2458 33.8358 23.2162 33.7822 23.157C33.7287 23.0977 33.7019 23.0168 33.7019 22.9143C33.7019 22.7183 33.8022 22.5383 34.0027 22.3743C34.2032 22.2102 34.4846 22.1282 34.8469 22.1282C35.1249 22.1282 35.3528 22.1749 35.5305 22.2683C35.665 22.3389 35.7641 22.4495 35.8279 22.5999C35.8689 22.6978 35.8894 22.8984 35.8894 23.2014L35.8894 24.2644C35.8894 24.5629 35.8951 24.7458 35.9065 24.813C35.9179 24.8802 35.9367 24.9252 35.9629 24.948C35.9891 24.9708 36.0193 24.9822 36.0535 24.9822C36.0899 24.9822 36.1218 24.9742 36.1492 24.9583C36.197 24.9286 36.2893 24.8455 36.426 24.7087L36.426 24.9001C36.1708 25.2419 35.927 25.4128 35.6946 25.4128C35.5829 25.4128 35.4941 25.3741 35.428 25.2966C35.3619 25.2192 35.3277 25.087 35.3254 24.9001ZM35.3254 24.678L35.3254 23.4851C34.9814 23.6218 34.7592 23.7187 34.6589 23.7756C34.4789 23.8759 34.3502 23.9807 34.2727 24.0901C34.1952 24.1995 34.1565 24.3191 34.1565 24.449C34.1565 24.613 34.2055 24.7492 34.3035 24.8574C34.4014 24.9657 34.5142 25.0198 34.6418 25.0198C34.815 25.0198 35.0429 24.9058 35.3254 24.678Z" fill-rule="evenodd"/>
<path clip-path="url(#TextBounds)" d="M37.5745 22.1282L37.5745 22.8323C37.8365 22.3629 38.1054 22.1282 38.3811 22.1282C38.5064 22.1282 38.6101 22.1663 38.6921 22.2427C38.7742 22.319 38.8152 22.4073 38.8152 22.5076C38.8152 22.5964 38.7856 22.6716 38.7263 22.7332C38.6671 22.7947 38.5964 22.8254 38.5144 22.8254C38.4347 22.8254 38.3452 22.7861 38.2461 22.7075C38.147 22.6289 38.0735 22.5896 38.0256 22.5896C37.9846 22.5896 37.9402 22.6124 37.8923 22.658C37.7898 22.7514 37.6838 22.9052 37.5745 23.1194L37.5745 24.6199C37.5745 24.7931 37.5961 24.9241 37.6394 25.0129C37.669 25.0745 37.7214 25.1257 37.7966 25.1667C37.8718 25.2078 37.9801 25.2283 38.1213 25.2283L38.1213 25.3513L36.5183 25.3513L36.5183 25.2283C36.6778 25.2283 36.7963 25.2032 36.8738 25.1531C36.9307 25.1166 36.9706 25.0585 36.9934 24.9788C37.0048 24.94 37.0105 24.8295 37.0105 24.6472L37.0105 23.4338C37.0105 23.0693 37.0031 22.8522 36.9883 22.7827C36.9735 22.7132 36.9461 22.6625 36.9062 22.6306C36.8664 22.5987 36.8168 22.5828 36.7576 22.5828C36.6869 22.5828 36.6072 22.5999 36.5183 22.634L36.4841 22.511L37.4309 22.1282L37.5745 22.1282Z" fill-rule="evenodd"/>
<path clip-path="url(#TextBounds)" d="M39.9158 20.491L39.9158 23.6082L40.7122 22.8801C40.8808 22.7252 40.9788 22.6272 41.0061 22.5862C41.0243 22.5588 41.0334 22.5315 41.0334 22.5042C41.0334 22.4586 41.0146 22.4193 40.9771 22.3862C40.9395 22.3532 40.8774 22.3344 40.7908 22.3298L40.7908 22.2205L42.1511 22.2205L42.1511 22.3298C41.9643 22.3344 41.8088 22.3629 41.6846 22.4153C41.5604 22.4677 41.4242 22.5611 41.2761 22.6956L40.4729 23.4373L41.2761 24.4524C41.4994 24.7327 41.6498 24.9104 41.7273 24.9856C41.8367 25.0927 41.9324 25.1622 42.0144 25.1941C42.0714 25.2169 42.1705 25.2283 42.3118 25.2283L42.3118 25.3513L40.7908 25.3513L40.7908 25.2283C40.8774 25.226 40.936 25.2129 40.9668 25.189C40.9976 25.165 41.0129 25.1314 41.0129 25.0881C41.0129 25.0357 40.9674 24.9514 40.8762 24.8352L39.9158 23.6082L39.9158 24.6472C39.9158 24.85 39.93 24.9833 39.9585 25.0471C39.987 25.1109 40.0274 25.1565 40.0798 25.1838C40.1322 25.2112 40.2462 25.226 40.4216 25.2283L40.4216 25.3513L38.8289 25.3513L38.8289 25.2283C38.9884 25.2283 39.108 25.2089 39.1877 25.1702C39.2356 25.1451 39.2721 25.1064 39.2971 25.054C39.3313 24.9788 39.3484 24.8489 39.3484 24.6643L39.3484 21.8137C39.3484 21.4514 39.3404 21.2298 39.3245 21.1489C39.3085 21.068 39.2823 21.0122 39.2458 20.9814C39.2094 20.9507 39.1615 20.9353 39.1023 20.9353C39.0544 20.9353 38.9827 20.9547 38.887 20.9934L38.8289 20.8738L39.7585 20.491L39.9158 20.491Z" fill-rule="evenodd"/>
</g>
</g>
</svg>
