<?xml version="1.0" encoding="UTF-8" standalone="no"?>
<!DOCTYPE svg PUBLIC "-//W3C//DTD SVG 1.1//EN" "http://www.w3.org/Graphics/SVG/1.1/DTD/svg11.dtd">

<!-- Created with Vectornator (http://vectornator.io/) -->
<svg height="100%" stroke-miterlimit="10" style="fill-rule:nonzero;clip-rule:evenodd;stroke-linecap:round;stroke-linejoin:round;" version="1.1" viewBox="0 0 48 48" width="100%" xml:space="preserve" xmlns="http://www.w3.org/2000/svg" xmlns:vectornator="http://vectornator.io" xmlns:xlink="http://www.w3.org/1999/xlink">
<metadata>
<vectornator:setting key="IsTimeLapseWatermarkDisabled" value="false"/>
<vectornator:setting key="UndoHistoryDisabled" value="true"/>
<vectornator:setting key="VNDimensionsVisible" value="true"/>
<vectornator:setting key="VNSnapToGuides" value="true"/>
<vectornator:setting key="WDCMYKEnabledKey" value="false"/>
<vectornator:setting key="WDDisplayWhiteBackground" value="false"/>
<vectornator:setting key="WDDynamicGuides" value="false"/>
<vectornator:setting key="WDGuidesVisible" value="true"/>
<vectornator:setting key="WDIsolateActiveLayer" value="false"/>
<vectornator:setting key="WDOutlineMode" value="false"/>
<vectornator:setting key="WDRulersVisible" value="true"/>
<vectornator:setting key="WDSnapToEdges" value="false"/>
<vectornator:setting key="WDSnapToGrid" value="false"/>
<vectornator:setting key="WDSnapToPoints" value="false"/>
<vectornator:setting key="WDUnits" value="Pixels"/>
</metadata>
<defs>
<clipPath id="TextBounds">
<rect height="12.4248" width="44" x="2" y="17.7876"/>
</clipPath>
</defs>
<g id="Layer-1" vectornator:layerName="Layer 1">
<path d="M1 1L47 1L47 47L1 47L1 1Z" fill="#609744" fill-rule="evenodd" opacity="1" stroke="#000000" stroke-linecap="round" stroke-linejoin="round" stroke-width="1.47"/>
<g fill="#000000" opacity="1" stroke="none">
<path clip-path="url(#TextBounds)" d="M3.59961 20.1665L5.39648 20.1665L9.44434 25.1323L9.44434 21.314C9.44434 20.9071 9.39876 20.6532 9.30762 20.5522C9.18717 20.4155 8.99674 20.3472 8.73633 20.3472L8.50684 20.3472L8.50684 20.1665L10.8115 20.1665L10.8115 20.3472L10.5771 20.3472C10.2972 20.3472 10.0986 20.4318 9.98145 20.6011C9.90983 20.7052 9.87402 20.9429 9.87402 21.314L9.87402 26.895L9.69824 26.895L5.33301 21.563L5.33301 25.6401C5.33301 26.047 5.37695 26.3009 5.46484 26.4019C5.58854 26.5386 5.77897 26.6069 6.03613 26.6069L6.27051 26.6069L6.27051 26.7876L3.96582 26.7876L3.96582 26.6069L4.19531 26.6069C4.47852 26.6069 4.67871 26.5223 4.7959 26.353C4.86751 26.2489 4.90332 26.0112 4.90332 25.6401L4.90332 21.0356C4.71126 20.811 4.56559 20.6629 4.46631 20.5913C4.36702 20.5197 4.22135 20.453 4.0293 20.3911C3.9349 20.3618 3.79167 20.3472 3.59961 20.3472L3.59961 20.1665Z" fill-rule="evenodd"/>
<path clip-path="url(#TextBounds)" d="M13.7998 26.1431C13.3408 26.4979 13.0527 26.703 12.9355 26.7583C12.7598 26.8397 12.5726 26.8804 12.374 26.8804C12.0648 26.8804 11.8101 26.7746 11.6099 26.563C11.4097 26.3514 11.3096 26.0731 11.3096 25.728C11.3096 25.5099 11.3584 25.3211 11.4561 25.1616C11.5895 24.9403 11.8215 24.7319 12.1519 24.5366C12.4823 24.3413 13.0316 24.1037 13.7998 23.8237L13.7998 23.6479C13.7998 23.202 13.729 22.896 13.5874 22.73C13.4458 22.564 13.2399 22.481 12.9697 22.481C12.7646 22.481 12.6019 22.5363 12.4814 22.647C12.3577 22.7576 12.2959 22.8846 12.2959 23.0278L12.3057 23.311C12.3057 23.4608 12.2674 23.5763 12.1909 23.6577C12.1144 23.7391 12.0143 23.7798 11.8906 23.7798C11.7702 23.7798 11.6717 23.7375 11.5952 23.6528C11.5187 23.5682 11.4805 23.4526 11.4805 23.3062C11.4805 23.0262 11.6237 22.769 11.9102 22.5347C12.1966 22.3003 12.5986 22.1831 13.1162 22.1831C13.5133 22.1831 13.8389 22.2498 14.0928 22.3833C14.2848 22.4842 14.4264 22.6421 14.5176 22.8569C14.5762 22.9969 14.6055 23.2834 14.6055 23.7163L14.6055 25.2349C14.6055 25.6613 14.6136 25.9225 14.6299 26.0186C14.6462 26.1146 14.673 26.1789 14.7104 26.2114C14.7479 26.244 14.791 26.2603 14.8398 26.2603C14.8919 26.2603 14.9375 26.2489 14.9766 26.2261C15.0449 26.1838 15.1768 26.0649 15.3721 25.8696L15.3721 26.1431C15.0075 26.6313 14.6592 26.8755 14.3271 26.8755C14.1676 26.8755 14.0407 26.8201 13.9463 26.7095C13.8519 26.5988 13.8031 26.41 13.7998 26.1431ZM13.7998 25.8257L13.7998 24.1216C13.3083 24.3169 12.9909 24.4552 12.8477 24.5366C12.5905 24.6799 12.4066 24.8296 12.2959 24.9858C12.1852 25.1421 12.1299 25.313 12.1299 25.4985C12.1299 25.7329 12.1999 25.9274 12.3398 26.082C12.4798 26.2367 12.641 26.314 12.8232 26.314C13.0706 26.314 13.3962 26.1512 13.7998 25.8257Z" fill-rule="evenodd"/>
<path clip-path="url(#TextBounds)" d="M17.0029 20.8452L17.0029 22.3149L18.0479 22.3149L18.0479 22.6567L17.0029 22.6567L17.0029 25.5571C17.0029 25.8468 17.0444 26.0422 17.1274 26.1431C17.2104 26.244 17.3171 26.2944 17.4473 26.2944C17.5547 26.2944 17.6589 26.2611 17.7598 26.1943C17.8607 26.1276 17.9388 26.0291 17.9941 25.8989L18.1846 25.8989C18.0706 26.2179 17.9095 26.458 17.7012 26.6191C17.4928 26.7803 17.278 26.8608 17.0566 26.8608C16.9069 26.8608 16.7604 26.8193 16.6172 26.7363C16.474 26.6533 16.3682 26.5345 16.2998 26.3799C16.2314 26.2253 16.1973 25.9868 16.1973 25.6646L16.1973 22.6567L15.4893 22.6567L15.4893 22.4956C15.6683 22.424 15.8514 22.3027 16.0386 22.1318C16.2257 21.9609 16.3926 21.7583 16.5391 21.5239C16.6139 21.4002 16.7181 21.174 16.8516 20.8452L17.0029 20.8452Z" fill-rule="evenodd"/>
<path clip-path="url(#TextBounds)" d="M22.4033 22.3149L22.4033 25.0249C22.4033 25.5425 22.4155 25.859 22.4399 25.9746C22.4644 26.0902 22.5034 26.1707 22.5571 26.2163C22.6108 26.2619 22.6735 26.2847 22.7451 26.2847C22.846 26.2847 22.96 26.257 23.0869 26.2017L23.1553 26.3726L21.8174 26.9243L21.5977 26.9243L21.5977 25.9771C21.2135 26.3937 20.9206 26.6558 20.7188 26.7632C20.5169 26.8706 20.3037 26.9243 20.0791 26.9243C19.8285 26.9243 19.6112 26.8519 19.4272 26.707C19.2433 26.5622 19.1156 26.3758 19.0439 26.1479C18.9723 25.9201 18.9365 25.5978 18.9365 25.1812L18.9365 23.1841C18.9365 22.9725 18.9137 22.826 18.8682 22.7446C18.8226 22.6632 18.755 22.6006 18.6655 22.5566C18.576 22.5127 18.4141 22.4924 18.1797 22.4956L18.1797 22.3149L19.7471 22.3149L19.7471 25.3081C19.7471 25.7248 19.8195 25.9982 19.9644 26.1284C20.1092 26.2586 20.2842 26.3237 20.4893 26.3237C20.6292 26.3237 20.7879 26.2798 20.9653 26.1919C21.1427 26.104 21.3535 25.9364 21.5977 25.689L21.5977 23.1548C21.5977 22.9009 21.5513 22.7292 21.4585 22.6396C21.3657 22.5501 21.1729 22.5021 20.8799 22.4956L20.8799 22.3149L22.4033 22.3149Z" fill-rule="evenodd"/>
<path clip-path="url(#TextBounds)" d="M24.791 22.1831L24.791 23.189C25.1654 22.5184 25.5495 22.1831 25.9434 22.1831C26.1224 22.1831 26.2705 22.2376 26.3877 22.3467C26.5049 22.4557 26.5635 22.5819 26.5635 22.7251C26.5635 22.8521 26.5212 22.9595 26.4365 23.0474C26.3519 23.1353 26.251 23.1792 26.1338 23.1792C26.0199 23.1792 25.8921 23.123 25.7505 23.0107C25.6089 22.8984 25.5039 22.8423 25.4355 22.8423C25.377 22.8423 25.3135 22.8748 25.2451 22.9399C25.0986 23.0734 24.9473 23.2931 24.791 23.5991L24.791 25.7427C24.791 25.9901 24.8219 26.1772 24.8838 26.3042C24.9261 26.3921 25.001 26.4653 25.1084 26.5239C25.2158 26.5825 25.3704 26.6118 25.5723 26.6118L25.5723 26.7876L23.2822 26.7876L23.2822 26.6118C23.5101 26.6118 23.6794 26.576 23.79 26.5044C23.8714 26.4523 23.9284 26.3693 23.9609 26.2554C23.9772 26.2 23.9854 26.0422 23.9854 25.7817L23.9854 24.0483C23.9854 23.5275 23.9748 23.2174 23.9536 23.1182C23.9325 23.0189 23.8934 22.9465 23.8364 22.9009C23.7795 22.8553 23.7087 22.8325 23.624 22.8325C23.5231 22.8325 23.4092 22.8569 23.2822 22.9058L23.2334 22.73L24.5859 22.1831L24.791 22.1831Z" fill-rule="evenodd"/>
<path clip-path="url(#TextBounds)" d="M26.4902 22.7593L27.8672 22.2026L28.0527 22.2026L28.0527 23.2476C28.2839 22.8537 28.5158 22.5778 28.7485 22.4199C28.9813 22.262 29.2262 22.1831 29.4834 22.1831C29.9326 22.1831 30.307 22.3589 30.6064 22.7104C30.9743 23.1401 31.1582 23.7 31.1582 24.3901C31.1582 25.1616 30.9368 25.7996 30.4941 26.3042C30.1296 26.7176 29.6706 26.9243 29.1172 26.9243C28.8763 26.9243 28.668 26.8901 28.4922 26.8218C28.362 26.7729 28.2155 26.6753 28.0527 26.5288L28.0527 27.8911C28.0527 28.1971 28.0715 28.3916 28.1089 28.4746C28.1463 28.5576 28.2114 28.6235 28.3042 28.6724C28.397 28.7212 28.5654 28.7456 28.8096 28.7456L28.8096 28.9263L26.4658 28.9263L26.4658 28.7456L26.5879 28.7456C26.7669 28.7489 26.9199 28.7147 27.0469 28.6431C27.1087 28.6073 27.1567 28.5495 27.1909 28.4697C27.2251 28.39 27.2422 28.1873 27.2422 27.8618L27.2422 23.6333C27.2422 23.3436 27.2292 23.1597 27.2031 23.0815C27.1771 23.0034 27.1356 22.9448 27.0786 22.9058C27.0216 22.8667 26.9443 22.8472 26.8467 22.8472C26.7686 22.8472 26.6693 22.87 26.5488 22.9155L26.4902 22.7593ZM28.0527 23.5356L28.0527 25.2056C28.0527 25.5669 28.0674 25.8045 28.0967 25.9185C28.1423 26.1073 28.2537 26.2733 28.4312 26.4165C28.6086 26.5597 28.8324 26.6313 29.1025 26.6313C29.4281 26.6313 29.6917 26.5044 29.8936 26.2505C30.1572 25.9185 30.2891 25.4513 30.2891 24.8491C30.2891 24.1655 30.1393 23.6398 29.8398 23.272C29.6315 23.0181 29.3841 22.8911 29.0977 22.8911C28.9414 22.8911 28.7868 22.9302 28.6338 23.0083C28.5166 23.0669 28.3229 23.2427 28.0527 23.5356Z" fill-rule="evenodd"/>
<path clip-path="url(#TextBounds)" d="M34.3467 26.1431C33.8877 26.4979 33.5996 26.703 33.4824 26.7583C33.3066 26.8397 33.1195 26.8804 32.9209 26.8804C32.6117 26.8804 32.3569 26.7746 32.1567 26.563C31.9565 26.3514 31.8564 26.0731 31.8564 25.728C31.8564 25.5099 31.9053 25.3211 32.0029 25.1616C32.1364 24.9403 32.3683 24.7319 32.6987 24.5366C33.0291 24.3413 33.5785 24.1037 34.3467 23.8237L34.3467 23.6479C34.3467 23.202 34.2759 22.896 34.1343 22.73C33.9927 22.564 33.7868 22.481 33.5166 22.481C33.3115 22.481 33.1488 22.5363 33.0283 22.647C32.9046 22.7576 32.8428 22.8846 32.8428 23.0278L32.8525 23.311C32.8525 23.4608 32.8143 23.5763 32.7378 23.6577C32.6613 23.7391 32.5612 23.7798 32.4375 23.7798C32.3171 23.7798 32.2186 23.7375 32.1421 23.6528C32.0656 23.5682 32.0273 23.4526 32.0273 23.3062C32.0273 23.0262 32.1706 22.769 32.457 22.5347C32.7435 22.3003 33.1455 22.1831 33.6631 22.1831C34.0602 22.1831 34.3857 22.2498 34.6396 22.3833C34.8317 22.4842 34.9733 22.6421 35.0645 22.8569C35.123 22.9969 35.1523 23.2834 35.1523 23.7163L35.1523 25.2349C35.1523 25.6613 35.1605 25.9225 35.1768 26.0186C35.193 26.1146 35.2199 26.1789 35.2573 26.2114C35.2948 26.244 35.3379 26.2603 35.3867 26.2603C35.4388 26.2603 35.4844 26.2489 35.5234 26.2261C35.5918 26.1838 35.7236 26.0649 35.9189 25.8696L35.9189 26.1431C35.5544 26.6313 35.2061 26.8755 34.874 26.8755C34.7145 26.8755 34.5876 26.8201 34.4932 26.7095C34.3988 26.5988 34.3499 26.41 34.3467 26.1431ZM34.3467 25.8257L34.3467 24.1216C33.8551 24.3169 33.5378 24.4552 33.3945 24.5366C33.1374 24.6799 32.9535 24.8296 32.8428 24.9858C32.7321 25.1421 32.6768 25.313 32.6768 25.4985C32.6768 25.7329 32.7467 25.9274 32.8867 26.082C33.0267 26.2367 33.1878 26.314 33.3701 26.314C33.6175 26.314 33.943 26.1512 34.3467 25.8257Z" fill-rule="evenodd"/>
<path clip-path="url(#TextBounds)" d="M37.5596 22.1831L37.5596 23.189C37.9339 22.5184 38.318 22.1831 38.7119 22.1831C38.891 22.1831 39.0391 22.2376 39.1562 22.3467C39.2734 22.4557 39.332 22.5819 39.332 22.7251C39.332 22.8521 39.2897 22.9595 39.2051 23.0474C39.1204 23.1353 39.0195 23.1792 38.9023 23.1792C38.7884 23.1792 38.6606 23.123 38.519 23.0107C38.3774 22.8984 38.2725 22.8423 38.2041 22.8423C38.1455 22.8423 38.082 22.8748 38.0137 22.9399C37.8672 23.0734 37.7158 23.2931 37.5596 23.5991L37.5596 25.7427C37.5596 25.9901 37.5905 26.1772 37.6523 26.3042C37.6947 26.3921 37.7695 26.4653 37.877 26.5239C37.9844 26.5825 38.139 26.6118 38.3408 26.6118L38.3408 26.7876L36.0508 26.7876L36.0508 26.6118C36.2786 26.6118 36.4479 26.576 36.5586 26.5044C36.64 26.4523 36.6969 26.3693 36.7295 26.2554C36.7458 26.2 36.7539 26.0422 36.7539 25.7817L36.7539 24.0483C36.7539 23.5275 36.7433 23.2174 36.7222 23.1182C36.701 23.0189 36.6619 22.9465 36.605 22.9009C36.548 22.8553 36.4772 22.8325 36.3926 22.8325C36.2917 22.8325 36.1777 22.8569 36.0508 22.9058L36.002 22.73L37.3545 22.1831L37.5596 22.1831Z" fill-rule="evenodd"/>
<path clip-path="url(#TextBounds)" d="M40.9043 19.8442L40.9043 24.2974L42.042 23.2573C42.2829 23.036 42.4229 22.896 42.4619 22.8374C42.488 22.7983 42.501 22.7593 42.501 22.7202C42.501 22.6551 42.4741 22.599 42.4204 22.5518C42.3667 22.5046 42.278 22.4777 42.1543 22.4712L42.1543 22.3149L44.0977 22.3149L44.0977 22.4712C43.8307 22.4777 43.6086 22.5184 43.4312 22.5933C43.2537 22.6681 43.0592 22.8016 42.8477 22.9937L41.7002 24.0532L42.8477 25.5034C43.1667 25.9038 43.3815 26.1577 43.4922 26.2651C43.6484 26.4181 43.7852 26.5174 43.9023 26.563C43.9837 26.5955 44.1253 26.6118 44.3271 26.6118L44.3271 26.7876L42.1543 26.7876L42.1543 26.6118C42.278 26.6086 42.3618 26.5898 42.4058 26.5557C42.4497 26.5215 42.4717 26.4735 42.4717 26.4116C42.4717 26.3368 42.4066 26.2163 42.2764 26.0503L40.9043 24.2974L40.9043 25.7817C40.9043 26.0715 40.9246 26.2619 40.9653 26.353C41.006 26.4442 41.0638 26.5093 41.1387 26.5483C41.2135 26.5874 41.3763 26.6086 41.627 26.6118L41.627 26.7876L39.3516 26.7876L39.3516 26.6118C39.5794 26.6118 39.7503 26.5841 39.8643 26.5288C39.9326 26.493 39.9847 26.4377 40.0205 26.3628C40.0693 26.2554 40.0938 26.0698 40.0938 25.8062L40.0938 21.7339C40.0938 21.2163 40.0824 20.8997 40.0596 20.7842C40.0368 20.6686 39.9993 20.5889 39.9473 20.5449C39.8952 20.501 39.8268 20.479 39.7422 20.479C39.6738 20.479 39.5713 20.5067 39.4346 20.562L39.3516 20.3911L40.6797 19.8442L40.9043 19.8442Z" fill-rule="evenodd"/>
</g>
</g>
</svg>
