<?xml version="1.0" encoding="UTF-8" standalone="no"?>
<!DOCTYPE svg PUBLIC "-//W3C//DTD SVG 1.1//EN" "http://www.w3.org/Graphics/SVG/1.1/DTD/svg11.dtd"
[
<!ATTLIST g
  xmlns:vectornator CDATA #FIXED "http://vectornator.io"
  vectornator:layerName CDATA #IMPLIED >
<!ATTLIST g
  xmlns:vectornator CDATA #FIXED "http://vectornator.io"
  vectornator:mask CDATA #IMPLIED >
<!ATTLIST text
  xmlns:vectornator CDATA #FIXED "http://vectornator.io"
  vectornator:width CDATA #IMPLIED >
<!ATTLIST text
  xmlns:vectornator CDATA #FIXED "http://vectornator.io"
  vectornator:text CDATA #IMPLIED >

<!ATTLIST path
  xmlns:vectornator CDATA #FIXED "http://vectornator.io"
  vectornator:blendMode CDATA #IMPLIED >
<!ATTLIST path
  xmlns:vectornator CDATA #FIXED "http://vectornator.io"
  vectornator:shadowColor CDATA #IMPLIED >
<!ATTLIST path
  xmlns:vectornator CDATA #FIXED "http://vectornator.io"
  vectornator:shadowOpacity CDATA #IMPLIED >
<!ATTLIST path
  xmlns:vectornator CDATA #FIXED "http://vectornator.io"
  vectornator:shadowRadius CDATA #IMPLIED >
<!ATTLIST path
  xmlns:vectornator CDATA #FIXED "http://vectornator.io"
  vectornator:shadowOffset CDATA #IMPLIED >
<!ATTLIST path
  xmlns:vectornator CDATA #FIXED "http://vectornator.io"
  vectornator:shadowAngle CDATA #IMPLIED >

<!ATTLIST image
  xmlns:vectornator CDATA #FIXED "http://vectornator.io"
  vectornator:blendMode CDATA #IMPLIED >
<!ATTLIST image
  xmlns:vectornator CDATA #FIXED "http://vectornator.io"
  vectornator:shadowColor CDATA #IMPLIED >
<!ATTLIST image
  xmlns:vectornator CDATA #FIXED "http://vectornator.io"
  vectornator:shadowOpacity CDATA #IMPLIED >
<!ATTLIST image
  xmlns:vectornator CDATA #FIXED "http://vectornator.io"
  vectornator:shadowRadius CDATA #IMPLIED >
<!ATTLIST image
  xmlns:vectornator CDATA #FIXED "http://vectornator.io"
  vectornator:shadowOffset CDATA #IMPLIED >
<!ATTLIST image
  xmlns:vectornator CDATA #FIXED "http://vectornator.io"
  vectornator:shadowAngle CDATA #IMPLIED >

<!ATTLIST g
  xmlns:vectornator CDATA #FIXED "http://vectornator.io"
  vectornator:blendMode CDATA #IMPLIED >
<!ATTLIST g
  xmlns:vectornator CDATA #FIXED "http://vectornator.io"
  vectornator:shadowColor CDATA #IMPLIED >
<!ATTLIST g
  xmlns:vectornator CDATA #FIXED "http://vectornator.io"
  vectornator:shadowOpacity CDATA #IMPLIED >
<!ATTLIST g
  xmlns:vectornator CDATA #FIXED "http://vectornator.io"
  vectornator:shadowRadius CDATA #IMPLIED >
<!ATTLIST g
  xmlns:vectornator CDATA #FIXED "http://vectornator.io"
  vectornator:shadowOffset CDATA #IMPLIED >
<!ATTLIST g
  xmlns:vectornator CDATA #FIXED "http://vectornator.io"
  vectornator:shadowAngle CDATA #IMPLIED >

<!ENTITY % SVG.filter.extra.content  "| feDropShadow" >
<!ELEMENT feDropShadow EMPTY>
<!ATTLIST feDropShadow
  xmlns:svg CDATA #FIXED "http://www.w3.org/Graphics/SVG/1.1/DTD/svg11.dtd"
  dx CDATA #IMPLIED>
<!ATTLIST feDropShadow
  xmlns:svg CDATA #FIXED "http://www.w3.org/Graphics/SVG/1.1/DTD/svg11.dtd"
  dy CDATA #IMPLIED>
<!ATTLIST feDropShadow
  xmlns:svg CDATA #FIXED "http://www.w3.org/Graphics/SVG/1.1/DTD/svg11.dtd"
  stdDeviation CDATA #IMPLIED>
<!ATTLIST feDropShadow
  xmlns:svg CDATA #FIXED "http://www.w3.org/Graphics/SVG/1.1/DTD/svg11.dtd"
  flood-opacity CDATA #IMPLIED>
<!ATTLIST feDropShadow
  xmlns:svg CDATA #FIXED "http://www.w3.org/Graphics/SVG/1.1/DTD/svg11.dtd"
  in CDATA #IMPLIED>
<!ATTLIST feDropShadow
  xmlns:svg CDATA #FIXED "http://www.w3.org/Graphics/SVG/1.1/DTD/svg11.dtd"
  result CDATA #IMPLIED>
<!ATTLIST feDropShadow
  xmlns:svg CDATA #FIXED "http://www.w3.org/Graphics/SVG/1.1/DTD/svg11.dtd"
  flood-color CDATA #IMPLIED>
]
>
<!-- Created with Vectornator (http://vectornator.io/) -->
<svg height="100%" stroke-miterlimit="10" style="fill-rule:nonzero;clip-rule:evenodd;stroke-linecap:round;stroke-linejoin:round;" version="1.1" viewBox="0 0 48 48" width="100%" xml:space="preserve" xmlns="http://www.w3.org/2000/svg" xmlns:vectornator="http://vectornator.io" xmlns:xlink="http://www.w3.org/1999/xlink">
<defs>
<clipPath id="TextBounds">
<rect height="19.6797" width="44" x="2" y="14.1602"/>
</clipPath>
</defs>
<g id="Layer-1" vectornator:layerName="Layer 1">
<path d="M1 1L47 1L47 47L1 47L1 1Z" fill="#609744" fill-rule="evenodd" opacity="1" stroke="#000000" stroke-linecap="round" stroke-linejoin="round" stroke-width="1.47"/>
<g fill="#000000" opacity="1" stroke="none">
<path clip-path="url(#TextBounds)" d="M13.8574 21.1602L12.4434 21.1602L10.6504 18.6836C10.5176 18.6888 10.4095 18.6914 10.3262 18.6914C10.2923 18.6914 10.2559 18.6908 10.2168 18.6895C10.1777 18.6882 10.1374 18.6862 10.0957 18.6836L10.0957 20.2227C10.0957 20.556 10.1322 20.763 10.2051 20.8438C10.304 20.9583 10.4525 21.0156 10.6504 21.0156L10.8574 21.0156L10.8574 21.1602L8.58789 21.1602L8.58789 21.0156L8.78711 21.0156C9.01107 21.0156 9.17122 20.9427 9.26758 20.7969C9.32227 20.7161 9.34961 20.5247 9.34961 20.2227L9.34961 16.8008C9.34961 16.4674 9.31315 16.2604 9.24023 16.1797C9.13867 16.0651 8.98763 16.0078 8.78711 16.0078L8.58789 16.0078L8.58789 15.8633L10.5176 15.8633C11.0801 15.8633 11.4948 15.9043 11.7617 15.9863C12.0286 16.0684 12.2552 16.2194 12.4414 16.4395C12.6276 16.6595 12.7207 16.9219 12.7207 17.2266C12.7207 17.5521 12.6146 17.8346 12.4023 18.0742C12.1901 18.3138 11.8613 18.4831 11.416 18.582L12.5098 20.1016C12.7598 20.4505 12.9746 20.6823 13.1543 20.7969C13.334 20.9115 13.5684 20.9844 13.8574 21.0156L13.8574 21.1602ZM10.0957 18.4375C10.1452 18.4375 10.1882 18.4382 10.2246 18.4395C10.2611 18.4408 10.291 18.4414 10.3145 18.4414C10.8197 18.4414 11.2005 18.332 11.457 18.1133C11.7135 17.8945 11.8418 17.6159 11.8418 17.2773C11.8418 16.9466 11.7383 16.6777 11.5312 16.4707C11.3242 16.2637 11.0501 16.1602 10.709 16.1602C10.5579 16.1602 10.3535 16.1849 10.0957 16.2344L10.0957 18.4375Z" fill-rule="evenodd"/>
<path clip-path="url(#TextBounds)" d="M14.6387 18.9297C14.6361 19.4609 14.765 19.8776 15.0254 20.1797C15.2858 20.4818 15.5918 20.6328 15.9434 20.6328C16.1777 20.6328 16.3815 20.5684 16.5547 20.4395C16.7279 20.3105 16.873 20.0898 16.9902 19.7773L17.1113 19.8555C17.0566 20.2122 16.8978 20.5371 16.6348 20.8301C16.3717 21.123 16.0423 21.2695 15.6465 21.2695C15.2168 21.2695 14.849 21.1022 14.543 20.7676C14.237 20.4329 14.084 19.9831 14.084 19.418C14.084 18.806 14.2409 18.3288 14.5547 17.9863C14.8685 17.6439 15.2624 17.4727 15.7363 17.4727C16.1374 17.4727 16.4668 17.6048 16.7246 17.8691C16.9824 18.1335 17.1113 18.487 17.1113 18.9297L14.6387 18.9297ZM14.6387 18.7031L16.2949 18.7031C16.2819 18.474 16.2546 18.3125 16.2129 18.2188C16.1478 18.0729 16.0508 17.9583 15.9219 17.875C15.793 17.7917 15.6582 17.75 15.5176 17.75C15.3014 17.75 15.1081 17.834 14.9375 18.002C14.7669 18.1699 14.6673 18.4036 14.6387 18.7031Z" fill-rule="evenodd"/>
<path clip-path="url(#TextBounds)" d="M18.6465 15.6055L18.6465 19.168L19.5566 18.3359C19.7493 18.1589 19.8613 18.0469 19.8926 18C19.9134 17.9687 19.9238 17.9375 19.9238 17.9062C19.9238 17.8542 19.9023 17.8092 19.8594 17.7715C19.8164 17.7337 19.7454 17.7122 19.6465 17.707L19.6465 17.582L21.2012 17.582L21.2012 17.707C20.9876 17.7122 20.8099 17.7448 20.668 17.8047C20.526 17.8646 20.3704 17.9714 20.2012 18.125L19.2832 18.9727L20.2012 20.1328C20.4564 20.4531 20.6283 20.6562 20.7168 20.7422C20.8418 20.8646 20.9512 20.944 21.0449 20.9805C21.11 21.0065 21.2233 21.0195 21.3848 21.0195L21.3848 21.1602L19.6465 21.1602L19.6465 21.0195C19.7454 21.0169 19.8125 21.002 19.8477 20.9746C19.8828 20.9473 19.9004 20.9089 19.9004 20.8594C19.9004 20.7995 19.8483 20.7031 19.7441 20.5703L18.6465 19.168L18.6465 20.3555C18.6465 20.5872 18.6628 20.7396 18.6953 20.8125C18.7279 20.8854 18.7741 20.9375 18.834 20.9688C18.8939 21 19.0241 21.0169 19.2246 21.0195L19.2246 21.1602L17.4043 21.1602L17.4043 21.0195C17.5866 21.0195 17.7233 20.9974 17.8145 20.9531C17.8691 20.9245 17.9108 20.8802 17.9395 20.8203C17.9785 20.7344 17.998 20.5859 17.998 20.375L17.998 17.1172C17.998 16.7031 17.9889 16.4499 17.9707 16.3574C17.9525 16.265 17.9225 16.2012 17.8809 16.166C17.8392 16.1309 17.7845 16.1133 17.7168 16.1133C17.6621 16.1133 17.5801 16.1354 17.4707 16.1797L17.4043 16.043L18.4668 15.6055L18.6465 15.6055Z" fill-rule="evenodd"/>
<path clip-path="url(#TextBounds)" d="M22.6348 17.4766L22.6348 18.2812C22.9342 17.7448 23.2415 17.4766 23.5566 17.4766C23.6999 17.4766 23.8184 17.5202 23.9121 17.6074C24.0059 17.6947 24.0527 17.7956 24.0527 17.9102C24.0527 18.0117 24.0189 18.0977 23.9512 18.168C23.8835 18.2383 23.8027 18.2734 23.709 18.2734C23.6178 18.2734 23.5156 18.2285 23.4023 18.1387C23.2891 18.0488 23.2051 18.0039 23.1504 18.0039C23.1035 18.0039 23.0527 18.0299 22.998 18.082C22.8809 18.1888 22.7598 18.3646 22.6348 18.6094L22.6348 20.3242C22.6348 20.5221 22.6595 20.6719 22.709 20.7734C22.7428 20.8438 22.8027 20.9023 22.8887 20.9492C22.9746 20.9961 23.0983 21.0195 23.2598 21.0195L23.2598 21.1602L21.4277 21.1602L21.4277 21.0195C21.61 21.0195 21.7454 20.9909 21.834 20.9336C21.8991 20.8919 21.9447 20.8255 21.9707 20.7344C21.9837 20.6901 21.9902 20.5638 21.9902 20.3555L21.9902 18.9688C21.9902 18.5521 21.9818 18.304 21.9648 18.2246C21.9479 18.1452 21.9167 18.0872 21.8711 18.0508C21.8255 18.0143 21.7689 17.9961 21.7012 17.9961C21.6204 17.9961 21.5293 18.0156 21.4277 18.0547L21.3887 17.9141L22.4707 17.4766L22.6348 17.4766Z" fill-rule="evenodd"/>
<path clip-path="url(#TextBounds)" d="M24.8535 18.9297C24.8509 19.4609 24.9798 19.8776 25.2402 20.1797C25.5007 20.4818 25.8066 20.6328 26.1582 20.6328C26.3926 20.6328 26.5964 20.5684 26.7695 20.4395C26.9427 20.3105 27.0879 20.0898 27.2051 19.7773L27.3262 19.8555C27.2715 20.2122 27.1126 20.5371 26.8496 20.8301C26.5866 21.123 26.2572 21.2695 25.8613 21.2695C25.4316 21.2695 25.0638 21.1022 24.7578 20.7676C24.4518 20.4329 24.2988 19.9831 24.2988 19.418C24.2988 18.806 24.4557 18.3288 24.7695 17.9863C25.0833 17.6439 25.4772 17.4727 25.9512 17.4727C26.3522 17.4727 26.6816 17.6048 26.9395 17.8691C27.1973 18.1335 27.3262 18.487 27.3262 18.9297L24.8535 18.9297ZM24.8535 18.7031L26.5098 18.7031C26.4967 18.474 26.4694 18.3125 26.4277 18.2188C26.3626 18.0729 26.2656 17.9583 26.1367 17.875C26.0078 17.7917 25.873 17.75 25.7324 17.75C25.5163 17.75 25.3229 17.834 25.1523 18.002C24.9818 18.1699 24.8822 18.4036 24.8535 18.7031Z" fill-rule="evenodd"/>
<path clip-path="url(#TextBounds)" d="M29.8301 20.6445C29.4629 20.9284 29.2324 21.0924 29.1387 21.1367C28.998 21.2018 28.8483 21.2344 28.6895 21.2344C28.4421 21.2344 28.2383 21.1497 28.0781 20.9805C27.918 20.8112 27.8379 20.5885 27.8379 20.3125C27.8379 20.138 27.877 19.987 27.9551 19.8594C28.0618 19.6823 28.2474 19.5156 28.5117 19.3594C28.776 19.2031 29.2155 19.013 29.8301 18.7891L29.8301 18.6484C29.8301 18.2917 29.7734 18.0469 29.6602 17.9141C29.5469 17.7812 29.3822 17.7148 29.166 17.7148C29.002 17.7148 28.8717 17.7591 28.7754 17.8477C28.6764 17.9362 28.627 18.0378 28.627 18.1523L28.6348 18.3789C28.6348 18.4987 28.6042 18.5911 28.543 18.6562C28.4818 18.7214 28.4017 18.7539 28.3027 18.7539C28.2064 18.7539 28.1276 18.7201 28.0664 18.6523C28.0052 18.5846 27.9746 18.4922 27.9746 18.375C27.9746 18.151 28.0892 17.9453 28.3184 17.7578C28.5475 17.5703 28.8691 17.4766 29.2832 17.4766C29.6009 17.4766 29.8613 17.5299 30.0645 17.6367C30.2181 17.7174 30.3314 17.8437 30.4043 18.0156C30.4512 18.1276 30.4746 18.3568 30.4746 18.7031L30.4746 19.918C30.4746 20.2591 30.4811 20.4681 30.4941 20.5449C30.5072 20.6217 30.5286 20.6732 30.5586 20.6992C30.5885 20.7253 30.623 20.7383 30.6621 20.7383C30.7038 20.7383 30.7402 20.7292 30.7715 20.7109C30.8262 20.6771 30.9316 20.582 31.0879 20.4258L31.0879 20.6445C30.7962 21.0352 30.5176 21.2305 30.252 21.2305C30.1243 21.2305 30.0228 21.1862 29.9473 21.0977C29.8717 21.0091 29.8327 20.8581 29.8301 20.6445ZM29.8301 20.3906L29.8301 19.0273C29.4368 19.1836 29.1829 19.2943 29.0684 19.3594C28.8626 19.474 28.7155 19.5937 28.627 19.7188C28.5384 19.8438 28.4941 19.9805 28.4941 20.1289C28.4941 20.3164 28.5501 20.472 28.6621 20.5957C28.7741 20.7194 28.903 20.7812 29.0488 20.7812C29.2467 20.7812 29.5072 20.651 29.8301 20.3906Z" fill-rule="evenodd"/>
<path clip-path="url(#TextBounds)" d="M32.3926 16.4062L32.3926 17.582L33.2285 17.582L33.2285 17.8555L32.3926 17.8555L32.3926 20.1758C32.3926 20.4076 32.4258 20.5638 32.4922 20.6445C32.5586 20.7253 32.6439 20.7656 32.748 20.7656C32.834 20.7656 32.9173 20.7389 32.998 20.6855C33.0788 20.6322 33.1413 20.5534 33.1855 20.4492L33.3379 20.4492C33.2467 20.7044 33.1178 20.8965 32.9512 21.0254C32.7845 21.1543 32.6126 21.2188 32.4355 21.2188C32.3158 21.2188 32.1986 21.1855 32.084 21.1191C31.9694 21.0527 31.8848 20.9577 31.8301 20.834C31.7754 20.7103 31.748 20.5195 31.748 20.2617L31.748 17.8555L31.1816 17.8555L31.1816 17.7266C31.3249 17.6693 31.4714 17.5723 31.6211 17.4355C31.7708 17.2988 31.9043 17.1367 32.0215 16.9492C32.0814 16.8503 32.1647 16.6693 32.2715 16.4062L32.3926 16.4062Z" fill-rule="evenodd"/>
<path clip-path="url(#TextBounds)" d="M34.4863 15.6055C34.5957 15.6055 34.6888 15.6439 34.7656 15.7207C34.8424 15.7975 34.8809 15.8906 34.8809 16C34.8809 16.1094 34.8424 16.2031 34.7656 16.2812C34.6888 16.3594 34.5957 16.3984 34.4863 16.3984C34.377 16.3984 34.2832 16.3594 34.2051 16.2812C34.127 16.2031 34.0879 16.1094 34.0879 16C34.0879 15.8906 34.1263 15.7975 34.2031 15.7207C34.2799 15.6439 34.3743 15.6055 34.4863 15.6055ZM34.8105 17.4766L34.8105 20.3516C34.8105 20.5755 34.8268 20.7246 34.8594 20.7988C34.8919 20.873 34.9401 20.9284 35.0039 20.9648C35.0677 21.0013 35.1842 21.0195 35.3535 21.0195L35.3535 21.1602L33.6152 21.1602L33.6152 21.0195C33.7897 21.0195 33.9069 21.0026 33.9668 20.9688C34.0267 20.9349 34.0742 20.8789 34.1094 20.8008C34.1445 20.7227 34.1621 20.5729 34.1621 20.3516L34.1621 18.9727C34.1621 18.5846 34.1504 18.3333 34.127 18.2188C34.1087 18.1354 34.0801 18.0775 34.041 18.0449C34.002 18.0124 33.9486 17.9961 33.8809 17.9961C33.8079 17.9961 33.7194 18.0156 33.6152 18.0547L33.5605 17.9141L34.6387 17.4766L34.8105 17.4766Z" fill-rule="evenodd"/>
<path clip-path="url(#TextBounds)" d="M35.6152 17.582L37.2988 17.582L37.2988 17.7266L37.1895 17.7266C37.0879 17.7266 37.0104 17.7513 36.957 17.8008C36.9036 17.8503 36.877 17.9167 36.877 18C36.877 18.0911 36.9043 18.1992 36.959 18.3242L37.791 20.3008L38.627 18.25C38.6868 18.1042 38.7168 17.9935 38.7168 17.918C38.7168 17.8815 38.7064 17.8516 38.6855 17.8281C38.6569 17.7891 38.6204 17.7624 38.5762 17.748C38.5319 17.7337 38.4421 17.7266 38.3066 17.7266L38.3066 17.582L39.4746 17.582L39.4746 17.7266C39.3392 17.737 39.2454 17.7643 39.1934 17.8086C39.1022 17.8867 39.0202 18.0169 38.9473 18.1992L37.6777 21.2695L37.5176 21.2695L36.2402 18.25C36.1829 18.1094 36.1283 18.0085 36.0762 17.9473C36.0241 17.8861 35.9577 17.8346 35.877 17.793C35.8327 17.7695 35.7454 17.7474 35.6152 17.7266L35.6152 17.582Z" fill-rule="evenodd"/>
<path clip-path="url(#TextBounds)" d="M23.2207 25.082L23.2207 26.9141L23.0762 26.9141C23.0293 26.5625 22.9453 26.2826 22.8242 26.0742C22.7031 25.8659 22.5306 25.7005 22.3066 25.5781C22.0827 25.4557 21.8509 25.3945 21.6113 25.3945C21.3405 25.3945 21.1165 25.4772 20.9395 25.6426C20.7624 25.8079 20.6738 25.9961 20.6738 26.207C20.6738 26.3685 20.7298 26.5156 20.8418 26.6484C21.0033 26.8438 21.3874 27.1042 21.9941 27.4297C22.4889 27.6953 22.8268 27.8991 23.0078 28.041C23.1888 28.1829 23.3281 28.3503 23.4258 28.543C23.5234 28.7357 23.5723 28.9375 23.5723 29.1484C23.5723 29.5495 23.4167 29.8952 23.1055 30.1855C22.7943 30.4759 22.3939 30.6211 21.9043 30.6211C21.7507 30.6211 21.6061 30.6094 21.4707 30.5859C21.39 30.5729 21.2227 30.5254 20.9688 30.4434C20.7148 30.3613 20.554 30.3203 20.4863 30.3203C20.4212 30.3203 20.3698 30.3398 20.332 30.3789C20.2943 30.418 20.2663 30.4987 20.248 30.6211L20.1035 30.6211L20.1035 28.8047L20.248 28.8047C20.3158 29.1849 20.4069 29.4694 20.5215 29.6582C20.6361 29.847 20.8112 30.0039 21.0469 30.1289C21.2826 30.2539 21.541 30.3164 21.8223 30.3164C22.1478 30.3164 22.4049 30.2305 22.5938 30.0586C22.7826 29.8867 22.877 29.6836 22.877 29.4492C22.877 29.319 22.8411 29.1875 22.7695 29.0547C22.6979 28.9219 22.5866 28.7982 22.4355 28.6836C22.334 28.6055 22.0566 28.4395 21.6035 28.1855C21.1504 27.9316 20.8281 27.7292 20.6367 27.5781C20.4453 27.4271 20.3001 27.2604 20.2012 27.0781C20.1022 26.8958 20.0527 26.6953 20.0527 26.4766C20.0527 26.0964 20.1986 25.7689 20.4902 25.4941C20.7819 25.2194 21.153 25.082 21.6035 25.082C21.8848 25.082 22.1829 25.151 22.498 25.2891C22.6439 25.3542 22.7467 25.3867 22.8066 25.3867C22.8743 25.3867 22.9297 25.3665 22.9727 25.3262C23.0156 25.2858 23.0501 25.2044 23.0762 25.082L23.2207 25.082Z" fill-rule="evenodd"/>
<path clip-path="url(#TextBounds)" d="M25.291 25.7461L25.291 26.9219L26.127 26.9219L26.127 27.1953L25.291 27.1953L25.291 29.5156C25.291 29.7474 25.3242 29.9036 25.3906 29.9844C25.457 30.0651 25.5423 30.1055 25.6465 30.1055C25.7324 30.1055 25.8158 30.0788 25.8965 30.0254C25.9772 29.972 26.0397 29.8932 26.084 29.7891L26.2363 29.7891C26.1452 30.0443 26.0163 30.2363 25.8496 30.3652C25.6829 30.4941 25.5111 30.5586 25.334 30.5586C25.2142 30.5586 25.097 30.5254 24.9824 30.459C24.8678 30.3926 24.7832 30.2975 24.7285 30.1738C24.6738 30.0501 24.6465 29.8594 24.6465 29.6016L24.6465 27.1953L24.0801 27.1953L24.0801 27.0664C24.2233 27.0091 24.3698 26.9121 24.5195 26.7754C24.6693 26.6387 24.8027 26.4766 24.9199 26.2891C24.9798 26.1901 25.0632 26.0091 25.1699 25.7461L25.291 25.7461Z" fill-rule="evenodd"/>
<path clip-path="url(#TextBounds)" d="M27.3848 24.9453C27.4941 24.9453 27.5872 24.9837 27.6641 25.0605C27.7409 25.1374 27.7793 25.2305 27.7793 25.3398C27.7793 25.4492 27.7409 25.543 27.6641 25.6211C27.5872 25.6992 27.4941 25.7383 27.3848 25.7383C27.2754 25.7383 27.1816 25.6992 27.1035 25.6211C27.0254 25.543 26.9863 25.4492 26.9863 25.3398C26.9863 25.2305 27.0247 25.1374 27.1016 25.0605C27.1784 24.9837 27.2728 24.9453 27.3848 24.9453ZM27.709 26.8164L27.709 29.6914C27.709 29.9154 27.7253 30.0645 27.7578 30.1387C27.7904 30.2129 27.8385 30.2682 27.9023 30.3047C27.9661 30.3411 28.0827 30.3594 28.252 30.3594L28.252 30.5L26.5137 30.5L26.5137 30.3594C26.6882 30.3594 26.8053 30.3424 26.8652 30.3086C26.9251 30.2747 26.9727 30.2188 27.0078 30.1406C27.043 30.0625 27.0605 29.9128 27.0605 29.6914L27.0605 28.3125C27.0605 27.9245 27.0488 27.6732 27.0254 27.5586C27.0072 27.4753 26.9785 27.4173 26.9395 27.3848C26.9004 27.3522 26.847 27.3359 26.7793 27.3359C26.7064 27.3359 26.6178 27.3555 26.5137 27.3945L26.459 27.2539L27.5371 26.8164L27.709 26.8164Z" fill-rule="evenodd"/>
</g>
</g>
</svg>
