<?xml version="1.0" encoding="UTF-8" standalone="no"?>
<!DOCTYPE svg PUBLIC "-//W3C//DTD SVG 1.1//EN" "http://www.w3.org/Graphics/SVG/1.1/DTD/svg11.dtd">

<!-- Created with Vectornator (http://vectornator.io/) -->
<svg height="100%" stroke-miterlimit="10" style="fill-rule:nonzero;clip-rule:evenodd;stroke-linecap:round;stroke-linejoin:round;" version="1.1" viewBox="0 0 48 48" width="100%" xml:space="preserve" xmlns="http://www.w3.org/2000/svg" xmlns:vectornator="http://vectornator.io" xmlns:xlink="http://www.w3.org/1999/xlink">
<metadata>
<vectornator:setting key="IsTimeLapseWatermarkDisabled" value="false"/>
<vectornator:setting key="UndoHistoryDisabled" value="true"/>
<vectornator:setting key="VNDimensionsVisible" value="true"/>
<vectornator:setting key="VNSnapToGuides" value="true"/>
<vectornator:setting key="WDCMYKEnabledKey" value="false"/>
<vectornator:setting key="WDDisplayWhiteBackground" value="false"/>
<vectornator:setting key="WDDynamicGuides" value="false"/>
<vectornator:setting key="WDGuidesVisible" value="true"/>
<vectornator:setting key="WDIsolateActiveLayer" value="false"/>
<vectornator:setting key="WDOutlineMode" value="false"/>
<vectornator:setting key="WDRulersVisible" value="true"/>
<vectornator:setting key="WDSnapToEdges" value="false"/>
<vectornator:setting key="WDSnapToGrid" value="false"/>
<vectornator:setting key="WDSnapToPoints" value="false"/>
<vectornator:setting key="WDUnits" value="Pixels"/>
</metadata>
<defs>
<clipPath id="TextBounds">
<rect height="25.9346" width="40.9951" x="3.50244" y="11.0327"/>
</clipPath>
</defs>
<g id="Layer-1" vectornator:layerName="Layer 1">
<path d="M1 1L47 1L47 47L1 47L1 1Z" fill="#609744" fill-rule="evenodd" opacity="1" stroke="#000000" stroke-linecap="round" stroke-linejoin="round" stroke-width="1.47"/>
<g fill="#000000" opacity="1" stroke="none">
<path clip-path="url(#TextBounds)" d="M10.5212 13.583L10.5212 16.1021L10.3225 16.1021C10.2581 15.6187 10.1426 15.2337 9.97607 14.9473C9.80957 14.6608 9.57235 14.4334 9.2644 14.2651C8.95646 14.0968 8.63778 14.0127 8.30835 14.0127C7.93595 14.0127 7.62801 14.1264 7.38452 14.3538C7.14103 14.5811 7.01929 14.8398 7.01929 15.1299C7.01929 15.3519 7.09627 15.5542 7.25024 15.7368C7.47225 16.0054 8.00041 16.3634 8.83472 16.811C9.51506 17.1763 9.97965 17.4565 10.2285 17.6516C10.4774 17.8468 10.6689 18.0768 10.8032 18.3418C10.9375 18.6068 11.0046 18.8843 11.0046 19.1743C11.0046 19.7257 10.7907 20.2011 10.3628 20.6003C9.9349 20.9996 9.38436 21.1992 8.71118 21.1992C8.49992 21.1992 8.30119 21.1831 8.11499 21.1509C8.00399 21.133 7.77393 21.0676 7.4248 20.9548C7.07568 20.842 6.85457 20.7856 6.76147 20.7856C6.67196 20.7856 6.60124 20.8125 6.54932 20.8662C6.4974 20.9199 6.4589 21.0309 6.43384 21.1992L6.23511 21.1992L6.23511 18.7017L6.43384 18.7017C6.52694 19.2244 6.65226 19.6156 6.80981 19.8752C6.96737 20.1348 7.20817 20.3506 7.53223 20.5225C7.85628 20.6943 8.21167 20.7803 8.59839 20.7803C9.04598 20.7803 9.39958 20.6621 9.65918 20.4258C9.91878 20.1895 10.0486 19.9102 10.0486 19.5879C10.0486 19.4089 9.99935 19.228 9.90088 19.0454C9.80241 18.8628 9.64933 18.6927 9.44165 18.5352C9.302 18.4277 8.92065 18.1995 8.29761 17.8503C7.67456 17.5012 7.23145 17.2228 6.96826 17.0151C6.70508 16.8075 6.50545 16.5783 6.36938 16.3276C6.23332 16.077 6.16528 15.8013 6.16528 15.5005C6.16528 14.9777 6.3658 14.5274 6.76685 14.1497C7.16789 13.7719 7.67814 13.583 8.29761 13.583C8.68433 13.583 9.09432 13.6779 9.52759 13.8677C9.72811 13.9572 9.86955 14.002 9.9519 14.002C10.045 14.002 10.1211 13.9742 10.1802 13.9187C10.2393 13.8632 10.2867 13.7513 10.3225 13.583L10.5212 13.583Z" fill-rule="evenodd"/>
<path clip-path="url(#TextBounds)" d="M11.5847 16.6016L13.0994 15.9893L13.3035 15.9893L13.3035 17.1387C13.5577 16.7054 13.8128 16.4019 14.0688 16.2283C14.3249 16.0546 14.5943 15.9678 14.8772 15.9678C15.3713 15.9678 15.7831 16.1611 16.1125 16.5479C16.5172 17.0205 16.7195 17.6364 16.7195 18.3955C16.7195 19.2441 16.476 19.946 15.989 20.501C15.588 20.9557 15.0831 21.1831 14.4744 21.1831C14.2094 21.1831 13.9802 21.1455 13.7869 21.0703C13.6436 21.0166 13.4825 20.9092 13.3035 20.748L13.3035 22.2466C13.3035 22.5832 13.3241 22.7971 13.3652 22.8884C13.4064 22.9797 13.478 23.0522 13.5801 23.106C13.6821 23.1597 13.8674 23.1865 14.136 23.1865L14.136 23.3853L11.5579 23.3853L11.5579 23.1865L11.6921 23.1865C11.8891 23.1901 12.0574 23.1525 12.197 23.0737C12.2651 23.0343 12.3179 22.9708 12.3555 22.8831C12.3931 22.7953 12.4119 22.5724 12.4119 22.2144L12.4119 17.563C12.4119 17.2443 12.3975 17.042 12.3689 16.9561C12.3403 16.8701 12.2946 16.8057 12.2319 16.7627C12.1693 16.7197 12.0842 16.6982 11.9768 16.6982C11.8909 16.6982 11.7817 16.7233 11.6492 16.7734L11.5847 16.6016ZM13.3035 17.4556L13.3035 19.2925C13.3035 19.6899 13.3196 19.9513 13.3518 20.0767C13.4019 20.2843 13.5246 20.467 13.7197 20.6245C13.9149 20.7821 14.1611 20.8608 14.4583 20.8608C14.8163 20.8608 15.1064 20.7212 15.3284 20.4419C15.6184 20.0767 15.7634 19.5628 15.7634 18.9004C15.7634 18.1484 15.5987 17.5701 15.2693 17.1655C15.0401 16.8862 14.768 16.7466 14.4529 16.7466C14.281 16.7466 14.1109 16.7896 13.9426 16.8755C13.8137 16.9399 13.6007 17.1333 13.3035 17.4556Z" fill-rule="evenodd"/>
<path clip-path="url(#TextBounds)" d="M18.2664 17.9658C18.2628 18.6963 18.44 19.2692 18.7981 19.6846C19.1562 20.0999 19.5769 20.3076 20.0603 20.3076C20.3826 20.3076 20.6628 20.219 20.9009 20.0417C21.139 19.8645 21.3386 19.561 21.4998 19.1313L21.6663 19.2388C21.5911 19.7293 21.3726 20.176 21.011 20.5789C20.6493 20.9817 20.1964 21.1831 19.6521 21.1831C19.0613 21.1831 18.5555 20.953 18.1348 20.4929C17.714 20.0328 17.5037 19.4142 17.5037 18.6372C17.5037 17.7957 17.7194 17.1396 18.1509 16.6687C18.5824 16.1978 19.1239 15.9624 19.7756 15.9624C20.3271 15.9624 20.78 16.1441 21.1345 16.5076C21.489 16.871 21.6663 17.3571 21.6663 17.9658L18.2664 17.9658ZM18.2664 17.6543L20.5437 17.6543C20.5258 17.3392 20.4882 17.1172 20.4309 16.9883C20.3414 16.7878 20.208 16.6302 20.0308 16.5156C19.8535 16.401 19.6682 16.3438 19.4749 16.3438C19.1777 16.3438 18.9118 16.4592 18.6772 16.6902C18.4427 16.9211 18.3057 17.2425 18.2664 17.6543Z" fill-rule="evenodd"/>
<path clip-path="url(#TextBounds)" d="M23.5676 13.3896C23.7216 13.3896 23.8523 13.4434 23.9597 13.5508C24.0671 13.6582 24.1208 13.7889 24.1208 13.9429C24.1208 14.0933 24.0671 14.2222 23.9597 14.3296C23.8523 14.437 23.7216 14.4907 23.5676 14.4907C23.4172 14.4907 23.2883 14.437 23.1809 14.3296C23.0735 14.2222 23.0198 14.0933 23.0198 13.9429C23.0198 13.7889 23.0735 13.6582 23.1809 13.5508C23.2883 13.4434 23.4172 13.3896 23.5676 13.3896ZM24.0295 15.9678L24.0295 20.9199C24.0295 21.7614 23.8505 22.3862 23.4924 22.7944C23.1344 23.2026 22.6689 23.4067 22.0959 23.4067C21.7701 23.4067 21.5284 23.3477 21.3708 23.2295C21.2133 23.1113 21.1345 22.9896 21.1345 22.8643C21.1345 22.7389 21.1784 22.6315 21.2661 22.542C21.3538 22.4525 21.4568 22.4077 21.575 22.4077C21.6681 22.4077 21.7629 22.431 21.8596 22.4775C21.9205 22.5026 22.0378 22.593 22.2114 22.7488C22.3851 22.9045 22.531 22.9824 22.6492 22.9824C22.7351 22.9824 22.8193 22.9493 22.9016 22.8831C22.984 22.8168 23.0448 22.7058 23.0842 22.55C23.1236 22.3943 23.1433 22.0568 23.1433 21.5376L23.1433 18.0356C23.1433 17.495 23.1272 17.1476 23.095 16.9937C23.0699 16.8755 23.0305 16.794 22.9768 16.7493C22.9231 16.7045 22.8497 16.6821 22.7566 16.6821C22.6563 16.6821 22.5346 16.709 22.3914 16.7627L22.3162 16.5693L23.7986 15.9678L24.0295 15.9678Z" fill-rule="evenodd"/>
<path clip-path="url(#TextBounds)" d="M28.8528 20.4795C28.6129 20.7301 28.3783 20.9101 28.1492 21.0193C27.92 21.1285 27.6729 21.1831 27.408 21.1831C26.8708 21.1831 26.4018 20.9584 26.0007 20.509C25.5997 20.0597 25.3992 19.4823 25.3992 18.7769C25.3992 18.0715 25.6212 17.426 26.0652 16.8406C26.5092 16.2551 27.0803 15.9624 27.7786 15.9624C28.2118 15.9624 28.5699 16.1003 28.8528 16.376L28.8528 15.4683C28.8528 14.9061 28.8394 14.5605 28.8125 14.4316C28.7856 14.3027 28.7436 14.215 28.6863 14.1685C28.629 14.1219 28.5574 14.0986 28.4714 14.0986C28.3783 14.0986 28.2548 14.1273 28.1008 14.1846L28.031 13.9966L29.4973 13.395L29.739 13.395L29.739 19.083C29.739 19.6595 29.7524 20.0113 29.7793 20.1384C29.8062 20.2655 29.8491 20.3542 29.9082 20.4043C29.9673 20.4544 30.0362 20.4795 30.115 20.4795C30.2117 20.4795 30.3406 20.4491 30.5017 20.3882L30.5608 20.5762L29.0999 21.1831L28.8528 21.1831L28.8528 20.4795ZM28.8528 20.1035L28.8528 17.5684C28.8313 17.3249 28.7668 17.1029 28.6594 16.9023C28.552 16.7018 28.4097 16.5505 28.2324 16.4485C28.0552 16.3464 27.8824 16.2954 27.7141 16.2954C27.399 16.2954 27.1179 16.4368 26.8708 16.7197C26.545 17.0921 26.3821 17.6364 26.3821 18.3525C26.3821 19.0758 26.5396 19.63 26.8547 20.0149C27.1698 20.3998 27.5208 20.5923 27.9075 20.5923C28.2333 20.5923 28.5484 20.4294 28.8528 20.1035Z" fill-rule="evenodd"/>
<path clip-path="url(#TextBounds)" d="M31.7048 17.9658C31.7013 18.6963 31.8785 19.2692 32.2366 19.6846C32.5946 20.0999 33.0154 20.3076 33.4988 20.3076C33.821 20.3076 34.1012 20.219 34.3394 20.0417C34.5775 19.8645 34.7771 19.561 34.9382 19.1313L35.1047 19.2388C35.0295 19.7293 34.8111 20.176 34.4495 20.5789C34.0878 20.9817 33.6348 21.1831 33.0906 21.1831C32.4998 21.1831 31.994 20.953 31.5732 20.4929C31.1525 20.0328 30.9421 19.4142 30.9421 18.6372C30.9421 17.7957 31.1579 17.1396 31.5894 16.6687C32.0208 16.1978 32.5624 15.9624 33.2141 15.9624C33.7655 15.9624 34.2185 16.1441 34.573 16.5076C34.9275 16.871 35.1047 17.3571 35.1047 17.9658L31.7048 17.9658ZM31.7048 17.6543L33.9822 17.6543C33.9643 17.3392 33.9267 17.1172 33.8694 16.9883C33.7799 16.7878 33.6465 16.6302 33.4692 16.5156C33.292 16.401 33.1067 16.3438 32.9133 16.3438C32.6161 16.3438 32.3503 16.4592 32.1157 16.6902C31.8812 16.9211 31.7442 17.2425 31.7048 17.6543Z" fill-rule="evenodd"/>
<path clip-path="url(#TextBounds)" d="M37.1995 15.9678L37.1995 17.0742C37.6112 16.3366 38.0338 15.9678 38.467 15.9678C38.664 15.9678 38.8269 16.0278 38.9558 16.1477C39.0847 16.2677 39.1492 16.4064 39.1492 16.564C39.1492 16.7036 39.1026 16.8218 39.0095 16.9185C38.9164 17.0151 38.8054 17.0635 38.6765 17.0635C38.5512 17.0635 38.4106 17.0017 38.2549 16.8782C38.0991 16.7546 37.9836 16.6929 37.9084 16.6929C37.844 16.6929 37.7742 16.7287 37.699 16.8003C37.5378 16.9471 37.3713 17.1888 37.1995 17.5254L37.1995 19.8833C37.1995 20.1554 37.2335 20.3613 37.3015 20.501C37.3481 20.5977 37.4304 20.6782 37.5486 20.7427C37.6667 20.8071 37.8368 20.8394 38.0588 20.8394L38.0588 21.0327L35.5398 21.0327L35.5398 20.8394C35.7904 20.8394 35.9766 20.8 36.0984 20.7212C36.1879 20.6639 36.2506 20.5726 36.2864 20.4473C36.3043 20.3864 36.3132 20.2127 36.3132 19.9263L36.3132 18.0195C36.3132 17.4466 36.3016 17.1056 36.2783 16.9963C36.255 16.8871 36.2121 16.8075 36.1494 16.7573C36.0868 16.7072 36.0089 16.6821 35.9158 16.6821C35.8048 16.6821 35.6794 16.709 35.5398 16.7627L35.4861 16.5693L36.9739 15.9678L37.1995 15.9678Z" fill-rule="evenodd"/>
<path clip-path="url(#TextBounds)" d="M39.3049 18.1592L42.0818 18.1592L42.0818 18.9702L39.3049 18.9702L39.3049 18.1592Z" fill-rule="evenodd"/>
<path clip-path="url(#TextBounds)" d="M14.7913 25.8623L14.7913 29.4609C15.1887 29.0241 15.5038 28.7439 15.7366 28.6204C15.9693 28.4968 16.2021 28.4351 16.4348 28.4351C16.7141 28.4351 16.954 28.512 17.1545 28.666C17.3551 28.82 17.5037 29.0617 17.6003 29.3911C17.6684 29.6203 17.7024 30.0392 17.7024 30.6479L17.7024 32.3882C17.7024 32.6997 17.7275 32.9128 17.7776 33.0273C17.8134 33.1133 17.8743 33.1813 17.9602 33.2314C18.0461 33.2816 18.2037 33.3066 18.4329 33.3066L18.4329 33.5L16.0159 33.5L16.0159 33.3066L16.1287 33.3066C16.3578 33.3066 16.5172 33.2717 16.6067 33.2019C16.6962 33.1321 16.7589 33.0291 16.7947 32.8931C16.8054 32.8358 16.8108 32.6675 16.8108 32.3882L16.8108 30.6479C16.8108 30.1108 16.783 29.7581 16.7275 29.5898C16.672 29.4215 16.5834 29.2953 16.4617 29.2112C16.3399 29.127 16.1931 29.085 16.0212 29.085C15.8458 29.085 15.6632 29.1315 15.4734 29.2246C15.2836 29.3177 15.0562 29.5057 14.7913 29.7886L14.7913 32.3882C14.7913 32.7248 14.8101 32.9342 14.8477 33.0166C14.8853 33.099 14.9551 33.1679 15.0571 33.2234C15.1592 33.2789 15.3355 33.3066 15.5862 33.3066L15.5862 33.5L13.1477 33.5L13.1477 33.3066C13.3661 33.3066 13.538 33.2726 13.6633 33.2046C13.7349 33.1688 13.7922 33.1007 13.8352 33.0005C13.8782 32.9002 13.8997 32.6961 13.8997 32.3882L13.8997 27.9355C13.8997 27.3734 13.8862 27.0278 13.8594 26.8989C13.8325 26.77 13.7913 26.6823 13.7358 26.6357C13.6803 26.5892 13.606 26.5659 13.5129 26.5659C13.4377 26.5659 13.316 26.5946 13.1477 26.6519L13.0725 26.4639L14.5442 25.8623L14.7913 25.8623Z" fill-rule="evenodd"/>
<path clip-path="url(#TextBounds)" d="M18.5671 28.5801L20.8606 28.5801L20.8606 28.7788L20.7478 28.7788C20.5867 28.7788 20.4658 28.8137 20.3853 28.8835C20.3047 28.9534 20.2644 29.0402 20.2644 29.144C20.2644 29.2837 20.3235 29.4771 20.4417 29.7241L21.6394 32.2056L22.7405 29.4878C22.8014 29.341 22.8318 29.196 22.8318 29.0527C22.8318 28.9883 22.8193 28.9399 22.7942 28.9077C22.7655 28.8683 22.7208 28.837 22.6599 28.8137C22.599 28.7904 22.4916 28.7788 22.3376 28.7788L22.3376 28.5801L23.9382 28.5801L23.9382 28.7788C23.8057 28.7931 23.7037 28.8218 23.6321 28.8647C23.5605 28.9077 23.4817 28.9883 23.3958 29.1064C23.3635 29.1566 23.3027 29.2944 23.2131 29.52L21.2097 34.4292C21.0164 34.9054 20.763 35.2653 20.4497 35.5088C20.1364 35.7523 19.8347 35.874 19.5447 35.874C19.3334 35.874 19.1597 35.8132 19.0237 35.6914C18.8876 35.5697 18.8196 35.43 18.8196 35.2725C18.8196 35.1221 18.8688 35.0012 18.9673 34.9099C19.0658 34.8186 19.2009 34.7729 19.3728 34.7729C19.491 34.7729 19.6521 34.8123 19.8562 34.8911C19.9994 34.9448 20.0889 34.9717 20.1248 34.9717C20.2322 34.9717 20.3494 34.9162 20.4766 34.8052C20.6037 34.6942 20.7317 34.4793 20.8606 34.1606L21.2097 33.3066L19.4426 29.5952C19.3889 29.4842 19.303 29.3464 19.1848 29.1816C19.0953 29.0563 19.0219 28.9722 18.9646 28.9292C18.8822 28.8719 18.7498 28.8218 18.5671 28.7788L18.5671 28.5801Z" fill-rule="evenodd"/>
<path clip-path="url(#TextBounds)" d="M25.7751 26.9634L25.7751 28.5801L26.9246 28.5801L26.9246 28.9561L25.7751 28.9561L25.7751 32.1465C25.7751 32.4652 25.8208 32.68 25.9121 32.791C26.0034 32.902 26.1207 32.9575 26.2639 32.9575C26.3821 32.9575 26.4967 32.9208 26.6077 32.8474C26.7187 32.774 26.8046 32.6657 26.8655 32.5225L27.075 32.5225C26.9496 32.8734 26.7724 33.1375 26.5432 33.3147C26.314 33.4919 26.0777 33.5806 25.8342 33.5806C25.6695 33.5806 25.5084 33.5349 25.3508 33.4436C25.1933 33.3523 25.0769 33.2216 25.0017 33.0515C24.9265 32.8814 24.8889 32.6191 24.8889 32.2646L24.8889 28.9561L24.1101 28.9561L24.1101 28.7788C24.307 28.7 24.5085 28.5667 24.7144 28.3787C24.9202 28.1907 25.1038 27.9678 25.2649 27.71C25.3472 27.5739 25.4618 27.325 25.6086 26.9634L25.7751 26.9634Z" fill-rule="evenodd"/>
<path clip-path="url(#TextBounds)" d="M28.8313 26.9634L28.8313 28.5801L29.9807 28.5801L29.9807 28.9561L28.8313 28.9561L28.8313 32.1465C28.8313 32.4652 28.877 32.68 28.9683 32.791C29.0596 32.902 29.1768 32.9575 29.3201 32.9575C29.4382 32.9575 29.5528 32.9208 29.6638 32.8474C29.7748 32.774 29.8608 32.6657 29.9216 32.5225L30.1311 32.5225C30.0058 32.8734 29.8285 33.1375 29.5994 33.3147C29.3702 33.4919 29.1339 33.5806 28.8904 33.5806C28.7257 33.5806 28.5645 33.5349 28.407 33.4436C28.2494 33.3523 28.1331 33.2216 28.0579 33.0515C27.9827 32.8814 27.9451 32.6191 27.9451 32.2646L27.9451 28.9561L27.1663 28.9561L27.1663 28.7788C27.3632 28.7 27.5646 28.5667 27.7705 28.3787C27.9764 28.1907 28.1599 27.9678 28.321 27.71C28.4034 27.5739 28.518 27.325 28.6648 26.9634L28.8313 26.9634Z" fill-rule="evenodd"/>
<path clip-path="url(#TextBounds)" d="M31.2859 30.4331C31.2823 31.1636 31.4596 31.7365 31.8176 32.1519C32.1757 32.5672 32.5964 32.7749 33.0798 32.7749C33.4021 32.7749 33.6823 32.6863 33.9204 32.509C34.1585 32.3318 34.3582 32.0283 34.5193 31.5986L34.6858 31.7061C34.6106 32.1966 34.3922 32.6433 34.0305 33.0461C33.6689 33.449 33.2159 33.6504 32.6716 33.6504C32.0808 33.6504 31.575 33.4203 31.1543 32.9602C30.7336 32.5001 30.5232 31.8815 30.5232 31.1045C30.5232 30.263 30.7389 29.6069 31.1704 29.136C31.6019 28.6651 32.1435 28.4297 32.7952 28.4297C33.3466 28.4297 33.7996 28.6114 34.1541 28.9749C34.5085 29.3383 34.6858 29.8244 34.6858 30.4331L31.2859 30.4331ZM31.2859 30.1216L33.5632 30.1216C33.5453 29.8065 33.5077 29.5845 33.4504 29.4556C33.3609 29.255 33.2275 29.0975 33.0503 28.9829C32.873 28.8683 32.6877 28.811 32.4944 28.811C32.1972 28.811 31.9313 28.9265 31.6968 29.1575C31.4622 29.3884 31.3253 29.7098 31.2859 30.1216Z" fill-rule="evenodd"/>
</g>
</g>
</svg>
