<?xml version="1.0" encoding="UTF-8" standalone="no"?>
<!DOCTYPE svg PUBLIC "-//W3C//DTD SVG 1.1//EN" "http://www.w3.org/Graphics/SVG/1.1/DTD/svg11.dtd">

<!-- Created with Vectornator (http://vectornator.io/) -->
<svg height="100%" stroke-miterlimit="10" style="fill-rule:nonzero;clip-rule:evenodd;stroke-linecap:round;stroke-linejoin:round;" version="1.1" viewBox="0 0 48 48" width="100%" xml:space="preserve" xmlns="http://www.w3.org/2000/svg" xmlns:vectornator="http://vectornator.io" xmlns:xlink="http://www.w3.org/1999/xlink">
<metadata>
<vectornator:setting key="IsTimeLapseWatermarkDisabled" value="false"/>
<vectornator:setting key="UndoHistoryDisabled" value="true"/>
<vectornator:setting key="VNDimensionsVisible" value="true"/>
<vectornator:setting key="VNSnapToGuides" value="true"/>
<vectornator:setting key="WDCMYKEnabledKey" value="false"/>
<vectornator:setting key="WDDisplayWhiteBackground" value="false"/>
<vectornator:setting key="WDDynamicGuides" value="false"/>
<vectornator:setting key="WDGuidesVisible" value="true"/>
<vectornator:setting key="WDIsolateActiveLayer" value="false"/>
<vectornator:setting key="WDOutlineMode" value="false"/>
<vectornator:setting key="WDRulersVisible" value="true"/>
<vectornator:setting key="WDSnapToEdges" value="false"/>
<vectornator:setting key="WDSnapToGrid" value="false"/>
<vectornator:setting key="WDSnapToPoints" value="false"/>
<vectornator:setting key="WDUnits" value="Pixels"/>
</metadata>
<defs>
<clipPath id="TextBounds">
<rect height="44.6143" width="44" x="2" y="1.69287"/>
</clipPath>
</defs>
<g id="Layer-1" vectornator:layerName="Layer 1">
<path d="M1 1L47 1L47 47L1 47L1 1Z" fill="#609744" fill-rule="evenodd" opacity="1" stroke="#000000" stroke-linecap="round" stroke-linejoin="round" stroke-width="1.47"/>
<g fill="#000000" opacity="1" stroke="none">
<path clip-path="url(#TextBounds)" d="M17.1951 6.11279L17.3342 9.06299L16.9817 9.06299C16.9137 8.54346 16.8209 8.17236 16.7034 7.94971C16.5116 7.59098 16.2565 7.32658 15.938 7.15649C15.6195 6.98641 15.2004 6.90137 14.6809 6.90137L12.9089 6.90137L12.9089 16.5127C12.9089 17.2858 12.9924 17.7682 13.1594 17.96C13.3944 18.2197 13.7563 18.3496 14.2449 18.3496L14.6809 18.3496L14.6809 18.6929L9.34644 18.6929L9.34644 18.3496L9.79175 18.3496C10.3236 18.3496 10.7009 18.1888 10.9236 17.8672C11.0597 17.6693 11.1277 17.2178 11.1277 16.5127L11.1277 6.90137L9.61548 6.90137C9.02791 6.90137 8.61043 6.94466 8.36304 7.03125C8.04142 7.14876 7.76619 7.37451 7.53735 7.7085C7.30851 8.04248 7.17244 8.49398 7.12915 9.06299L6.77661 9.06299L6.92505 6.11279L17.1951 6.11279Z" fill-rule="evenodd"/>
<path clip-path="url(#TextBounds)" d="M18.5032 13.3955C18.497 14.6572 18.8031 15.6468 19.4216 16.3643C20.0401 17.0817 20.7668 17.4404 21.6018 17.4404C22.1584 17.4404 22.6424 17.2874 23.0537 16.9812C23.465 16.675 23.8098 16.1509 24.0881 15.4087L24.3757 15.5942C24.2458 16.4416 23.8686 17.2131 23.2439 17.9089C22.6192 18.6047 21.8368 18.9526 20.8967 18.9526C19.8762 18.9526 19.0026 18.5553 18.2759 17.7605C17.5492 16.9657 17.1858 15.8973 17.1858 14.5552C17.1858 13.1017 17.5584 11.9683 18.3037 11.155C19.049 10.3417 19.9845 9.93506 21.1101 9.93506C22.0626 9.93506 22.845 10.2489 23.4573 10.8767C24.0696 11.5045 24.3757 12.3441 24.3757 13.3955L18.5032 13.3955ZM18.5032 12.8574L22.4368 12.8574C22.4058 12.3132 22.3409 11.9297 22.2419 11.707C22.0873 11.3607 21.8569 11.0885 21.5508 10.8906C21.2446 10.6927 20.9246 10.5938 20.5906 10.5938C20.0772 10.5938 19.618 10.7932 19.2129 11.1921C18.8078 11.5911 18.5712 12.1462 18.5032 12.8574Z" fill-rule="evenodd"/>
<path clip-path="url(#TextBounds)" d="M28.4299 5.50049L28.4299 16.7725C28.4299 17.3044 28.4686 17.6569 28.5459 17.8301C28.6232 18.0033 28.7423 18.1347 28.9031 18.2244C29.0639 18.314 29.3639 18.3589 29.803 18.3589L29.803 18.6929L25.6375 18.6929L25.6375 18.3589C26.0271 18.3589 26.2931 18.3187 26.4353 18.2383C26.5776 18.1579 26.6889 18.0249 26.7693 17.8394C26.8497 17.6538 26.8899 17.2982 26.8899 16.7725L26.8899 9.05371C26.8899 8.09505 26.8682 7.50594 26.825 7.28638C26.7817 7.06681 26.7121 6.91683 26.6162 6.83643C26.5203 6.75602 26.3982 6.71582 26.2498 6.71582C26.0889 6.71582 25.8848 6.7653 25.6375 6.86426L25.4797 6.53955L28.0125 5.50049L28.4299 5.50049Z" fill-rule="evenodd"/>
<path clip-path="url(#TextBounds)" d="M33.2542 7.40234L33.2542 10.1948L35.2395 10.1948L35.2395 10.8442L33.2542 10.8442L33.2542 16.355C33.2542 16.9054 33.333 17.2765 33.4907 17.4683C33.6484 17.66 33.851 17.7559 34.0984 17.7559C34.3025 17.7559 34.5004 17.6925 34.6921 17.5657C34.8839 17.4389 35.0323 17.2518 35.1375 17.0044L35.4993 17.0044C35.2828 17.6105 34.9766 18.0667 34.5808 18.3728C34.185 18.679 33.7768 18.832 33.3562 18.832C33.0717 18.832 32.7934 18.7532 32.5212 18.5955C32.2491 18.4377 32.0481 18.212 31.9182 17.9182C31.7883 17.6244 31.7234 17.1714 31.7234 16.5591L31.7234 10.8442L30.3782 10.8442L30.3782 10.5381C30.7183 10.402 31.0662 10.1716 31.4219 9.84692C31.7775 9.52222 32.0945 9.13721 32.3728 8.69189C32.5151 8.45687 32.713 8.02702 32.9666 7.40234L33.2542 7.40234Z" fill-rule="evenodd"/>
<path clip-path="url(#TextBounds)" d="M36.2415 13.7295L41.0378 13.7295L41.0378 15.1304L36.2415 15.1304L36.2415 13.7295Z" fill-rule="evenodd"/>
<path clip-path="url(#TextBounds)" d="M3.92847 32.8462L6.54468 31.7886L6.89722 31.7886L6.89722 33.7739C7.33634 33.0256 7.77702 32.5014 8.21924 32.2014C8.66146 31.9014 9.12687 31.7515 9.61548 31.7515C10.469 31.7515 11.1803 32.0854 11.7493 32.7534C12.4482 33.5698 12.7976 34.6336 12.7976 35.9448C12.7976 37.4106 12.377 38.6229 11.5359 39.5815C10.8432 40.367 9.97111 40.7598 8.91968 40.7598C8.462 40.7598 8.06616 40.6948 7.73218 40.5649C7.48478 40.4722 7.20646 40.2866 6.89722 40.0083L6.89722 42.5967C6.89722 43.1781 6.93278 43.5476 7.00391 43.7053C7.07503 43.863 7.19873 43.9883 7.375 44.0811C7.55127 44.1738 7.87134 44.2202 8.33521 44.2202L8.33521 44.5635L3.88208 44.5635L3.88208 44.2202L4.11401 44.2202C4.45418 44.2264 4.74487 44.1615 4.98608 44.0254C5.1036 43.9574 5.19482 43.8476 5.25977 43.696C5.32471 43.5445 5.35718 43.1595 5.35718 42.541L5.35718 34.5068C5.35718 33.9564 5.33244 33.6069 5.28296 33.4585C5.23348 33.3101 5.15462 33.1987 5.04639 33.1245C4.93815 33.0503 4.79126 33.0132 4.60571 33.0132C4.45728 33.0132 4.26864 33.0565 4.03979 33.1431L3.92847 32.8462ZM6.89722 34.3213L6.89722 37.4941C6.89722 38.1807 6.92505 38.6322 6.98071 38.8486C7.0673 39.2074 7.27913 39.5228 7.61621 39.7949C7.95329 40.0671 8.3785 40.2031 8.89185 40.2031C9.51034 40.2031 10.0113 39.9619 10.3948 39.4795C10.8958 38.8486 11.1462 37.9611 11.1462 36.8169C11.1462 35.5181 10.8617 34.5192 10.2927 33.8203C9.89689 33.3379 9.42684 33.0967 8.88257 33.0967C8.58569 33.0967 8.29191 33.1709 8.00122 33.3193C7.77856 33.4307 7.41056 33.7646 6.89722 34.3213Z" fill-rule="evenodd"/>
<path clip-path="url(#TextBounds)" d="M16.9631 27.3076L16.9631 38.5796C16.9631 39.1115 17.0018 39.464 17.0791 39.6372C17.1564 39.8104 17.2755 39.9418 17.4363 40.0315C17.5971 40.1212 17.8971 40.166 18.3362 40.166L18.3362 40.5L14.1707 40.5L14.1707 40.166C14.5603 40.166 14.8263 40.1258 14.9685 40.0454C15.1108 39.965 15.2221 39.832 15.3025 39.6465C15.3829 39.4609 15.4231 39.1053 15.4231 38.5796L15.4231 30.8608C15.4231 29.9022 15.4014 29.3131 15.3582 29.0935C15.3149 28.8739 15.2453 28.724 15.1494 28.6436C15.0535 28.5632 14.9314 28.5229 14.783 28.5229C14.6222 28.5229 14.4181 28.5724 14.1707 28.6714L14.0129 28.3467L16.5457 27.3076L16.9631 27.3076Z" fill-rule="evenodd"/>
<path clip-path="url(#TextBounds)" d="M24.1345 39.2754C23.2625 39.9495 22.7151 40.3392 22.4924 40.4443C22.1584 40.599 21.8028 40.6763 21.4255 40.6763C20.838 40.6763 20.354 40.4753 19.9736 40.0732C19.5933 39.6712 19.4031 39.1424 19.4031 38.4868C19.4031 38.0724 19.4958 37.7137 19.6814 37.4106C19.935 36.9901 20.3757 36.5942 21.0034 36.2231C21.6312 35.8521 22.6749 35.4006 24.1345 34.8687L24.1345 34.5347C24.1345 33.6873 24 33.106 23.731 32.7905C23.4619 32.4751 23.0707 32.3174 22.5574 32.3174C22.1677 32.3174 21.8585 32.4225 21.6296 32.6328C21.3946 32.8431 21.2771 33.0843 21.2771 33.3564L21.2957 33.8945C21.2957 34.179 21.223 34.3986 21.0776 34.5532C20.9323 34.7078 20.7421 34.7852 20.5071 34.7852C20.2782 34.7852 20.0911 34.7048 19.9458 34.5439C19.8005 34.3831 19.7278 34.1636 19.7278 33.8853C19.7278 33.3534 19.9999 32.8647 20.5442 32.4194C21.0885 31.9741 21.8523 31.7515 22.8357 31.7515C23.5903 31.7515 24.2087 31.8783 24.6912 32.1318C25.0561 32.3236 25.3251 32.6235 25.4983 33.0317C25.6096 33.2977 25.6653 33.842 25.6653 34.6646L25.6653 37.5498C25.6653 38.36 25.6807 38.8564 25.7117 39.0388C25.7426 39.2213 25.7936 39.3434 25.8647 39.4053C25.9359 39.4671 26.0178 39.498 26.1106 39.498C26.2096 39.498 26.2961 39.4764 26.3704 39.4331C26.5002 39.3527 26.7507 39.127 27.1218 38.7559L27.1218 39.2754C26.4291 40.2031 25.7673 40.667 25.1365 40.667C24.8334 40.667 24.5922 40.5618 24.4128 40.3516C24.2335 40.1413 24.1407 39.7826 24.1345 39.2754ZM24.1345 38.6724L24.1345 35.4346C23.2006 35.8057 22.5976 36.0685 22.3254 36.2231C21.8368 36.4953 21.4874 36.7798 21.2771 37.0767C21.0668 37.3735 20.9617 37.6982 20.9617 38.0508C20.9617 38.4961 21.0946 38.8656 21.3606 39.1594C21.6265 39.4532 21.9327 39.6001 22.2791 39.6001C22.7491 39.6001 23.3676 39.2909 24.1345 38.6724Z" fill-rule="evenodd"/>
<path clip-path="url(#TextBounds)" d="M33.7551 39.5444C33.3407 39.9774 32.9356 40.2882 32.5398 40.4768C32.144 40.6654 31.7172 40.7598 31.2595 40.7598C30.3318 40.7598 29.5216 40.3717 28.8289 39.5955C28.1361 38.8193 27.7898 37.8219 27.7898 36.6035C27.7898 35.3851 28.1733 34.2703 28.9402 33.259C29.7071 32.2478 30.6936 31.7422 31.8997 31.7422C32.648 31.7422 33.2665 31.9803 33.7551 32.4565L33.7551 30.8887C33.7551 29.9176 33.7319 29.3208 33.6855 29.0981C33.6392 28.8755 33.5665 28.724 33.4675 28.6436C33.3686 28.5632 33.2449 28.5229 33.0964 28.5229C32.9356 28.5229 32.7222 28.5724 32.4563 28.6714L32.3357 28.3467L34.8684 27.3076L35.2859 27.3076L35.2859 37.1323C35.2859 38.1281 35.3091 38.7358 35.3555 38.9553C35.4019 39.1749 35.4761 39.328 35.5781 39.4146C35.6802 39.5011 35.7992 39.5444 35.9353 39.5444C36.1023 39.5444 36.325 39.4919 36.6033 39.3867L36.7053 39.7114L34.1819 40.7598L33.7551 40.7598L33.7551 39.5444ZM33.7551 38.895L33.7551 34.5161C33.718 34.0955 33.6067 33.7121 33.4211 33.3657C33.2356 33.0194 32.9897 32.7581 32.6836 32.5818C32.3774 32.4055 32.079 32.3174 31.7883 32.3174C31.2441 32.3174 30.7585 32.5617 30.3318 33.0503C29.769 33.6935 29.4875 34.6336 29.4875 35.8706C29.4875 37.12 29.7597 38.0771 30.304 38.7419C30.8482 39.4068 31.4543 39.7393 32.1223 39.7393C32.6851 39.7393 33.2294 39.4578 33.7551 38.895Z" fill-rule="evenodd"/>
<path clip-path="url(#TextBounds)" d="M42.7449 31.7515L42.7449 34.646L42.4387 34.646C42.2037 33.7368 41.9022 33.1183 41.5342 32.7905C41.1662 32.4627 40.6977 32.2988 40.1287 32.2988C39.6957 32.2988 39.3463 32.4132 39.0803 32.6421C38.8144 32.8709 38.6814 33.1245 38.6814 33.4028C38.6814 33.7492 38.7804 34.0461 38.9783 34.2935C39.17 34.547 39.5597 34.8161 40.1472 35.1006L41.5017 35.7593C42.7572 36.3716 43.385 37.1787 43.385 38.1807C43.385 38.9538 43.0928 39.5769 42.5083 40.05C41.9238 40.5232 41.2698 40.7598 40.5461 40.7598C40.0266 40.7598 39.4329 40.667 38.7649 40.4814C38.5608 40.4196 38.3938 40.3887 38.2639 40.3887C38.1217 40.3887 38.0103 40.4691 37.9299 40.6299L37.6238 40.6299L37.6238 37.5962L37.9299 37.5962C38.1031 38.4621 38.434 39.1146 38.9226 39.5537C39.4112 39.9928 39.9586 40.2124 40.5647 40.2124C40.9915 40.2124 41.3394 40.0872 41.6084 39.8367C41.8774 39.5862 42.012 39.2847 42.012 38.9321C42.012 38.5054 41.862 38.1466 41.562 37.856C41.262 37.5653 40.6637 37.1973 39.7668 36.752C38.87 36.3066 38.2825 35.9046 38.0042 35.5459C37.7258 35.1934 37.5867 34.748 37.5867 34.21C37.5867 33.5111 37.8263 32.9266 38.3057 32.4565C38.785 31.9865 39.405 31.7515 40.1658 31.7515C40.4998 31.7515 40.9049 31.8226 41.3811 31.9648C41.6965 32.0576 41.9068 32.104 42.012 32.104C42.1109 32.104 42.1882 32.0824 42.2439 32.0391C42.2996 31.9958 42.3645 31.8999 42.4387 31.7515L42.7449 31.7515Z" fill-rule="evenodd"/>
</g>
</g>
</svg>
