<?xml version="1.0" encoding="UTF-8" standalone="no"?>
<!DOCTYPE svg PUBLIC "-//W3C//DTD SVG 1.1//EN" "http://www.w3.org/Graphics/SVG/1.1/DTD/svg11.dtd">

<!-- Created with Vectornator (http://vectornator.io/) -->
<svg height="100%" stroke-miterlimit="10" style="fill-rule:nonzero;clip-rule:evenodd;stroke-linecap:round;stroke-linejoin:round;" version="1.1" viewBox="0 0 48 48" width="100%" xml:space="preserve" xmlns="http://www.w3.org/2000/svg" xmlns:vectornator="http://vectornator.io" xmlns:xlink="http://www.w3.org/1999/xlink">
<metadata>
<vectornator:setting key="IsTimeLapseWatermarkDisabled" value="false"/>
<vectornator:setting key="UndoHistoryDisabled" value="true"/>
<vectornator:setting key="VNDimensionsVisible" value="true"/>
<vectornator:setting key="VNSnapToGuides" value="true"/>
<vectornator:setting key="WDCMYKEnabledKey" value="false"/>
<vectornator:setting key="WDDisplayWhiteBackground" value="false"/>
<vectornator:setting key="WDDynamicGuides" value="false"/>
<vectornator:setting key="WDGuidesVisible" value="true"/>
<vectornator:setting key="WDIsolateActiveLayer" value="false"/>
<vectornator:setting key="WDOutlineMode" value="false"/>
<vectornator:setting key="WDRulersVisible" value="true"/>
<vectornator:setting key="WDSnapToEdges" value="false"/>
<vectornator:setting key="WDSnapToGrid" value="false"/>
<vectornator:setting key="WDSnapToPoints" value="false"/>
<vectornator:setting key="WDUnits" value="Pixels"/>
</metadata>
<defs>
<clipPath id="TextBounds">
<rect height="25.8921" width="43" x="2.5" y="11.054"/>
</clipPath>
</defs>
<g id="Layer-1" vectornator:layerName="Layer 1">
<path d="M1 1L47 1L47 47L1 47L1 1Z" fill="#609744" fill-rule="evenodd" opacity="1" stroke="#000000" stroke-linecap="round" stroke-linejoin="round" stroke-width="1.47"/>
<g fill="#000000" opacity="1" stroke="none">
<path clip-path="url(#TextBounds)" d="M10.5554 12.4192L10.6067 13.5061L10.4768 13.5061C10.4517 13.3147 10.4176 13.178 10.3743 13.0959C10.3036 12.9638 10.2096 12.8664 10.0923 12.8037C9.97493 12.741 9.82056 12.7097 9.62915 12.7097L8.97632 12.7097L8.97632 16.2507C8.97632 16.5356 9.00708 16.7133 9.0686 16.7839C9.15519 16.8796 9.28849 16.9275 9.46851 16.9275L9.62915 16.9275L9.62915 17.054L7.66382 17.054L7.66382 16.9275L7.82788 16.9275C8.02384 16.9275 8.16284 16.8682 8.24487 16.7498C8.295 16.6768 8.32007 16.5105 8.32007 16.2507L8.32007 12.7097L7.76294 12.7097C7.54647 12.7097 7.39266 12.7257 7.30151 12.7576C7.18302 12.8009 7.08162 12.884 6.99731 13.0071C6.913 13.1301 6.86287 13.2965 6.84692 13.5061L6.71704 13.5061L6.77173 12.4192L10.5554 12.4192Z" fill-rule="evenodd"/>
<path clip-path="url(#TextBounds)" d="M13.5359 14.2102L13.9905 13.7078L14.1477 13.8547L13.6863 14.3743C13.9278 14.6819 14.0486 15.0374 14.0486 15.4407C14.0486 15.7096 13.9825 15.9881 13.8503 16.2764C13.7182 16.5646 13.5353 16.7822 13.3018 16.9292C13.0682 17.0762 12.8056 17.1497 12.5139 17.1497C12.3248 17.1497 12.1573 17.1206 12.0115 17.0625C11.8656 17.0044 11.7073 16.9036 11.5364 16.76L11.075 17.283L10.9143 17.136L11.3962 16.5925C11.2823 16.4513 11.1934 16.2781 11.1296 16.073C11.0658 15.8679 11.0339 15.6765 11.0339 15.4988C11.0339 15.2276 11.1029 14.9542 11.2407 14.6785C11.3786 14.4028 11.5637 14.1925 11.7961 14.0479C12.0286 13.9032 12.2838 13.8308 12.5618 13.8308C12.7486 13.8308 12.9178 13.8604 13.0693 13.9197C13.2209 13.9789 13.3764 14.0758 13.5359 14.2102ZM13.1873 14.5964C13.071 14.3936 12.9565 14.2529 12.8438 14.1743C12.731 14.0957 12.5994 14.0564 12.449 14.0564C12.2257 14.0564 12.04 14.1475 11.8918 14.3298C11.7437 14.5121 11.6697 14.814 11.6697 15.2356C11.6697 15.5181 11.7141 15.8167 11.803 16.1311L13.1873 14.5964ZM13.283 14.8186L11.9055 16.3567C12.0217 16.5663 12.1357 16.7104 12.2473 16.7891C12.359 16.8677 12.4934 16.907 12.6506 16.907C12.8762 16.907 13.0602 16.8158 13.2026 16.6335C13.3451 16.4513 13.4163 16.1334 13.4163 15.6799C13.4163 15.4042 13.3718 15.1171 13.283 14.8186Z" fill-rule="evenodd"/>
<path clip-path="url(#TextBounds)" d="M15.4158 13.8308L15.4158 14.5349C15.6778 14.0655 15.9467 13.8308 16.2224 13.8308C16.3477 13.8308 16.4514 13.869 16.5334 13.9453C16.6155 14.0216 16.6565 14.1099 16.6565 14.2102C16.6565 14.2991 16.6269 14.3743 16.5676 14.4358C16.5084 14.4973 16.4377 14.5281 16.3557 14.5281C16.276 14.5281 16.1865 14.4888 16.0874 14.4102C15.9883 14.3315 15.9148 14.2922 15.8669 14.2922C15.8259 14.2922 15.7815 14.315 15.7336 14.3606C15.6311 14.454 15.5251 14.6078 15.4158 14.822L15.4158 16.3225C15.4158 16.4957 15.4374 16.6267 15.4807 16.7156C15.5103 16.7771 15.5627 16.8284 15.6379 16.8694C15.7131 16.9104 15.8214 16.9309 15.9626 16.9309L15.9626 17.054L14.3596 17.054L14.3596 16.9309C14.5191 16.9309 14.6376 16.9058 14.7151 16.8557C14.7721 16.8193 14.8119 16.7611 14.8347 16.6814C14.8461 16.6427 14.8518 16.5321 14.8518 16.3499L14.8518 15.1365C14.8518 14.7719 14.8444 14.5549 14.8296 14.4854C14.8148 14.4159 14.7874 14.3652 14.7476 14.3333C14.7077 14.3014 14.6581 14.2854 14.5989 14.2854C14.5282 14.2854 14.4485 14.3025 14.3596 14.3367L14.3254 14.2136L15.2722 13.8308L15.4158 13.8308Z" fill-rule="evenodd"/>
<path clip-path="url(#TextBounds)" d="M16.6702 13.9231L18.1433 13.9231L18.1433 14.0496L18.0476 14.0496C17.9587 14.0496 17.891 14.0712 17.8442 14.1145C17.7975 14.1578 17.7742 14.2159 17.7742 14.2888C17.7742 14.3686 17.7981 14.4631 17.8459 14.5725L18.574 16.302L19.3054 14.5076C19.3578 14.38 19.384 14.2831 19.384 14.217C19.384 14.1851 19.3749 14.1589 19.3567 14.1384C19.3316 14.1042 19.2997 14.0809 19.261 14.0684C19.2222 14.0558 19.1436 14.0496 19.0251 14.0496L19.0251 13.9231L20.0471 13.9231L20.0471 14.0496C19.9286 14.0587 19.8466 14.0826 19.801 14.1213C19.7213 14.1897 19.6495 14.3036 19.5857 14.4631L18.4749 17.1497L18.3347 17.1497L17.217 14.5076C17.1669 14.3845 17.1191 14.2962 17.0735 14.2427C17.0279 14.1891 16.9698 14.1441 16.8992 14.1077C16.8604 14.0872 16.7841 14.0678 16.6702 14.0496L16.6702 13.9231Z" fill-rule="evenodd"/>
<path clip-path="url(#TextBounds)" d="M20.8572 15.1023C20.8549 15.5671 20.9677 15.9317 21.1956 16.196C21.4234 16.4604 21.6912 16.5925 21.9988 16.5925C22.2039 16.5925 22.3822 16.5361 22.5337 16.4233C22.6852 16.3105 22.8123 16.1174 22.9148 15.844L23.0208 15.9124C22.9729 16.2245 22.8339 16.5088 22.6038 16.7651C22.3736 17.0215 22.0854 17.1497 21.739 17.1497C21.363 17.1497 21.0412 17.0033 20.7734 16.7104C20.5057 16.4176 20.3718 16.024 20.3718 15.5295C20.3718 14.9941 20.5091 14.5765 20.7837 14.2769C21.0583 13.9772 21.4029 13.8274 21.8176 13.8274C22.1685 13.8274 22.4568 13.943 22.6824 14.1743C22.908 14.4056 23.0208 14.7149 23.0208 15.1023L20.8572 15.1023ZM20.8572 14.9041L22.3064 14.9041C22.295 14.7035 22.2711 14.5623 22.2346 14.4802C22.1777 14.3526 22.0928 14.2524 21.98 14.1794C21.8672 14.1065 21.7493 14.0701 21.6262 14.0701C21.4371 14.0701 21.2679 14.1436 21.1187 14.2905C20.9694 14.4375 20.8822 14.642 20.8572 14.9041Z" fill-rule="evenodd"/>
<path clip-path="url(#TextBounds)" d="M24.2307 12.1902C24.3287 12.1902 24.4119 12.2244 24.4802 12.2927C24.5486 12.3611 24.5828 12.4443 24.5828 12.5422C24.5828 12.6379 24.5486 12.72 24.4802 12.7883C24.4119 12.8567 24.3287 12.8909 24.2307 12.8909C24.135 12.8909 24.053 12.8567 23.9846 12.7883C23.9163 12.72 23.8821 12.6379 23.8821 12.5422C23.8821 12.4443 23.9163 12.3611 23.9846 12.2927C24.053 12.2244 24.135 12.1902 24.2307 12.1902ZM24.5247 13.8308L24.5247 16.9822C24.5247 17.5177 24.4107 17.9153 24.1829 18.175C23.955 18.4348 23.6588 18.5647 23.2942 18.5647C23.0868 18.5647 22.933 18.5271 22.8328 18.4519C22.7325 18.3767 22.6824 18.2992 22.6824 18.2195C22.6824 18.1397 22.7103 18.0714 22.7661 18.0144C22.8219 17.9574 22.8875 17.929 22.9626 17.929C23.0219 17.929 23.0823 17.9438 23.1438 17.9734C23.1825 17.9893 23.2572 18.0469 23.3677 18.146C23.4782 18.2451 23.571 18.2947 23.6462 18.2947C23.7009 18.2947 23.7545 18.2736 23.8069 18.2314C23.8593 18.1893 23.898 18.1187 23.9231 18.0195C23.9482 17.9204 23.9607 17.7056 23.9607 17.3752L23.9607 15.1467C23.9607 14.8027 23.9504 14.5816 23.9299 14.4836C23.914 14.4084 23.8889 14.3566 23.8547 14.3281C23.8206 14.2996 23.7738 14.2854 23.7146 14.2854C23.6508 14.2854 23.5733 14.3025 23.4822 14.3367L23.4343 14.2136L24.3777 13.8308L24.5247 13.8308Z" fill-rule="evenodd"/>
<path clip-path="url(#TextBounds)" d="M26.2986 13.8308L26.2986 14.5349C26.5606 14.0655 26.8295 13.8308 27.1052 13.8308C27.2306 13.8308 27.3342 13.869 27.4163 13.9453C27.4983 14.0216 27.5393 14.1099 27.5393 14.2102C27.5393 14.2991 27.5097 14.3743 27.4504 14.4358C27.3912 14.4973 27.3206 14.5281 27.2385 14.5281C27.1588 14.5281 27.0693 14.4888 26.9702 14.4102C26.8711 14.3315 26.7976 14.2922 26.7498 14.2922C26.7087 14.2922 26.6643 14.315 26.6165 14.3606C26.5139 14.454 26.408 14.6078 26.2986 14.822L26.2986 16.3225C26.2986 16.4957 26.3202 16.6267 26.3635 16.7156C26.3931 16.7771 26.4456 16.8284 26.5208 16.8694C26.5959 16.9104 26.7042 16.9309 26.8455 16.9309L26.8455 17.054L25.2424 17.054L25.2424 16.9309C25.4019 16.9309 25.5204 16.9058 25.5979 16.8557C25.6549 16.8193 25.6947 16.7611 25.7175 16.6814C25.7289 16.6427 25.7346 16.5321 25.7346 16.3499L25.7346 15.1365C25.7346 14.7719 25.7272 14.5549 25.7124 14.4854C25.6976 14.4159 25.6702 14.3652 25.6304 14.3333C25.5905 14.3014 25.5409 14.2854 25.4817 14.2854C25.4111 14.2854 25.3313 14.3025 25.2424 14.3367L25.2083 14.2136L26.155 13.8308L26.2986 13.8308Z" fill-rule="evenodd"/>
<path clip-path="url(#TextBounds)" d="M29.7371 13.8308L29.7371 14.8972L29.6243 14.8972C29.5377 14.5623 29.4266 14.3344 29.291 14.2136C29.1554 14.0929 28.9828 14.0325 28.7732 14.0325C28.6137 14.0325 28.4849 14.0746 28.387 14.1589C28.289 14.2432 28.24 14.3367 28.24 14.4392C28.24 14.5668 28.2764 14.6762 28.3494 14.7673C28.42 14.8608 28.5636 14.9599 28.78 15.0647L29.2791 15.3074C29.7416 15.533 29.9729 15.8303 29.9729 16.1995C29.9729 16.4843 29.8652 16.7139 29.6499 16.8882C29.4346 17.0625 29.1936 17.1497 28.927 17.1497C28.7356 17.1497 28.5168 17.1155 28.2708 17.0471C28.1956 17.0243 28.134 17.0129 28.0862 17.0129C28.0338 17.0129 27.9928 17.0426 27.9631 17.1018L27.8503 17.1018L27.8503 15.9841L27.9631 15.9841C28.0269 16.3031 28.1488 16.5435 28.3289 16.7053C28.5089 16.8671 28.7105 16.948 28.9338 16.948C29.0911 16.948 29.2192 16.9019 29.3184 16.8096C29.4175 16.7173 29.467 16.6062 29.467 16.4763C29.467 16.3191 29.4118 16.1869 29.3013 16.0798C29.1908 15.9727 28.9703 15.8372 28.6399 15.6731C28.3095 15.509 28.093 15.3609 27.9905 15.2288C27.8879 15.0989 27.8367 14.9348 27.8367 14.7366C27.8367 14.4791 27.925 14.2638 28.1016 14.0906C28.2782 13.9174 28.5066 13.8308 28.7869 13.8308C28.9099 13.8308 29.0592 13.857 29.2346 13.9094C29.3508 13.9436 29.4283 13.9607 29.467 13.9607C29.5035 13.9607 29.532 13.9527 29.5525 13.9368C29.573 13.9208 29.5969 13.8855 29.6243 13.8308L29.7371 13.8308Z" fill-rule="evenodd"/>
<path clip-path="url(#TextBounds)" d="M31.3538 13.8308L31.3538 14.5349C31.6158 14.0655 31.8847 13.8308 32.1604 13.8308C32.2857 13.8308 32.3894 13.869 32.4714 13.9453C32.5535 14.0216 32.5945 14.1099 32.5945 14.2102C32.5945 14.2991 32.5649 14.3743 32.5056 14.4358C32.4464 14.4973 32.3757 14.5281 32.2937 14.5281C32.2139 14.5281 32.1245 14.4888 32.0254 14.4102C31.9263 14.3315 31.8528 14.2922 31.8049 14.2922C31.7639 14.2922 31.7195 14.315 31.6716 14.3606C31.5691 14.454 31.4631 14.6078 31.3538 14.822L31.3538 16.3225C31.3538 16.4957 31.3754 16.6267 31.4187 16.7156C31.4483 16.7771 31.5007 16.8284 31.5759 16.8694C31.6511 16.9104 31.7594 16.9309 31.9006 16.9309L31.9006 17.054L30.2976 17.054L30.2976 16.9309C30.4571 16.9309 30.5756 16.9058 30.6531 16.8557C30.71 16.8193 30.7499 16.7611 30.7727 16.6814C30.7841 16.6427 30.7898 16.5321 30.7898 16.3499L30.7898 15.1365C30.7898 14.7719 30.7824 14.5549 30.7676 14.4854C30.7528 14.4159 30.7254 14.3652 30.6855 14.3333C30.6457 14.3014 30.5961 14.2854 30.5369 14.2854C30.4662 14.2854 30.3865 14.3025 30.2976 14.3367L30.2634 14.2136L31.2102 13.8308L31.3538 13.8308Z" fill-rule="evenodd"/>
<path clip-path="url(#TextBounds)" d="M35.5134 13.9231L35.5134 15.8201C35.5134 16.1824 35.522 16.404 35.5391 16.4849C35.5562 16.5658 35.5835 16.6222 35.6211 16.6541C35.6587 16.686 35.7026 16.7019 35.7527 16.7019C35.8233 16.7019 35.9031 16.6825 35.9919 16.6438L36.0398 16.7634L35.1033 17.1497L34.9495 17.1497L34.9495 16.4866C34.6806 16.7782 34.4755 16.9617 34.3342 17.0369C34.193 17.1121 34.0437 17.1497 33.8865 17.1497C33.711 17.1497 33.5589 17.099 33.4302 16.9976C33.3014 16.8962 33.212 16.7657 33.1619 16.6062C33.1117 16.4467 33.0867 16.2211 33.0867 15.9294L33.0867 14.5315C33.0867 14.3834 33.0707 14.2808 33.0388 14.2239C33.0069 14.1669 32.9596 14.123 32.897 14.0923C32.8343 14.0615 32.7209 14.0473 32.5569 14.0496L32.5569 13.9231L33.6541 13.9231L33.6541 16.0183C33.6541 16.31 33.7048 16.5014 33.8062 16.5925C33.9076 16.6837 34.03 16.7292 34.1736 16.7292C34.2716 16.7292 34.3826 16.6985 34.5068 16.637C34.631 16.5754 34.7786 16.4581 34.9495 16.2849L34.9495 14.511C34.9495 14.3333 34.917 14.2131 34.8521 14.1504C34.7871 14.0877 34.6521 14.0541 34.447 14.0496L34.447 13.9231L35.5134 13.9231Z" fill-rule="evenodd"/>
<path clip-path="url(#TextBounds)" d="M37.1985 14.4973C37.4264 14.2694 37.5608 14.1384 37.6018 14.1042C37.7043 14.0177 37.8149 13.9504 37.9333 13.9026C38.0518 13.8547 38.1692 13.8308 38.2854 13.8308C38.4814 13.8308 38.65 13.8878 38.7913 14.0017C38.9325 14.1156 39.0271 14.2808 39.075 14.4973C39.3097 14.2239 39.5079 14.0444 39.6697 13.959C39.8315 13.8735 39.9978 13.8308 40.1687 13.8308C40.335 13.8308 40.4826 13.8735 40.6113 13.959C40.7401 14.0444 40.842 14.184 40.9172 14.3777C40.9674 14.5098 40.9924 14.7172 40.9924 14.9998L40.9924 16.3464C40.9924 16.5424 41.0072 16.6768 41.0369 16.7498C41.0597 16.7999 41.1018 16.8426 41.1633 16.8779C41.2249 16.9132 41.3251 16.9309 41.4641 16.9309L41.4641 17.054L39.9192 17.054L39.9192 16.9309L39.9841 16.9309C40.1186 16.9309 40.2234 16.9047 40.2986 16.8523C40.351 16.8158 40.3886 16.7577 40.4114 16.678C40.4205 16.6392 40.425 16.5287 40.425 16.3464L40.425 14.9998C40.425 14.7445 40.3943 14.5645 40.3328 14.4597C40.2439 14.3139 40.1015 14.241 39.9055 14.241C39.7847 14.241 39.6634 14.2712 39.5415 14.3315C39.4196 14.3919 39.2721 14.5042 39.0989 14.6682L39.092 14.7058L39.0989 14.8528L39.0989 16.3464C39.0989 16.5606 39.1108 16.6939 39.1348 16.7463C39.1587 16.7987 39.2037 16.8426 39.2698 16.8779C39.3359 16.9132 39.4486 16.9309 39.6082 16.9309L39.6082 17.054L38.0256 17.054L38.0256 16.9309C38.1988 16.9309 38.3179 16.9104 38.3828 16.8694C38.4478 16.8284 38.4928 16.7668 38.5178 16.6848C38.5292 16.6461 38.5349 16.5333 38.5349 16.3464L38.5349 14.9998C38.5349 14.7445 38.4973 14.5611 38.4221 14.4495C38.3219 14.3036 38.1817 14.2307 38.0017 14.2307C37.8787 14.2307 37.7568 14.2638 37.636 14.3298C37.4469 14.4301 37.301 14.5429 37.1985 14.6682L37.1985 16.3464C37.1985 16.5515 37.2127 16.6848 37.2412 16.7463C37.2697 16.8079 37.3118 16.854 37.3677 16.8848C37.4235 16.9155 37.5369 16.9309 37.7078 16.9309L37.7078 17.054L36.1594 17.054L36.1594 16.9309C36.303 16.9309 36.4032 16.9155 36.4602 16.8848C36.5172 16.854 36.5605 16.805 36.5901 16.7378C36.6197 16.6706 36.6345 16.5401 36.6345 16.3464L36.6345 15.1501C36.6345 14.8061 36.6243 14.5839 36.6038 14.4836C36.5878 14.4084 36.5627 14.3566 36.5286 14.3281C36.4944 14.2996 36.4477 14.2854 36.3884 14.2854C36.3246 14.2854 36.2483 14.3025 36.1594 14.3367L36.1082 14.2136L37.0515 13.8308L37.1985 13.8308L37.1985 14.4973Z" fill-rule="evenodd"/>
<path clip-path="url(#TextBounds)" d="M24.9895 20.491L23.3113 25.447L23.0378 25.447L24.7161 20.491L24.9895 20.491Z" fill-rule="evenodd"/>
<path clip-path="url(#TextBounds)" d="M7.22974 33.6487L5.43872 29.7488L5.43872 32.8455C5.43872 33.1303 5.46948 33.308 5.53101 33.3787C5.61532 33.4744 5.74862 33.5222 5.93091 33.5222L6.09497 33.5222L6.09497 33.6487L4.48169 33.6487L4.48169 33.5222L4.64575 33.5222C4.84172 33.5222 4.98071 33.463 5.06274 33.3445C5.11287 33.2716 5.13794 33.1052 5.13794 32.8455L5.13794 29.8171C5.13794 29.6121 5.11515 29.4639 5.06958 29.3728C5.03768 29.3067 4.979 29.2515 4.89355 29.207C4.80811 29.1626 4.67082 29.1404 4.48169 29.1404L4.48169 29.0139L5.79419 29.0139L7.47583 32.6404L9.13013 29.0139L10.4426 29.0139L10.4426 29.1404L10.282 29.1404C10.0837 29.1404 9.9436 29.1996 9.86157 29.3181C9.81144 29.391 9.78638 29.5574 9.78638 29.8171L9.78638 32.8455C9.78638 33.1303 9.81828 33.308 9.88208 33.3787C9.96639 33.4744 10.0997 33.5222 10.282 33.5222L10.4426 33.5222L10.4426 33.6487L8.47388 33.6487L8.47388 33.5222L8.63794 33.5222C8.83618 33.5222 8.97518 33.463 9.05493 33.3445C9.10506 33.2716 9.13013 33.1052 9.13013 32.8455L9.13013 29.7488L7.34253 33.6487L7.22974 33.6487Z" fill-rule="evenodd"/>
<path clip-path="url(#TextBounds)" d="M12.5823 33.1975C12.261 33.4459 12.0593 33.5894 11.9773 33.6282C11.8542 33.6851 11.7232 33.7136 11.5842 33.7136C11.3678 33.7136 11.1895 33.6396 11.0493 33.4915C10.9092 33.3433 10.8391 33.1485 10.8391 32.907C10.8391 32.7543 10.8733 32.6222 10.9417 32.5105C11.0351 32.3556 11.1974 32.2097 11.4287 32.073C11.66 31.9363 12.0445 31.7699 12.5823 31.574L12.5823 31.4509C12.5823 31.1388 12.5327 30.9246 12.4336 30.8083C12.3345 30.6921 12.1903 30.634 12.0012 30.634C11.8577 30.634 11.7437 30.6728 11.6594 30.7502C11.5728 30.8277 11.5295 30.9166 11.5295 31.0168L11.5364 31.2151C11.5364 31.3199 11.5096 31.4008 11.4561 31.4578C11.4025 31.5147 11.3324 31.5432 11.2458 31.5432C11.1615 31.5432 11.0926 31.5136 11.0391 31.4543C10.9855 31.3951 10.9587 31.3142 10.9587 31.2117C10.9587 31.0157 11.059 30.8357 11.2595 30.6716C11.46 30.5076 11.7415 30.4255 12.1038 30.4255C12.3818 30.4255 12.6096 30.4722 12.7874 30.5657C12.9218 30.6363 13.0209 30.7468 13.0847 30.8972C13.1257 30.9952 13.1462 31.1957 13.1462 31.4988L13.1462 32.5618C13.1462 32.8603 13.1519 33.0431 13.1633 33.1104C13.1747 33.1776 13.1935 33.2226 13.2197 33.2454C13.2459 33.2681 13.2761 33.2795 13.3103 33.2795C13.3468 33.2795 13.3787 33.2716 13.406 33.2556C13.4539 33.226 13.5461 33.1428 13.6829 33.0061L13.6829 33.1975C13.4277 33.5393 13.1838 33.7102 12.9514 33.7102C12.8398 33.7102 12.7509 33.6715 12.6848 33.594C12.6187 33.5165 12.5846 33.3844 12.5823 33.1975ZM12.5823 32.9753L12.5823 31.7825C12.2382 31.9192 12.016 32.016 11.9158 32.073C11.7358 32.1733 11.607 32.2781 11.5295 32.3875C11.4521 32.4968 11.4133 32.6165 11.4133 32.7463C11.4133 32.9104 11.4623 33.0465 11.5603 33.1548C11.6583 33.263 11.7711 33.3171 11.8987 33.3171C12.0719 33.3171 12.2997 33.2032 12.5823 32.9753Z" fill-rule="evenodd"/>
<path clip-path="url(#TextBounds)" d="M16.1267 33.2966C15.974 33.4561 15.8248 33.5706 15.679 33.6401C15.5331 33.7096 15.3759 33.7444 15.2073 33.7444C14.8655 33.7444 14.567 33.6014 14.3118 33.3154C14.0566 33.0295 13.929 32.662 13.929 32.2131C13.929 31.7642 14.0702 31.3535 14.3528 30.981C14.6353 30.6084 14.9988 30.4221 15.4431 30.4221C15.7188 30.4221 15.9467 30.5098 16.1267 30.6853L16.1267 30.1077C16.1267 29.7499 16.1182 29.53 16.1011 29.448C16.084 29.366 16.0572 29.3101 16.0208 29.2805C15.9843 29.2509 15.9387 29.2361 15.884 29.2361C15.8248 29.2361 15.7462 29.2543 15.6482 29.2908L15.6038 29.1711L16.5369 28.7883L16.6907 28.7883L16.6907 32.408C16.6907 32.7748 16.6992 32.9987 16.7163 33.0796C16.7334 33.1605 16.7607 33.2169 16.7983 33.2488C16.8359 33.2807 16.8798 33.2966 16.9299 33.2966C16.9915 33.2966 17.0735 33.2773 17.176 33.2385L17.2136 33.3582L16.2839 33.7444L16.1267 33.7444L16.1267 33.2966ZM16.1267 33.0574L16.1267 31.4441C16.113 31.2891 16.072 31.1479 16.0037 31.0203C15.9353 30.8927 15.8447 30.7964 15.7319 30.7314C15.6191 30.6665 15.5092 30.634 15.4021 30.634C15.2016 30.634 15.0227 30.724 14.8655 30.9041C14.6581 31.141 14.5544 31.4874 14.5544 31.9431C14.5544 32.4034 14.6547 32.756 14.8552 33.001C15.0557 33.2459 15.2791 33.3684 15.5251 33.3684C15.7325 33.3684 15.933 33.2647 16.1267 33.0574Z" fill-rule="evenodd"/>
<path clip-path="url(#TextBounds)" d="M17.1897 30.8289L18.1536 30.4392L18.2834 30.4392L18.2834 31.1707C18.4452 30.8949 18.6076 30.7018 18.7705 30.5913C18.9334 30.4808 19.1049 30.4255 19.2849 30.4255C19.5994 30.4255 19.8614 30.5486 20.071 30.7947C20.3285 31.0955 20.4573 31.4874 20.4573 31.9705C20.4573 32.5105 20.3023 32.9571 19.9924 33.3103C19.7372 33.5997 19.4159 33.7444 19.0286 33.7444C18.8599 33.7444 18.7141 33.7205 18.5911 33.6726C18.4999 33.6384 18.3974 33.5701 18.2834 33.4675L18.2834 34.4211C18.2834 34.6353 18.2965 34.7715 18.3228 34.8296C18.349 34.8877 18.3945 34.9338 18.4595 34.968C18.5244 35.0022 18.6423 35.0193 18.8132 35.0193L18.8132 35.1458L17.1726 35.1458L17.1726 35.0193L17.2581 35.0193C17.3834 35.0216 17.4905 34.9976 17.5793 34.9475C17.6226 34.9224 17.6562 34.882 17.6802 34.8262C17.7041 34.7703 17.7161 34.6285 17.7161 34.4006L17.7161 31.4407C17.7161 31.2379 17.7069 31.1091 17.6887 31.0544C17.6705 30.9998 17.6414 30.9587 17.6016 30.9314C17.5617 30.9041 17.5076 30.8904 17.4392 30.8904C17.3845 30.8904 17.315 30.9063 17.2307 30.9382L17.1897 30.8289ZM18.2834 31.3723L18.2834 32.5413C18.2834 32.7942 18.2937 32.9605 18.3142 33.0403C18.3461 33.1724 18.4242 33.2887 18.5483 33.3889C18.6725 33.4892 18.8292 33.5393 19.0183 33.5393C19.2462 33.5393 19.4307 33.4504 19.572 33.2727C19.7566 33.0403 19.8489 32.7133 19.8489 32.2917C19.8489 31.8132 19.7441 31.4452 19.5344 31.1877C19.3886 31.01 19.2154 30.9211 19.0149 30.9211C18.9055 30.9211 18.7973 30.9485 18.6902 31.0032C18.6082 31.0442 18.4726 31.1672 18.2834 31.3723Z" fill-rule="evenodd"/>
<path clip-path="url(#TextBounds)" d="M22.6892 33.1975C22.3679 33.4459 22.1663 33.5894 22.0842 33.6282C21.9612 33.6851 21.8302 33.7136 21.6912 33.7136C21.4747 33.7136 21.2964 33.6396 21.1562 33.4915C21.0161 33.3433 20.946 33.1485 20.946 32.907C20.946 32.7543 20.9802 32.6222 21.0486 32.5105C21.142 32.3556 21.3044 32.2097 21.5356 32.073C21.7669 31.9363 22.1514 31.7699 22.6892 31.574L22.6892 31.4509C22.6892 31.1388 22.6396 30.9246 22.5405 30.8083C22.4414 30.6921 22.2973 30.634 22.1082 30.634C21.9646 30.634 21.8507 30.6728 21.7664 30.7502C21.6798 30.8277 21.6365 30.9166 21.6365 31.0168L21.6433 31.2151C21.6433 31.3199 21.6165 31.4008 21.563 31.4578C21.5094 31.5147 21.4394 31.5432 21.3528 31.5432C21.2685 31.5432 21.1995 31.5136 21.146 31.4543C21.0924 31.3951 21.0657 31.3142 21.0657 31.2117C21.0657 31.0157 21.1659 30.8357 21.3665 30.6716C21.567 30.5076 21.8484 30.4255 22.2107 30.4255C22.4887 30.4255 22.7166 30.4722 22.8943 30.5657C23.0287 30.6363 23.1278 30.7468 23.1917 30.8972C23.2327 30.9952 23.2532 31.1957 23.2532 31.4988L23.2532 32.5618C23.2532 32.8603 23.2589 33.0431 23.2703 33.1104C23.2817 33.1776 23.3005 33.2226 23.3267 33.2454C23.3529 33.2681 23.3831 33.2795 23.4172 33.2795C23.4537 33.2795 23.4856 33.2716 23.5129 33.2556C23.5608 33.226 23.6531 33.1428 23.7898 33.0061L23.7898 33.1975C23.5346 33.5393 23.2908 33.7102 23.0583 33.7102C22.9467 33.7102 22.8578 33.6715 22.7917 33.594C22.7257 33.5165 22.6915 33.3844 22.6892 33.1975ZM22.6892 32.9753L22.6892 31.7825C22.3451 31.9192 22.123 32.016 22.0227 32.073C21.8427 32.1733 21.7139 32.2781 21.6365 32.3875C21.559 32.4968 21.5203 32.6165 21.5203 32.7463C21.5203 32.9104 21.5693 33.0465 21.6672 33.1548C21.7652 33.263 21.878 33.3171 22.0056 33.3171C22.1788 33.3171 22.4067 33.2032 22.6892 32.9753Z" fill-rule="evenodd"/>
<path clip-path="url(#TextBounds)" d="M24.9485 28.7883L24.9485 31.9055L25.7449 31.1775C25.9135 31.0225 26.0115 30.9246 26.0388 30.8835C26.057 30.8562 26.0662 30.8289 26.0662 30.8015C26.0662 30.7559 26.0474 30.7166 26.0098 30.6836C25.9722 30.6506 25.9101 30.6318 25.8235 30.6272L25.8235 30.5178L27.1838 30.5178L27.1838 30.6272C26.997 30.6318 26.8415 30.6602 26.7173 30.7126C26.5931 30.7651 26.4569 30.8585 26.3088 30.9929L25.5056 31.7346L26.3088 32.7498C26.5321 33.03 26.6825 33.2078 26.76 33.283C26.8694 33.3901 26.9651 33.4596 27.0471 33.4915C27.1041 33.5142 27.2032 33.5256 27.3445 33.5256L27.3445 33.6487L25.8235 33.6487L25.8235 33.5256C25.9101 33.5234 25.9687 33.5103 25.9995 33.4863C26.0303 33.4624 26.0457 33.4288 26.0457 33.3855C26.0457 33.3331 26.0001 33.2488 25.9089 33.1326L24.9485 31.9055L24.9485 32.9446C24.9485 33.1474 24.9627 33.2807 24.9912 33.3445C25.0197 33.4083 25.0601 33.4539 25.1125 33.4812C25.165 33.5085 25.2789 33.5234 25.4543 33.5256L25.4543 33.6487L23.8616 33.6487L23.8616 33.5256C24.0211 33.5256 24.1407 33.5063 24.2205 33.4675C24.2683 33.4425 24.3048 33.4037 24.3298 33.3513C24.364 33.2761 24.3811 33.1462 24.3811 32.9617L24.3811 30.1111C24.3811 29.7488 24.3731 29.5272 24.3572 29.4463C24.3412 29.3654 24.315 29.3096 24.2786 29.2788C24.2421 29.248 24.1943 29.2327 24.135 29.2327C24.0872 29.2327 24.0154 29.252 23.9197 29.2908L23.8616 29.1711L24.7913 28.7883L24.9485 28.7883Z" fill-rule="evenodd"/>
<path clip-path="url(#TextBounds)" d="M28.4485 28.7883L28.4485 31.9055L29.2449 31.1775C29.4135 31.0225 29.5115 30.9246 29.5388 30.8835C29.557 30.8562 29.5662 30.8289 29.5662 30.8015C29.5662 30.7559 29.5474 30.7166 29.5098 30.6836C29.4722 30.6506 29.4101 30.6318 29.3235 30.6272L29.3235 30.5178L30.6838 30.5178L30.6838 30.6272C30.497 30.6318 30.3415 30.6602 30.2173 30.7126C30.0931 30.7651 29.9569 30.8585 29.8088 30.9929L29.0056 31.7346L29.8088 32.7498C30.0321 33.03 30.1825 33.2078 30.26 33.283C30.3694 33.3901 30.4651 33.4596 30.5471 33.4915C30.6041 33.5142 30.7032 33.5256 30.8445 33.5256L30.8445 33.6487L29.3235 33.6487L29.3235 33.5256C29.4101 33.5234 29.4687 33.5103 29.4995 33.4863C29.5303 33.4624 29.5457 33.4288 29.5457 33.3855C29.5457 33.3331 29.5001 33.2488 29.4089 33.1326L28.4485 31.9055L28.4485 32.9446C28.4485 33.1474 28.4627 33.2807 28.4912 33.3445C28.5197 33.4083 28.5601 33.4539 28.6125 33.4812C28.665 33.5085 28.7789 33.5234 28.9543 33.5256L28.9543 33.6487L27.3616 33.6487L27.3616 33.5256C27.5211 33.5256 27.6407 33.5063 27.7205 33.4675C27.7683 33.4425 27.8048 33.4037 27.8298 33.3513C27.864 33.2761 27.8811 33.1462 27.8811 32.9617L27.8811 30.1111C27.8811 29.7488 27.8731 29.5272 27.8572 29.4463C27.8412 29.3654 27.815 29.3096 27.7786 29.2788C27.7421 29.248 27.6943 29.2327 27.635 29.2327C27.5872 29.2327 27.5154 29.252 27.4197 29.2908L27.3616 29.1711L28.2913 28.7883L28.4485 28.7883Z" fill-rule="evenodd"/>
<path clip-path="url(#TextBounds)" d="M31.5486 31.697C31.5463 32.1619 31.6591 32.5264 31.887 32.7908C32.1148 33.0551 32.3826 33.1873 32.6902 33.1873C32.8953 33.1873 33.0736 33.1309 33.2251 33.0181C33.3766 32.9053 33.5037 32.7122 33.6062 32.4387L33.7122 32.5071C33.6643 32.8193 33.5253 33.1035 33.2952 33.3599C33.065 33.6162 32.7768 33.7444 32.4304 33.7444C32.0544 33.7444 31.7326 33.598 31.4648 33.3052C31.1971 33.0124 31.0632 32.6187 31.0632 32.1243C31.0632 31.5888 31.2005 31.1712 31.4751 30.8716C31.7497 30.5719 32.0943 30.4221 32.509 30.4221C32.8599 30.4221 33.1482 30.5378 33.3738 30.769C33.5994 31.0003 33.7122 31.3097 33.7122 31.697L31.5486 31.697ZM31.5486 31.4988L32.9978 31.4988C32.9864 31.2983 32.9625 31.157 32.926 31.075C32.8691 30.9473 32.7842 30.8471 32.6714 30.7742C32.5586 30.7013 32.4407 30.6648 32.3176 30.6648C32.1285 30.6648 31.9593 30.7383 31.8101 30.8853C31.6608 31.0322 31.5736 31.2367 31.5486 31.4988Z" fill-rule="evenodd"/>
<path clip-path="url(#TextBounds)" d="M35.0486 28.7883L35.0486 31.0784C35.3015 30.8004 35.502 30.6221 35.6501 30.5435C35.7983 30.4648 35.9464 30.4255 36.0945 30.4255C36.2722 30.4255 36.4249 30.4745 36.5525 30.5725C36.6801 30.6705 36.7747 30.8243 36.8362 31.0339C36.8795 31.1798 36.9011 31.4464 36.9011 31.8337L36.9011 32.9412C36.9011 33.1394 36.9171 33.275 36.949 33.3479C36.9718 33.4026 37.0105 33.4459 37.0652 33.4778C37.1199 33.5097 37.2201 33.5256 37.366 33.5256L37.366 33.6487L35.8279 33.6487L35.8279 33.5256L35.8997 33.5256C36.0455 33.5256 36.1469 33.5034 36.2039 33.459C36.2608 33.4146 36.3007 33.349 36.3235 33.2625C36.3303 33.226 36.3337 33.1189 36.3337 32.9412L36.3337 31.8337C36.3337 31.4919 36.3161 31.2675 36.2808 31.1604C36.2454 31.0533 36.189 30.973 36.1116 30.9194C36.0341 30.8659 35.9407 30.8391 35.8313 30.8391C35.7196 30.8391 35.6034 30.8687 35.4827 30.928C35.3619 30.9872 35.2172 31.1069 35.0486 31.2869L35.0486 32.9412C35.0486 33.1554 35.0605 33.2887 35.0845 33.3411C35.1084 33.3935 35.1528 33.4373 35.2178 33.4727C35.2827 33.508 35.3949 33.5256 35.5544 33.5256L35.5544 33.6487L34.0027 33.6487L34.0027 33.5256C34.1417 33.5256 34.2511 33.504 34.3308 33.4607C34.3764 33.4379 34.4128 33.3946 34.4402 33.3308C34.4675 33.267 34.4812 33.1371 34.4812 32.9412L34.4812 30.1077C34.4812 29.7499 34.4727 29.53 34.4556 29.448C34.4385 29.366 34.4123 29.3101 34.377 29.2805C34.3416 29.2509 34.2944 29.2361 34.2351 29.2361C34.1873 29.2361 34.1098 29.2543 34.0027 29.2908L33.9548 29.1711L34.8914 28.7883L35.0486 28.7883Z" fill-rule="evenodd"/>
<path clip-path="url(#TextBounds)" d="M40.3738 30.5178L40.3738 32.4148C40.3738 32.7771 40.3823 32.9987 40.3994 33.0796C40.4165 33.1605 40.4438 33.2169 40.4814 33.2488C40.519 33.2807 40.5629 33.2966 40.613 33.2966C40.6837 33.2966 40.7634 33.2773 40.8523 33.2385L40.9001 33.3582L39.9636 33.7444L39.8098 33.7444L39.8098 33.0813C39.5409 33.373 39.3359 33.5564 39.1946 33.6316C39.0533 33.7068 38.9041 33.7444 38.7468 33.7444C38.5714 33.7444 38.4193 33.6937 38.2905 33.5923C38.1618 33.4909 38.0723 33.3604 38.0222 33.2009C37.9721 33.0414 37.947 32.8158 37.947 32.5242L37.947 31.1262C37.947 30.9781 37.9311 30.8756 37.8992 30.8186C37.8673 30.7616 37.82 30.7178 37.7573 30.687C37.6947 30.6562 37.5813 30.642 37.4172 30.6443L37.4172 30.5178L38.5144 30.5178L38.5144 32.613C38.5144 32.9047 38.5651 33.0961 38.6665 33.1873C38.7679 33.2784 38.8904 33.324 39.0339 33.324C39.1319 33.324 39.243 33.2932 39.3672 33.2317C39.4914 33.1702 39.6389 33.0528 39.8098 32.8796L39.8098 31.1057C39.8098 30.928 39.7773 30.8078 39.7124 30.7451C39.6475 30.6825 39.5125 30.6488 39.3074 30.6443L39.3074 30.5178L40.3738 30.5178Z" fill-rule="evenodd"/>
<path clip-path="url(#TextBounds)" d="M43.1526 30.4255L43.1526 31.4919L43.0398 31.4919C42.9532 31.157 42.8421 30.9291 42.7065 30.8083C42.571 30.6876 42.3984 30.6272 42.1887 30.6272C42.0292 30.6272 41.9005 30.6694 41.8025 30.7537C41.7045 30.838 41.6555 30.9314 41.6555 31.0339C41.6555 31.1615 41.692 31.2709 41.7649 31.3621C41.8355 31.4555 41.9791 31.5546 42.1956 31.6594L42.6946 31.9021C43.1571 32.1277 43.3884 32.425 43.3884 32.7942C43.3884 33.079 43.2808 33.3086 43.0654 33.4829C42.8501 33.6572 42.6091 33.7444 42.3425 33.7444C42.1511 33.7444 41.9324 33.7102 41.6863 33.6418C41.6111 33.6191 41.5496 33.6077 41.5017 33.6077C41.4493 33.6077 41.4083 33.6373 41.3787 33.6965L41.2659 33.6965L41.2659 32.5789L41.3787 32.5789C41.4425 32.8979 41.5644 33.1383 41.7444 33.3C41.9244 33.4618 42.1261 33.5427 42.3494 33.5427C42.5066 33.5427 42.6348 33.4966 42.7339 33.4043C42.833 33.312 42.8826 33.2009 42.8826 33.071C42.8826 32.9138 42.8273 32.7817 42.7168 32.6746C42.6063 32.5675 42.3858 32.4319 42.0554 32.2678C41.725 32.1038 41.5085 31.9556 41.406 31.8235C41.3035 31.6936 41.2522 31.5295 41.2522 31.3313C41.2522 31.0738 41.3405 30.8585 41.5171 30.6853C41.6937 30.5121 41.9221 30.4255 42.2024 30.4255C42.3254 30.4255 42.4747 30.4517 42.6501 30.5042C42.7664 30.5383 42.8438 30.5554 42.8826 30.5554C42.919 30.5554 42.9475 30.5474 42.968 30.5315C42.9885 30.5155 43.0125 30.4802 43.0398 30.4255L43.1526 30.4255Z" fill-rule="evenodd"/>
</g>
</g>
</svg>
