<?xml version="1.0" encoding="UTF-8" standalone="no"?>
<!DOCTYPE svg PUBLIC "-//W3C//DTD SVG 1.1//EN" "http://www.w3.org/Graphics/SVG/1.1/DTD/svg11.dtd">

<!-- Created with Vectornator (http://vectornator.io/) -->
<svg height="100%" stroke-miterlimit="10" style="fill-rule:nonzero;clip-rule:evenodd;stroke-linecap:round;stroke-linejoin:round;" version="1.1" viewBox="0 0 48 48" width="100%" xml:space="preserve" xmlns="http://www.w3.org/2000/svg" xmlns:vectornator="http://vectornator.io" xmlns:xlink="http://www.w3.org/1999/xlink">
<metadata>
<vectornator:setting key="IsTimeLapseWatermarkDisabled" value="false"/>
<vectornator:setting key="UndoHistoryDisabled" value="true"/>
<vectornator:setting key="VNDimensionsVisible" value="true"/>
<vectornator:setting key="VNSnapToGuides" value="true"/>
<vectornator:setting key="WDCMYKEnabledKey" value="false"/>
<vectornator:setting key="WDDisplayWhiteBackground" value="false"/>
<vectornator:setting key="WDDynamicGuides" value="false"/>
<vectornator:setting key="WDGuidesVisible" value="true"/>
<vectornator:setting key="WDIsolateActiveLayer" value="false"/>
<vectornator:setting key="WDOutlineMode" value="false"/>
<vectornator:setting key="WDRulersVisible" value="true"/>
<vectornator:setting key="WDSnapToEdges" value="false"/>
<vectornator:setting key="WDSnapToGrid" value="false"/>
<vectornator:setting key="WDSnapToPoints" value="false"/>
<vectornator:setting key="WDUnits" value="Pixels"/>
</metadata>
<defs>
<clipPath id="TextBounds">
<rect height="13.4673" width="44" x="2" y="17.2664"/>
</clipPath>
</defs>
<g id="Layer-1" vectornator:layerName="Layer 1">
<path d="M1 1L47 1L47 47L1 47L1 1Z" fill="#609744" fill-rule="evenodd" opacity="1" stroke="#000000" stroke-linecap="round" stroke-linejoin="round" stroke-width="1.47"/>
<g fill="#000000" opacity="1" stroke="none">
<path clip-path="url(#TextBounds)" d="M11.3376 19.9832L11.3376 20.1819C11.0798 20.2284 10.8847 20.3108 10.7522 20.429C10.5624 20.6044 10.3941 20.873 10.2473 21.2346L7.70679 27.4329L7.50806 27.4329L4.77954 21.1541C4.63989 20.8318 4.54142 20.6348 4.48413 20.5632C4.39461 20.4522 4.28451 20.3654 4.15381 20.3027C4.02311 20.2401 3.84676 20.1998 3.62476 20.1819L3.62476 19.9832L6.60034 19.9832L6.60034 20.1819C6.26375 20.2141 6.04533 20.2714 5.94507 20.3538C5.84481 20.4361 5.79468 20.5417 5.79468 20.6707C5.79468 20.8497 5.87703 21.129 6.04175 21.5085L7.89478 25.7786L9.61353 21.5623C9.78182 21.1469 9.86597 20.8586 9.86597 20.6975C9.86597 20.5937 9.81405 20.4943 9.71021 20.3994C9.60636 20.3045 9.43091 20.2374 9.18384 20.198C9.16593 20.1944 9.1355 20.189 9.09253 20.1819L9.09253 19.9832L11.3376 19.9832Z" fill-rule="evenodd"/>
<path clip-path="url(#TextBounds)" d="M13.384 26.5574C12.8792 26.9477 12.5623 27.1733 12.4333 27.2341C12.24 27.3236 12.0341 27.3684 11.8157 27.3684C11.4755 27.3684 11.1953 27.252 10.9751 27.0193C10.7549 26.7865 10.6448 26.4804 10.6448 26.1008C10.6448 25.8609 10.6985 25.6532 10.8059 25.4778C10.9527 25.2343 11.2078 25.0051 11.5713 24.7903C11.9347 24.5754 12.539 24.314 13.384 24.0061L13.384 23.8127C13.384 23.3222 13.3062 22.9856 13.1504 22.803C12.9946 22.6204 12.7681 22.5291 12.4709 22.5291C12.2454 22.5291 12.0663 22.5899 11.9338 22.7117C11.7978 22.8334 11.7297 22.9731 11.7297 23.1306L11.7405 23.4421C11.7405 23.6069 11.6984 23.734 11.6143 23.8235C11.5301 23.913 11.42 23.9578 11.2839 23.9578C11.1514 23.9578 11.0431 23.9112 10.959 23.8181C10.8748 23.725 10.8328 23.5979 10.8328 23.4368C10.8328 23.1288 10.9903 22.8459 11.3054 22.5881C11.6205 22.3303 12.0627 22.2014 12.6321 22.2014C13.0689 22.2014 13.427 22.2748 13.7063 22.4216C13.9176 22.5326 14.0733 22.7063 14.1736 22.9426C14.238 23.0966 14.2703 23.4117 14.2703 23.8879L14.2703 25.5583C14.2703 26.0274 14.2792 26.3148 14.2971 26.4204C14.315 26.526 14.3446 26.5968 14.3857 26.6326C14.4269 26.6684 14.4744 26.6863 14.5281 26.6863C14.5854 26.6863 14.6355 26.6737 14.6785 26.6487C14.7537 26.6021 14.8987 26.4714 15.1135 26.2566L15.1135 26.5574C14.7125 27.0945 14.3293 27.363 13.9641 27.363C13.7887 27.363 13.649 27.3022 13.5452 27.1804C13.4413 27.0587 13.3876 26.851 13.384 26.5574ZM13.384 26.2083L13.384 24.3337C12.8433 24.5486 12.4942 24.7008 12.3367 24.7903C12.0538 24.9478 11.8515 25.1125 11.7297 25.2844C11.608 25.4563 11.5471 25.6443 11.5471 25.8484C11.5471 26.1062 11.6241 26.3201 11.7781 26.4902C11.932 26.6603 12.1093 26.7454 12.3098 26.7454C12.5819 26.7454 12.94 26.5663 13.384 26.2083Z" fill-rule="evenodd"/>
<path clip-path="url(#TextBounds)" d="M16.9128 23.2434C17.4893 22.5487 18.039 22.2014 18.5618 22.2014C18.8303 22.2014 19.0613 22.2686 19.2546 22.4028C19.448 22.5371 19.602 22.7582 19.7166 23.0662C19.7953 23.281 19.8347 23.6104 19.8347 24.0544L19.8347 26.1545C19.8347 26.4661 19.8598 26.6773 19.9099 26.7883C19.9493 26.8778 20.0129 26.9477 20.1006 26.9978C20.1883 27.0479 20.3503 27.073 20.5867 27.073L20.5867 27.2664L18.1536 27.2664L18.1536 27.073L18.2556 27.073C18.4848 27.073 18.645 27.0381 18.7363 26.9683C18.8276 26.8984 18.8912 26.7955 18.927 26.6594C18.9413 26.6057 18.9485 26.4374 18.9485 26.1545L18.9485 24.1404C18.9485 23.6928 18.8903 23.3678 18.7739 23.1655C18.6576 22.9632 18.4615 22.8621 18.1858 22.8621C17.7597 22.8621 17.3354 23.0948 16.9128 23.5603L16.9128 26.1545C16.9128 26.4875 16.9325 26.6934 16.9719 26.7722C17.0221 26.8761 17.091 26.9521 17.1787 27.0005C17.2664 27.0488 17.4446 27.073 17.7131 27.073L17.7131 27.2664L15.28 27.2664L15.28 27.073L15.3875 27.073C15.6381 27.073 15.8073 27.0094 15.895 26.8823C15.9827 26.7552 16.0266 26.5126 16.0266 26.1545L16.0266 24.3284C16.0266 23.7375 16.0132 23.3777 15.9863 23.2488C15.9595 23.1199 15.9183 23.0321 15.8628 22.9856C15.8073 22.939 15.733 22.9158 15.6399 22.9158C15.5396 22.9158 15.4197 22.9426 15.28 22.9963L15.1995 22.803L16.6819 22.2014L16.9128 22.2014L16.9128 23.2434Z" fill-rule="evenodd"/>
<path clip-path="url(#TextBounds)" d="M24.4539 26.7131C24.2139 26.9638 23.9794 27.1437 23.7502 27.2529C23.5211 27.3621 23.274 27.4167 23.009 27.4167C22.4719 27.4167 22.0028 27.1921 21.6018 26.7427C21.2008 26.2933 21.0002 25.7159 21.0002 25.0105C21.0002 24.3051 21.2222 23.6597 21.6663 23.0742C22.1103 22.4888 22.6814 22.196 23.3796 22.196C23.8129 22.196 24.171 22.3339 24.4539 22.6096L24.4539 21.7019C24.4539 21.1397 24.4404 20.7942 24.4136 20.6653C24.3867 20.5364 24.3446 20.4486 24.2874 20.4021C24.2301 20.3556 24.1584 20.3323 24.0725 20.3323C23.9794 20.3323 23.8559 20.3609 23.7019 20.4182L23.6321 20.2302L25.0984 19.6287L25.3401 19.6287L25.3401 25.3167C25.3401 25.8931 25.3535 26.245 25.3804 26.3721C25.4072 26.4992 25.4502 26.5878 25.5093 26.6379C25.5684 26.6881 25.6373 26.7131 25.7161 26.7131C25.8127 26.7131 25.9417 26.6827 26.1028 26.6218L26.1619 26.8098L24.7009 27.4167L24.4539 27.4167L24.4539 26.7131ZM24.4539 26.3372L24.4539 23.802C24.4324 23.5585 24.3679 23.3365 24.2605 23.136C24.1531 22.9355 24.0107 22.7842 23.8335 22.6821C23.6562 22.5801 23.4835 22.5291 23.3152 22.5291C23.0001 22.5291 22.719 22.6705 22.4719 22.9534C22.1461 23.3258 21.9832 23.87 21.9832 24.5862C21.9832 25.3095 22.1407 25.8636 22.4558 26.2485C22.7709 26.6335 23.1218 26.8259 23.5085 26.8259C23.8344 26.8259 24.1495 26.663 24.4539 26.3372Z" fill-rule="evenodd"/>
<path clip-path="url(#TextBounds)" d="M26.1243 22.8352L27.6389 22.2229L27.843 22.2229L27.843 23.3723C28.0972 22.939 28.3524 22.6356 28.6084 22.4619C28.8644 22.2882 29.1339 22.2014 29.4167 22.2014C29.9109 22.2014 30.3227 22.3948 30.6521 22.7815C31.0567 23.2542 31.259 23.87 31.259 24.6292C31.259 25.4778 31.0155 26.1796 30.5286 26.7346C30.1275 27.1894 29.6226 27.4167 29.0139 27.4167C28.7489 27.4167 28.5198 27.3792 28.3264 27.304C28.1832 27.2502 28.0221 27.1428 27.843 26.9817L27.843 28.4802C27.843 28.8168 27.8636 29.0308 27.9048 29.1221C27.946 29.2134 28.0176 29.2859 28.1196 29.3396C28.2217 29.3933 28.407 29.4202 28.6755 29.4202L28.6755 29.6189L26.0974 29.6189L26.0974 29.4202L26.2317 29.4202C26.4286 29.4237 26.5969 29.3861 26.7366 29.3074C26.8046 29.268 26.8574 29.2044 26.895 29.1167C26.9326 29.029 26.9514 28.8061 26.9514 28.448L26.9514 23.7966C26.9514 23.4779 26.9371 23.2756 26.9084 23.1897C26.8798 23.1038 26.8341 23.0393 26.7715 22.9963C26.7088 22.9534 26.6238 22.9319 26.5164 22.9319C26.4304 22.9319 26.3212 22.9569 26.1887 23.0071L26.1243 22.8352ZM27.843 23.6892L27.843 25.5261C27.843 25.9236 27.8591 26.185 27.8914 26.3103C27.9415 26.518 28.0641 26.7006 28.2593 26.8582C28.4544 27.0157 28.7006 27.0945 28.9978 27.0945C29.3559 27.0945 29.6459 26.9548 29.8679 26.6755C30.158 26.3103 30.303 25.7965 30.303 25.134C30.303 24.3821 30.1383 23.8038 29.8088 23.3992C29.5797 23.1199 29.3075 22.9802 28.9924 22.9802C28.8206 22.9802 28.6505 23.0232 28.4822 23.1091C28.3533 23.1736 28.1402 23.3669 27.843 23.6892Z" fill-rule="evenodd"/>
<path clip-path="url(#TextBounds)" d="M34.385 22.2014C35.1298 22.2014 35.7278 22.4843 36.179 23.05C36.5621 23.5334 36.7537 24.0885 36.7537 24.7151C36.7537 25.1555 36.648 25.6013 36.4368 26.0525C36.2255 26.5037 35.9346 26.8438 35.564 27.073C35.1934 27.3022 34.7807 27.4167 34.3259 27.4167C33.5847 27.4167 32.9957 27.1213 32.5588 26.5305C32.19 26.0328 32.0056 25.4742 32.0056 24.8547C32.0056 24.4036 32.1175 23.9551 32.3413 23.5093C32.5651 23.0635 32.8596 22.734 33.2249 22.521C33.5901 22.3079 33.9768 22.2014 34.385 22.2014ZM34.2185 22.5505C34.0287 22.5505 33.8381 22.6069 33.6465 22.7197C33.4549 22.8325 33.3 23.0304 33.1819 23.3132C33.0637 23.5961 33.0046 23.9596 33.0046 24.4036C33.0046 25.1197 33.147 25.7374 33.4316 26.2566C33.7163 26.7758 34.0914 27.0354 34.5569 27.0354C34.9042 27.0354 35.1907 26.8922 35.4163 26.6057C35.6418 26.3193 35.7546 25.8269 35.7546 25.1287C35.7546 24.255 35.5667 23.5675 35.1907 23.0662C34.9364 22.7224 34.6124 22.5505 34.2185 22.5505Z" fill-rule="evenodd"/>
<path clip-path="url(#TextBounds)" d="M40.6584 22.2014L40.6584 23.8772L40.4812 23.8772C40.3451 23.3508 40.1706 22.9928 39.9575 22.803C39.7445 22.6132 39.4732 22.5183 39.1438 22.5183C38.8931 22.5183 38.6908 22.5846 38.5369 22.717C38.3829 22.8495 38.3059 22.9963 38.3059 23.1575C38.3059 23.358 38.3632 23.5299 38.4778 23.6731C38.5888 23.8199 38.8144 23.9757 39.1545 24.1404L39.9387 24.5217C40.6656 24.8762 41.0291 25.3435 41.0291 25.9236C41.0291 26.3712 40.8599 26.7319 40.5215 27.0059C40.1831 27.2798 39.8044 27.4167 39.3855 27.4167C39.0847 27.4167 38.741 27.363 38.3542 27.2556C38.2361 27.2198 38.1394 27.2019 38.0642 27.2019C37.9819 27.2019 37.9174 27.2485 37.8708 27.3416L37.6936 27.3416L37.6936 25.5852L37.8708 25.5852C37.9711 26.0865 38.1627 26.4643 38.4456 26.7185C38.7284 26.9727 39.0453 27.0999 39.3962 27.0999C39.6433 27.0999 39.8447 27.0273 40.0005 26.8823C40.1563 26.7373 40.2341 26.5627 40.2341 26.3586C40.2341 26.1116 40.1473 25.9039 39.9736 25.7356C39.8 25.5673 39.4535 25.3542 38.9343 25.0964C38.4151 24.8386 38.075 24.6059 37.9138 24.3982C37.7527 24.1941 37.6721 23.9363 37.6721 23.6248C37.6721 23.2201 37.8109 22.8818 38.0884 22.6096C38.3659 22.3375 38.7249 22.2014 39.1653 22.2014C39.3586 22.2014 39.5932 22.2426 39.8689 22.325C40.0515 22.3787 40.1733 22.4055 40.2341 22.4055C40.2914 22.4055 40.3362 22.393 40.3684 22.3679C40.4006 22.3429 40.4382 22.2874 40.4812 22.2014L40.6584 22.2014Z" fill-rule="evenodd"/>
<path clip-path="url(#TextBounds)" d="M43.1882 20.7297L43.1882 22.3464L44.3376 22.3464L44.3376 22.7224L43.1882 22.7224L43.1882 25.9128C43.1882 26.2315 43.2339 26.4464 43.3252 26.5574C43.4165 26.6684 43.5338 26.7239 43.677 26.7239C43.7952 26.7239 43.9097 26.6872 44.0208 26.6138C44.1318 26.5404 44.2177 26.432 44.2786 26.2888L44.488 26.2888C44.3627 26.6397 44.1855 26.9038 43.9563 27.0811C43.7271 27.2583 43.4908 27.3469 43.2473 27.3469C43.0826 27.3469 42.9215 27.3013 42.7639 27.21C42.6064 27.1187 42.49 26.988 42.4148 26.8179C42.3396 26.6478 42.302 26.3855 42.302 26.031L42.302 22.7224L41.5232 22.7224L41.5232 22.5452C41.7201 22.4664 41.9215 22.333 42.1274 22.145C42.3333 21.957 42.5168 21.7341 42.678 21.4763C42.7603 21.3403 42.8749 21.0914 43.0217 20.7297L43.1882 20.7297Z" fill-rule="evenodd"/>
</g>
</g>
</svg>
