<?xml version="1.0" encoding="UTF-8" standalone="no"?>
<!DOCTYPE svg PUBLIC "-//W3C//DTD SVG 1.1//EN" "http://www.w3.org/Graphics/SVG/1.1/DTD/svg11.dtd"
[
<!ATTLIST g
  xmlns:vectornator CDATA #FIXED "http://vectornator.io"
  vectornator:layerName CDATA #IMPLIED >
<!ATTLIST g
  xmlns:vectornator CDATA #FIXED "http://vectornator.io"
  vectornator:mask CDATA #IMPLIED >
<!ATTLIST text
  xmlns:vectornator CDATA #FIXED "http://vectornator.io"
  vectornator:width CDATA #IMPLIED >
<!ATTLIST text
  xmlns:vectornator CDATA #FIXED "http://vectornator.io"
  vectornator:text CDATA #IMPLIED >

<!ATTLIST path
  xmlns:vectornator CDATA #FIXED "http://vectornator.io"
  vectornator:blendMode CDATA #IMPLIED >
<!ATTLIST path
  xmlns:vectornator CDATA #FIXED "http://vectornator.io"
  vectornator:shadowColor CDATA #IMPLIED >
<!ATTLIST path
  xmlns:vectornator CDATA #FIXED "http://vectornator.io"
  vectornator:shadowOpacity CDATA #IMPLIED >
<!ATTLIST path
  xmlns:vectornator CDATA #FIXED "http://vectornator.io"
  vectornator:shadowRadius CDATA #IMPLIED >
<!ATTLIST path
  xmlns:vectornator CDATA #FIXED "http://vectornator.io"
  vectornator:shadowOffset CDATA #IMPLIED >
<!ATTLIST path
  xmlns:vectornator CDATA #FIXED "http://vectornator.io"
  vectornator:shadowAngle CDATA #IMPLIED >

<!ATTLIST image
  xmlns:vectornator CDATA #FIXED "http://vectornator.io"
  vectornator:blendMode CDATA #IMPLIED >
<!ATTLIST image
  xmlns:vectornator CDATA #FIXED "http://vectornator.io"
  vectornator:shadowColor CDATA #IMPLIED >
<!ATTLIST image
  xmlns:vectornator CDATA #FIXED "http://vectornator.io"
  vectornator:shadowOpacity CDATA #IMPLIED >
<!ATTLIST image
  xmlns:vectornator CDATA #FIXED "http://vectornator.io"
  vectornator:shadowRadius CDATA #IMPLIED >
<!ATTLIST image
  xmlns:vectornator CDATA #FIXED "http://vectornator.io"
  vectornator:shadowOffset CDATA #IMPLIED >
<!ATTLIST image
  xmlns:vectornator CDATA #FIXED "http://vectornator.io"
  vectornator:shadowAngle CDATA #IMPLIED >

<!ATTLIST g
  xmlns:vectornator CDATA #FIXED "http://vectornator.io"
  vectornator:blendMode CDATA #IMPLIED >
<!ATTLIST g
  xmlns:vectornator CDATA #FIXED "http://vectornator.io"
  vectornator:shadowColor CDATA #IMPLIED >
<!ATTLIST g
  xmlns:vectornator CDATA #FIXED "http://vectornator.io"
  vectornator:shadowOpacity CDATA #IMPLIED >
<!ATTLIST g
  xmlns:vectornator CDATA #FIXED "http://vectornator.io"
  vectornator:shadowRadius CDATA #IMPLIED >
<!ATTLIST g
  xmlns:vectornator CDATA #FIXED "http://vectornator.io"
  vectornator:shadowOffset CDATA #IMPLIED >
<!ATTLIST g
  xmlns:vectornator CDATA #FIXED "http://vectornator.io"
  vectornator:shadowAngle CDATA #IMPLIED >

<!ENTITY % SVG.filter.extra.content  "| feDropShadow" >
<!ELEMENT feDropShadow EMPTY>
<!ATTLIST feDropShadow
  xmlns:svg CDATA #FIXED "http://www.w3.org/Graphics/SVG/1.1/DTD/svg11.dtd"
  dx CDATA #IMPLIED>
<!ATTLIST feDropShadow
  xmlns:svg CDATA #FIXED "http://www.w3.org/Graphics/SVG/1.1/DTD/svg11.dtd"
  dy CDATA #IMPLIED>
<!ATTLIST feDropShadow
  xmlns:svg CDATA #FIXED "http://www.w3.org/Graphics/SVG/1.1/DTD/svg11.dtd"
  stdDeviation CDATA #IMPLIED>
<!ATTLIST feDropShadow
  xmlns:svg CDATA #FIXED "http://www.w3.org/Graphics/SVG/1.1/DTD/svg11.dtd"
  flood-opacity CDATA #IMPLIED>
<!ATTLIST feDropShadow
  xmlns:svg CDATA #FIXED "http://www.w3.org/Graphics/SVG/1.1/DTD/svg11.dtd"
  in CDATA #IMPLIED>
<!ATTLIST feDropShadow
  xmlns:svg CDATA #FIXED "http://www.w3.org/Graphics/SVG/1.1/DTD/svg11.dtd"
  result CDATA #IMPLIED>
<!ATTLIST feDropShadow
  xmlns:svg CDATA #FIXED "http://www.w3.org/Graphics/SVG/1.1/DTD/svg11.dtd"
  flood-color CDATA #IMPLIED>
]
>
<!-- Created with Vectornator (http://vectornator.io/) -->
<svg height="100%" stroke-miterlimit="10" style="fill-rule:nonzero;clip-rule:evenodd;stroke-linecap:round;stroke-linejoin:round;" version="1.1" viewBox="0 0 48 48" width="100%" xml:space="preserve" xmlns="http://www.w3.org/2000/svg" xmlns:vectornator="http://vectornator.io" xmlns:xlink="http://www.w3.org/1999/xlink">
<defs>
<clipPath id="TextBounds">
<rect height="10.3398" width="44" x="2" y="14.1602"/>
</clipPath>
</defs>
<g id="Layer-1" vectornator:layerName="Layer 1">
<path d="M1 1L47 1L47 47L1 47L1 1Z" fill="#609744" fill-rule="evenodd" opacity="1" stroke="#000000" stroke-linecap="round" stroke-linejoin="round" stroke-width="1.47"/>
<g fill="#000000" opacity="1" stroke="none">
<path clip-path="url(#TextBounds)" d="M6.96484 17.582L8.64844 17.582L8.64844 17.7266L8.53906 17.7266C8.4375 17.7266 8.36003 17.7513 8.30664 17.8008C8.25326 17.8503 8.22656 17.9167 8.22656 18C8.22656 18.0911 8.25391 18.1992 8.30859 18.3242L9.14062 20.3008L9.97656 18.25C10.0365 18.1042 10.0664 17.9935 10.0664 17.918C10.0664 17.8815 10.056 17.8516 10.0352 17.8281C10.0065 17.7891 9.97005 17.7624 9.92578 17.748C9.88151 17.7337 9.79167 17.7266 9.65625 17.7266L9.65625 17.582L10.8242 17.582L10.8242 17.7266C10.6888 17.737 10.5951 17.7643 10.543 17.8086C10.4518 17.8867 10.3698 18.0169 10.2969 18.1992L9.02734 21.2695L8.86719 21.2695L7.58984 18.25C7.53255 18.1094 7.47786 18.0085 7.42578 17.9473C7.3737 17.8861 7.30729 17.8346 7.22656 17.793C7.18229 17.7695 7.09505 17.7474 6.96484 17.7266L6.96484 17.582Z" fill-rule="evenodd"/>
<path clip-path="url(#TextBounds)" d="M13.1758 20.6445C12.8086 20.9284 12.5781 21.0924 12.4844 21.1367C12.3437 21.2018 12.194 21.2344 12.0352 21.2344C11.7878 21.2344 11.584 21.1497 11.4238 20.9805C11.2637 20.8112 11.1836 20.5885 11.1836 20.3125C11.1836 20.138 11.2227 19.987 11.3008 19.8594C11.4076 19.6823 11.5931 19.5156 11.8574 19.3594C12.1217 19.2031 12.5612 19.013 13.1758 18.7891L13.1758 18.6484C13.1758 18.2917 13.1191 18.0469 13.0059 17.9141C12.8926 17.7812 12.7279 17.7148 12.5117 17.7148C12.3477 17.7148 12.2174 17.7591 12.1211 17.8477C12.0221 17.9362 11.9727 18.0378 11.9727 18.1523L11.9805 18.3789C11.9805 18.4987 11.9499 18.5911 11.8887 18.6562C11.8275 18.7214 11.7474 18.7539 11.6484 18.7539C11.5521 18.7539 11.4733 18.7201 11.4121 18.6523C11.3509 18.5846 11.3203 18.4922 11.3203 18.375C11.3203 18.151 11.4349 17.9453 11.6641 17.7578C11.8932 17.5703 12.2148 17.4766 12.6289 17.4766C12.9466 17.4766 13.207 17.5299 13.4102 17.6367C13.5638 17.7174 13.6771 17.8437 13.75 18.0156C13.7969 18.1276 13.8203 18.3568 13.8203 18.7031L13.8203 19.918C13.8203 20.2591 13.8268 20.4681 13.8398 20.5449C13.8529 20.6217 13.8743 20.6732 13.9043 20.6992C13.9342 20.7253 13.9687 20.7383 14.0078 20.7383C14.0495 20.7383 14.0859 20.7292 14.1172 20.7109C14.1719 20.6771 14.2773 20.582 14.4336 20.4258L14.4336 20.6445C14.1419 21.0352 13.8633 21.2305 13.5977 21.2305C13.4701 21.2305 13.3685 21.1862 13.293 21.0977C13.2174 21.0091 13.1784 20.8581 13.1758 20.6445ZM13.1758 20.3906L13.1758 19.0273C12.7826 19.1836 12.5286 19.2943 12.4141 19.3594C12.2083 19.474 12.0612 19.5937 11.9727 19.7188C11.8841 19.8438 11.8398 19.9805 11.8398 20.1289C11.8398 20.3164 11.8958 20.472 12.0078 20.5957C12.1198 20.7194 12.2487 20.7812 12.3945 20.7812C12.5924 20.7812 12.8529 20.651 13.1758 20.3906Z" fill-rule="evenodd"/>
<path clip-path="url(#TextBounds)" d="M15.7422 18.2344C16.1615 17.7292 16.5612 17.4766 16.9414 17.4766C17.1367 17.4766 17.3047 17.5254 17.4453 17.623C17.5859 17.7207 17.6979 17.8815 17.7812 18.1055C17.8385 18.2617 17.8672 18.5013 17.8672 18.8242L17.8672 20.3516C17.8672 20.5781 17.8854 20.7318 17.9219 20.8125C17.9505 20.8776 17.9967 20.9284 18.0605 20.9648C18.1243 21.0013 18.2422 21.0195 18.4141 21.0195L18.4141 21.1602L16.6445 21.1602L16.6445 21.0195L16.7188 21.0195C16.8854 21.0195 17.002 20.9941 17.0684 20.9434C17.1348 20.8926 17.181 20.8177 17.207 20.7188C17.2174 20.6797 17.2227 20.5573 17.2227 20.3516L17.2227 18.8867C17.2227 18.5612 17.1803 18.3249 17.0957 18.1777C17.0111 18.0306 16.8685 17.957 16.668 17.957C16.3581 17.957 16.0495 18.1263 15.7422 18.4648L15.7422 20.3516C15.7422 20.5938 15.7565 20.7435 15.7852 20.8008C15.8216 20.8763 15.8717 20.9316 15.9355 20.9668C15.9993 21.002 16.1289 21.0195 16.3242 21.0195L16.3242 21.1602L14.5547 21.1602L14.5547 21.0195L14.6328 21.0195C14.8151 21.0195 14.9382 20.9733 15.002 20.8809C15.0658 20.7884 15.0977 20.612 15.0977 20.3516L15.0977 19.0234C15.0977 18.5937 15.0879 18.332 15.0684 18.2383C15.0488 18.1445 15.0189 18.0807 14.9785 18.0469C14.9382 18.013 14.8841 17.9961 14.8164 17.9961C14.7435 17.9961 14.6563 18.0156 14.5547 18.0547L14.4961 17.9141L15.5742 17.4766L15.7422 17.4766L15.7422 18.2344Z" fill-rule="evenodd"/>
<path clip-path="url(#TextBounds)" d="M21.2266 20.7578C21.0521 20.9401 20.8815 21.071 20.7148 21.1504C20.5482 21.2298 20.3685 21.2695 20.1758 21.2695C19.7852 21.2695 19.444 21.1061 19.1523 20.7793C18.8607 20.4525 18.7148 20.0326 18.7148 19.5195C18.7148 19.0065 18.8763 18.5371 19.1992 18.1113C19.5221 17.6855 19.9375 17.4727 20.4453 17.4727C20.7604 17.4727 21.0208 17.5729 21.2266 17.7734L21.2266 17.1133C21.2266 16.7044 21.2168 16.4531 21.1973 16.3594C21.1777 16.2656 21.1471 16.2018 21.1055 16.168C21.0638 16.1341 21.0117 16.1172 20.9492 16.1172C20.8815 16.1172 20.7917 16.138 20.6797 16.1797L20.6289 16.043L21.6953 15.6055L21.8711 15.6055L21.8711 19.7422C21.8711 20.1615 21.8809 20.4173 21.9004 20.5098C21.9199 20.6022 21.9512 20.6667 21.9941 20.7031C22.0371 20.7396 22.0872 20.7578 22.1445 20.7578C22.2148 20.7578 22.3086 20.7357 22.4258 20.6914L22.4688 20.8281L21.4062 21.2695L21.2266 21.2695L21.2266 20.7578ZM21.2266 20.4844L21.2266 18.6406C21.2109 18.4635 21.1641 18.3021 21.0859 18.1562C21.0078 18.0104 20.9043 17.9004 20.7754 17.8262C20.6465 17.752 20.5208 17.7148 20.3984 17.7148C20.1693 17.7148 19.9648 17.8177 19.7852 18.0234C19.5482 18.2943 19.4297 18.6901 19.4297 19.2109C19.4297 19.737 19.5443 20.14 19.7734 20.4199C20.0026 20.6999 20.2578 20.8398 20.5391 20.8398C20.776 20.8398 21.0052 20.7214 21.2266 20.4844Z" fill-rule="evenodd"/>
<path clip-path="url(#TextBounds)" d="M23.7461 17.4766L23.7461 18.2812C24.0456 17.7448 24.3529 17.4766 24.668 17.4766C24.8112 17.4766 24.9297 17.5202 25.0234 17.6074C25.1172 17.6947 25.1641 17.7956 25.1641 17.9102C25.1641 18.0117 25.1302 18.0977 25.0625 18.168C24.9948 18.2383 24.9141 18.2734 24.8203 18.2734C24.7292 18.2734 24.627 18.2285 24.5137 18.1387C24.4004 18.0488 24.3164 18.0039 24.2617 18.0039C24.2148 18.0039 24.1641 18.0299 24.1094 18.082C23.9922 18.1888 23.8711 18.3646 23.7461 18.6094L23.7461 20.3242C23.7461 20.5221 23.7708 20.6719 23.8203 20.7734C23.8542 20.8438 23.9141 20.9023 24 20.9492C24.0859 20.9961 24.2096 21.0195 24.3711 21.0195L24.3711 21.1602L22.5391 21.1602L22.5391 21.0195C22.7214 21.0195 22.8568 20.9909 22.9453 20.9336C23.0104 20.8919 23.056 20.8255 23.082 20.7344C23.0951 20.6901 23.1016 20.5638 23.1016 20.3555L23.1016 18.9688C23.1016 18.5521 23.0931 18.304 23.0762 18.2246C23.0592 18.1452 23.028 18.0872 22.9824 18.0508C22.9368 18.0143 22.8802 17.9961 22.8125 17.9961C22.7318 17.9961 22.6406 18.0156 22.5391 18.0547L22.5 17.9141L23.582 17.4766L23.7461 17.4766Z" fill-rule="evenodd"/>
<path clip-path="url(#TextBounds)" d="M25.9648 18.9297C25.9622 19.4609 26.0911 19.8776 26.3516 20.1797C26.612 20.4818 26.918 20.6328 27.2695 20.6328C27.5039 20.6328 27.7077 20.5684 27.8809 20.4395C28.054 20.3105 28.1992 20.0898 28.3164 19.7773L28.4375 19.8555C28.3828 20.2122 28.224 20.5371 27.9609 20.8301C27.6979 21.123 27.3685 21.2695 26.9727 21.2695C26.543 21.2695 26.1751 21.1022 25.8691 20.7676C25.5632 20.4329 25.4102 19.9831 25.4102 19.418C25.4102 18.806 25.5671 18.3288 25.8809 17.9863C26.1947 17.6439 26.5885 17.4727 27.0625 17.4727C27.4635 17.4727 27.793 17.6048 28.0508 17.8691C28.3086 18.1335 28.4375 18.487 28.4375 18.9297L25.9648 18.9297ZM25.9648 18.7031L27.6211 18.7031C27.6081 18.474 27.5807 18.3125 27.5391 18.2188C27.474 18.0729 27.377 17.9583 27.248 17.875C27.1191 17.7917 26.9844 17.75 26.8438 17.75C26.6276 17.75 26.4342 17.834 26.2637 18.002C26.0931 18.1699 25.9935 18.4036 25.9648 18.7031Z" fill-rule="evenodd"/>
<path clip-path="url(#TextBounds)" d="M29.9609 17.4766L29.9609 18.2812C30.2604 17.7448 30.5677 17.4766 30.8828 17.4766C31.026 17.4766 31.1445 17.5202 31.2383 17.6074C31.332 17.6947 31.3789 17.7956 31.3789 17.9102C31.3789 18.0117 31.3451 18.0977 31.2773 18.168C31.2096 18.2383 31.1289 18.2734 31.0352 18.2734C30.944 18.2734 30.8418 18.2285 30.7285 18.1387C30.6152 18.0488 30.5313 18.0039 30.4766 18.0039C30.4297 18.0039 30.3789 18.0299 30.3242 18.082C30.207 18.1888 30.0859 18.3646 29.9609 18.6094L29.9609 20.3242C29.9609 20.5221 29.9857 20.6719 30.0352 20.7734C30.069 20.8438 30.1289 20.9023 30.2148 20.9492C30.3008 20.9961 30.4245 21.0195 30.5859 21.0195L30.5859 21.1602L28.7539 21.1602L28.7539 21.0195C28.9362 21.0195 29.0716 20.9909 29.1602 20.9336C29.2253 20.8919 29.2708 20.8255 29.2969 20.7344C29.3099 20.6901 29.3164 20.5638 29.3164 20.3555L29.3164 18.9688C29.3164 18.5521 29.3079 18.304 29.291 18.2246C29.2741 18.1452 29.2428 18.0872 29.1973 18.0508C29.1517 18.0143 29.0951 17.9961 29.0273 17.9961C28.9466 17.9961 28.8555 18.0156 28.7539 18.0547L28.7148 17.9141L29.7969 17.4766L29.9609 17.4766Z" fill-rule="evenodd"/>
<path clip-path="url(#TextBounds)" d="M34.7148 17.582L34.7148 19.75C34.7148 20.1641 34.7246 20.4173 34.7441 20.5098C34.7637 20.6022 34.7949 20.6667 34.8379 20.7031C34.8809 20.7396 34.931 20.7578 34.9883 20.7578C35.069 20.7578 35.1602 20.7357 35.2617 20.6914L35.3164 20.8281L34.2461 21.2695L34.0703 21.2695L34.0703 20.5117C33.763 20.8451 33.5286 21.0547 33.3672 21.1406C33.2057 21.2266 33.0352 21.2695 32.8555 21.2695C32.6549 21.2695 32.4811 21.2116 32.334 21.0957C32.1868 20.9798 32.0846 20.8307 32.0273 20.6484C31.9701 20.4661 31.9414 20.2083 31.9414 19.875L31.9414 18.2773C31.9414 18.1081 31.9232 17.9909 31.8867 17.9258C31.8503 17.8607 31.7962 17.8105 31.7246 17.7754C31.653 17.7402 31.5234 17.724 31.3359 17.7266L31.3359 17.582L32.5898 17.582L32.5898 19.9766C32.5898 20.3099 32.6478 20.5286 32.7637 20.6328C32.8796 20.737 33.0195 20.7891 33.1836 20.7891C33.2956 20.7891 33.4225 20.7539 33.5645 20.6836C33.7064 20.6133 33.875 20.4792 34.0703 20.2812L34.0703 18.2539C34.0703 18.0508 34.0332 17.9134 33.959 17.8418C33.8848 17.7702 33.7305 17.7318 33.4961 17.7266L33.4961 17.582L34.7148 17.582Z" fill-rule="evenodd"/>
<path clip-path="url(#TextBounds)" d="M36.6172 16.4062L36.6172 17.582L37.4531 17.582L37.4531 17.8555L36.6172 17.8555L36.6172 20.1758C36.6172 20.4076 36.6504 20.5638 36.7168 20.6445C36.7832 20.7253 36.8685 20.7656 36.9727 20.7656C37.0586 20.7656 37.1419 20.7389 37.2227 20.6855C37.3034 20.6322 37.3659 20.5534 37.4102 20.4492L37.5625 20.4492C37.4714 20.7044 37.3424 20.8965 37.1758 21.0254C37.0091 21.1543 36.8372 21.2188 36.6602 21.2188C36.5404 21.2188 36.4232 21.1855 36.3086 21.1191C36.194 21.0527 36.1094 20.9577 36.0547 20.834C36 20.7103 35.9727 20.5195 35.9727 20.2617L35.9727 17.8555L35.4062 17.8555L35.4062 17.7266C35.5495 17.6693 35.696 17.5723 35.8457 17.4355C35.9954 17.2988 36.1289 17.1367 36.2461 16.9492C36.306 16.8503 36.3893 16.6693 36.4961 16.4062L36.6172 16.4062Z" fill-rule="evenodd"/>
<path clip-path="url(#TextBounds)" d="M38.4023 18.9297C38.3997 19.4609 38.5286 19.8776 38.7891 20.1797C39.0495 20.4818 39.3555 20.6328 39.707 20.6328C39.9414 20.6328 40.1452 20.5684 40.3184 20.4395C40.4915 20.3105 40.6367 20.0898 40.7539 19.7773L40.875 19.8555C40.8203 20.2122 40.6615 20.5371 40.3984 20.8301C40.1354 21.123 39.806 21.2695 39.4102 21.2695C38.9805 21.2695 38.6126 21.1022 38.3066 20.7676C38.0007 20.4329 37.8477 19.9831 37.8477 19.418C37.8477 18.806 38.0046 18.3288 38.3184 17.9863C38.6322 17.6439 39.026 17.4727 39.5 17.4727C39.901 17.4727 40.2305 17.6048 40.4883 17.8691C40.7461 18.1335 40.875 18.487 40.875 18.9297L38.4023 18.9297ZM38.4023 18.7031L40.0586 18.7031C40.0456 18.474 40.0182 18.3125 39.9766 18.2188C39.9115 18.0729 39.8145 17.9583 39.6855 17.875C39.5566 17.7917 39.4219 17.75 39.2812 17.75C39.0651 17.75 38.8717 17.834 38.7012 18.002C38.5306 18.1699 38.431 18.4036 38.4023 18.7031Z" fill-rule="evenodd"/>
</g>
</g>
</svg>
